# This file uses centimeters as units for non-parametric coordinates.

v -1.191431 -4.941430 18.511410
v -1.050020 -4.999998 18.511410
v -1.050020 -4.941430 18.652821
v -1.050020 -4.800020 18.711376
v -1.191431 -4.800020 18.652821
v -1.249999 -4.800020 18.511410
v -1.050020 -3.000000 18.711376
v -1.191431 -3.000000 18.652821
v -1.249999 -3.000000 18.511410
v 1.191429 -4.941430 18.511410
v 1.249999 -4.800020 18.511410
v 1.191429 -4.800020 18.652821
v 1.050018 -4.800020 18.711376
v 1.050018 -4.941430 18.652821
v 1.050018 -4.999998 18.511410
v 1.050018 -3.000000 18.711376
v 1.191429 -3.000000 18.652821
v 1.249999 -3.000000 18.511410
v -1.050020 -1.000001 18.711376
v -1.191431 -1.000001 18.652821
v -1.249999 -1.000001 18.511410
v 1.050018 -1.000001 18.711376
v 1.191429 -1.000001 18.652821
v 1.249999 -1.000001 18.511410
v -1.050020 0.999999 18.711376
v -1.191431 0.999999 18.652821
v -1.249999 0.999999 18.511410
v 1.050018 0.999999 18.711376
v 1.191429 0.999999 18.652821
v 1.249999 0.999999 18.511410
v -1.050020 3.000000 18.711376
v -1.191431 3.000000 18.652821
v -1.249999 3.000000 18.511410
v 1.050018 3.000000 18.711376
v 1.191429 3.000000 18.652821
v 1.249999 3.000000 18.511410
v -1.191431 4.941430 18.511410
v -1.249999 4.800020 18.511410
v -1.191431 4.800020 18.652821
v -1.050020 4.800020 18.711376
v -1.050020 4.941430 18.652821
v -1.050020 4.999998 18.511410
v 1.191429 4.941430 18.511410
v 1.050018 4.999998 18.511410
v 1.050018 4.941430 18.652821
v 1.050018 4.800020 18.711376
v 1.191429 4.800020 18.652821
v 1.249999 4.800020 18.511410
v -1.191431 4.800020 16.269932
v -1.249999 4.800020 16.411343
v -1.191431 4.941430 16.411343
v -1.050020 4.999998 16.411343
v -1.050020 4.941430 16.269932
v -1.050020 4.800020 16.211376
v 1.191429 4.800020 16.269932
v 1.050018 4.800020 16.211376
v 1.050018 4.941430 16.269932
v 1.050018 4.999998 16.411343
v 1.191429 4.941430 16.411343
v 1.249999 4.800020 16.411343
v -1.249999 2.800020 16.411343
v -1.191431 2.941429 16.269932
v -1.050020 3.000000 16.211376
v 1.050018 3.000000 16.211376
v 1.191429 2.941429 16.269932
v 1.249999 2.800020 16.411343
v -1.191431 1.058570 16.069965
v -1.050020 0.999999 16.011410
v -1.050020 0.941429 16.152821
v -1.050020 0.800019 16.211376
v -1.191431 0.858590 16.269932
v -1.249999 0.999999 16.411343
v -1.249999 1.199978 16.211376
v -1.249999 1.141410 16.352806
v -1.050020 -1.000001 16.011410
v -1.191431 -1.058580 16.069965
v -1.249999 -1.199980 16.211376
v -1.249999 -1.000001 16.411343
v -1.191431 -0.858600 16.269932
v -1.050020 -0.800020 16.211376
v -1.050020 -0.941430 16.152821
v -1.249999 -1.141411 16.352806
v 1.191429 -1.058580 16.069965
v 1.050018 -1.000001 16.011410
v 1.050018 -0.941430 16.152821
v 1.050018 -0.800020 16.211376
v 1.191429 -0.858600 16.269932
v 1.249999 -1.000001 16.411343
v 1.249999 -1.199980 16.211376
v 1.249999 -1.141411 16.352806
v 1.050018 0.999999 16.011410
v 1.191429 1.058570 16.069965
v 1.249999 1.199978 16.211376
v 1.249999 0.999999 16.411343
v 1.191429 0.858590 16.269932
v 1.050018 0.800019 16.211376
v 1.050018 0.941429 16.152821
v 1.249999 1.141410 16.352806
v -1.191431 -2.941431 16.069965
v -1.050020 -3.000000 16.011410
v -1.050020 -3.058570 16.152821
v -1.050020 -3.199981 16.211376
v -1.191431 -3.141410 16.269932
v -1.249999 -3.000000 16.411343
v -1.249999 -2.800020 16.211376
v -1.249999 -2.858590 16.352806
v -1.191431 -4.941430 16.411343
v -1.249999 -4.800020 16.411343
v -1.191431 -4.800020 16.269932
v -1.050020 -4.800020 16.211376
v -1.050020 -4.941430 16.269932
v -1.050020 -4.999998 16.411343
v 1.191429 -4.941430 16.411343
v 1.050018 -4.999998 16.411343
v 1.050018 -4.941430 16.269932
v 1.050018 -4.800020 16.211376
v 1.191429 -4.800020 16.269932
v 1.249999 -4.800020 16.411343
v 1.050018 -3.000000 16.011410
v 1.191429 -2.941431 16.069965
v 1.249999 -2.800020 16.211376
v 1.249999 -3.000000 16.411343
v 1.191429 -3.141410 16.269932
v 1.050018 -3.199981 16.211376
v 1.050018 -3.058570 16.152821
v 1.249999 -2.858590 16.352806
v -1.249999 2.800020 11.836395
v -1.191431 2.941429 11.836395
v -1.050020 3.000000 11.836395
v 1.050018 3.000000 11.836395
v 1.191429 2.941429 11.836395
v 1.249999 2.800020 11.836395
v 1.249999 1.199978 11.836395
v 1.191429 1.058570 11.836395
v 1.050018 0.999999 11.836395
v -1.050020 0.999999 11.836395
v -1.191431 1.058570 11.836395
v -1.249999 1.199978 11.836395
v -1.249999 -1.199980 11.836395
v -1.191431 -1.058570 11.836395
v -1.050020 -1.000001 11.836395
v 1.050018 -1.000001 11.836395
v 1.191429 -1.058570 11.836395
v 1.249999 -1.199980 11.836395
v 1.249999 -2.800020 11.836395
v 1.191429 -2.941431 11.836395
v 1.050018 -3.000000 11.836395
v -1.050020 -3.000000 11.836395
v -1.191431 -2.941431 11.836395
v -1.249999 -2.800020 11.836395
v -1.165441 -4.915440 18.626804
v 1.165439 -4.915440 18.626804
v -1.165441 4.915440 18.626804
v 1.165439 4.915440 18.626804
v -1.165441 4.915440 16.295967
v 1.165439 4.915440 16.295967
v -1.191431 0.999999 16.211376
v -1.191431 -1.000001 16.211376
v 1.191429 -1.000001 16.211376
v 1.191429 0.999999 16.211376
v -1.191431 -3.000000 16.211376
v -1.165441 -4.915440 16.295967
v 1.165439 -4.915440 16.295967
v 1.191429 -3.000000 16.211376
v -1.249999 1.200000 18.511410
v -1.191431 1.200000 18.652821
v -1.050020 1.200000 18.711376
v 1.050018 1.200000 18.711376
v 1.191429 1.200000 18.652821
v 1.249999 1.200000 18.511410
v 1.249999 1.100000 18.511410
v 1.191429 1.100000 18.652821
v 1.050018 1.100000 18.711376
v -1.050020 1.100000 18.711376
v -1.191431 1.100000 18.652821
v -1.249999 1.100000 18.511410
v 1.249999 -1.200000 18.511410
v 1.191429 -1.200000 18.652821
v 1.050018 -1.200000 18.711376
v -1.050020 -1.200000 18.711376
v -1.191431 -1.200000 18.652821
v -1.249999 -1.200000 18.511410
v -1.249999 -1.100000 18.511410
v -1.191431 -1.100000 18.652821
v -1.050020 -1.100000 18.711376
v 1.050018 -1.100000 18.711376
v 1.191429 -1.100000 18.652821
v 1.249999 -1.100000 18.511410
v 1.249999 -2.820000 18.511410
v 1.191429 -2.820000 18.652821
v 1.050018 -2.820000 18.711376
v -1.050020 -2.820000 18.711376
v -1.191431 -2.820000 18.652821
v -1.249999 -2.820000 18.511410
v 1.249999 -2.892000 18.511410
v 1.191429 -2.892000 18.652821
v 1.050018 -2.892000 18.711376
v -1.050020 -2.892000 18.711376
v -1.191431 -2.892000 18.652821
v -1.249999 -2.892000 18.511410
v -1.249999 2.800020 8.548393
v -1.050020 3.000000 8.548393
v 1.050018 3.000000 8.548393
v 1.249999 2.800020 8.548393
v 1.249999 1.199978 8.548393
v 1.050018 0.999999 8.548393
v -1.050020 0.999999 8.548393
v -1.249999 1.199978 8.548393
v -1.249999 -1.199980 8.548393
v -1.050020 -1.000001 8.548393
v 1.050018 -1.000001 8.548393
v 1.249999 -1.199980 8.548393
v 1.249999 -2.800020 8.548393
v 1.050018 -3.000000 8.548393
v -1.050020 -3.000000 8.548393
v -1.249999 -2.800020 8.548393
v -1.191431 2.941429 8.548393
v 1.191429 2.941429 8.548393
v 1.191429 1.058570 8.548393
v -1.191431 1.058570 8.548393
v -1.191431 -1.058570 8.548393
v 1.191429 -1.058570 8.548393
v 1.191429 -2.941431 8.548393
v -1.191431 -2.941431 8.548393
v -1.191431 4.800020 0.826836
v -1.249999 4.800020 0.685425
v -1.191431 4.941430 0.685425
v -1.050020 4.999998 0.685425
v -1.050020 4.941430 0.826836
v -1.050020 4.800020 0.885391
v 1.191429 4.800020 0.826836
v 1.050018 4.800020 0.885391
v 1.050018 4.941430 0.826836
v 1.050018 4.999998 0.685425
v 1.191429 4.941430 0.685425
v 1.249999 4.800020 0.685425
v -1.249999 2.800020 0.685425
v -1.191431 2.941429 0.826836
v -1.050020 3.000000 0.885391
v 1.050018 3.000000 0.885391
v 1.191429 2.941429 0.826836
v 1.249999 2.800020 0.685425
v -1.191431 1.058570 1.026802
v -1.050020 0.999999 1.085358
v -1.050020 0.941429 0.943947
v -1.050020 0.800019 0.885391
v -1.191431 0.858590 0.826836
v -1.249999 0.999999 0.685425
v -1.249999 1.199978 0.885391
v -1.249999 1.141410 0.743980
v -1.050020 -1.000001 1.085358
v -1.191431 -1.058580 1.026802
v -1.249999 -1.199980 0.885391
v -1.249999 -1.000001 0.685425
v -1.191431 -0.858600 0.826836
v -1.050020 -0.800020 0.885391
v -1.050020 -0.941430 0.943947
v -1.249999 -1.141411 0.743980
v 1.191429 -1.058580 1.026802
v 1.050018 -1.000001 1.085358
v 1.050018 -0.941430 0.943947
v 1.050018 -0.800020 0.885391
v 1.191429 -0.858600 0.826836
v 1.249999 -1.000001 0.685425
v 1.249999 -1.199980 0.885391
v 1.249999 -1.141411 0.743980
v 1.050018 0.999999 1.085358
v 1.191429 1.058570 1.026802
v 1.249999 1.199978 0.885391
v 1.249999 0.999999 0.685425
v 1.191429 0.858590 0.826836
v 1.050018 0.800019 0.885391
v 1.050018 0.941429 0.943947
v 1.249999 1.141410 0.743980
v -1.191431 -2.941431 1.026802
v -1.050020 -3.000000 1.085358
v -1.050020 -3.058570 0.943947
v -1.050020 -3.199981 0.885391
v -1.191431 -3.141410 0.826836
v -1.249999 -3.000000 0.685425
v -1.249999 -2.800020 0.885391
v -1.249999 -2.858590 0.743980
v -1.191431 -4.941430 0.685425
v -1.249999 -4.800020 0.685425
v -1.191431 -4.800020 0.826836
v -1.050020 -4.800020 0.885391
v -1.050020 -4.941430 0.826836
v -1.050020 -4.999998 0.685425
v 1.191429 -4.941430 0.685425
v 1.050018 -4.999998 0.685425
v 1.050018 -4.941430 0.826836
v 1.050018 -4.800020 0.885391
v 1.191429 -4.800020 0.826836
v 1.249999 -4.800020 0.685425
v 1.050018 -3.000000 1.085358
v 1.191429 -2.941431 1.026802
v 1.249999 -2.800020 0.885391
v 1.249999 -3.000000 0.685425
v 1.191429 -3.141410 0.826836
v 1.050018 -3.199981 0.885391
v 1.050018 -3.058570 0.943947
v 1.249999 -2.858590 0.743980
v -1.249999 2.800020 5.260372
v -1.191431 2.941429 5.260372
v -1.050020 3.000000 5.260372
v 1.050018 3.000000 5.260372
v 1.191429 2.941429 5.260372
v 1.249999 2.800020 5.260372
v 1.249999 1.199978 5.260372
v 1.191429 1.058570 5.260372
v 1.050018 0.999999 5.260372
v -1.050020 0.999999 5.260372
v -1.191431 1.058570 5.260372
v -1.249999 1.199978 5.260372
v -1.249999 -1.199980 5.260372
v -1.191431 -1.058570 5.260372
v -1.050020 -1.000001 5.260372
v 1.050018 -1.000001 5.260372
v 1.191429 -1.058570 5.260372
v 1.249999 -1.199980 5.260372
v 1.249999 -2.800020 5.260372
v 1.191429 -2.941431 5.260372
v 1.050018 -3.000000 5.260372
v -1.050020 -3.000000 5.260372
v -1.191431 -2.941431 5.260372
v -1.249999 -2.800020 5.260372
v -1.165441 4.915440 0.800819
v 1.165439 4.915440 0.800819
v -1.191431 0.999999 0.885391
v -1.191431 -1.000001 0.885391
v 1.191429 -1.000001 0.885391
v 1.191429 0.999999 0.885391
v -1.191431 -3.000000 0.885391
v -1.165441 -4.915440 0.800819
v 1.165439 -4.915440 0.800819
v 1.191429 -3.000000 0.885391
v -1.191431 -4.941430 -18.511410
v -1.050020 -4.999998 -18.511410
v -1.050020 -4.941430 -18.652821
v -1.050020 -4.800020 -18.711376
v -1.191431 -4.800020 -18.652821
v -1.249999 -4.800020 -18.511410
v -1.050020 -3.000000 -18.711376
v -1.191431 -3.000000 -18.652821
v -1.249999 -3.000000 -18.511410
v 1.191429 -4.941430 -18.511410
v 1.249999 -4.800020 -18.511410
v 1.191429 -4.800020 -18.652821
v 1.050018 -4.800020 -18.711376
v 1.050018 -4.941430 -18.652821
v 1.050018 -4.999998 -18.511410
v 1.050018 -3.000000 -18.711376
v 1.191429 -3.000000 -18.652821
v 1.249999 -3.000000 -18.511410
v -1.050020 -1.000001 -18.711376
v -1.191431 -1.000001 -18.652821
v -1.249999 -1.000001 -18.511410
v 1.050018 -1.000001 -18.711376
v 1.191429 -1.000001 -18.652821
v 1.249999 -1.000001 -18.511410
v -1.050020 0.999999 -18.711376
v -1.191431 0.999999 -18.652821
v -1.249999 0.999999 -18.511410
v 1.050018 0.999999 -18.711376
v 1.191429 0.999999 -18.652821
v 1.249999 0.999999 -18.511410
v -1.050020 3.000000 -18.711376
v -1.191431 3.000000 -18.652821
v -1.249999 3.000000 -18.511410
v 1.050018 3.000000 -18.711376
v 1.191429 3.000000 -18.652821
v 1.249999 3.000000 -18.511410
v -1.191431 4.941430 -18.511410
v -1.249999 4.800020 -18.511410
v -1.191431 4.800020 -18.652821
v -1.050020 4.800020 -18.711376
v -1.050020 4.941430 -18.652821
v -1.050020 4.999998 -18.511410
v 1.191429 4.941430 -18.511410
v 1.050018 4.999998 -18.511410
v 1.050018 4.941430 -18.652821
v 1.050018 4.800020 -18.711376
v 1.191429 4.800020 -18.652821
v 1.249999 4.800020 -18.511410
v -1.191431 4.800020 -16.269932
v -1.249999 4.800020 -16.411343
v -1.191431 4.941430 -16.411343
v -1.050020 4.999998 -16.411343
v -1.050020 4.941430 -16.269932
v -1.050020 4.800020 -16.211376
v 1.191429 4.800020 -16.269932
v 1.050018 4.800020 -16.211376
v 1.050018 4.941430 -16.269932
v 1.050018 4.999998 -16.411343
v 1.191429 4.941430 -16.411343
v 1.249999 4.800020 -16.411343
v -1.249999 2.800020 -16.411343
v -1.191431 2.941429 -16.269932
v -1.050020 3.000000 -16.211376
v 1.050018 3.000000 -16.211376
v 1.191429 2.941429 -16.269932
v 1.249999 2.800020 -16.411343
v -1.191431 1.058570 -16.069965
v -1.050020 0.999999 -16.011410
v -1.050020 0.941429 -16.152821
v -1.050020 0.800019 -16.211376
v -1.191431 0.858590 -16.269932
v -1.249999 0.999999 -16.411343
v -1.249999 1.199978 -16.211376
v -1.249999 1.141410 -16.352787
v -1.050020 -1.000001 -16.011410
v -1.191431 -1.058580 -16.069965
v -1.249999 -1.199980 -16.211376
v -1.249999 -1.000001 -16.411343
v -1.191431 -0.858600 -16.269932
v -1.050020 -0.800020 -16.211376
v -1.050020 -0.941430 -16.152821
v -1.249999 -1.141411 -16.352787
v 1.191429 -1.058580 -16.069965
v 1.050018 -1.000001 -16.011410
v 1.050018 -0.941430 -16.152821
v 1.050018 -0.800020 -16.211376
v 1.191429 -0.858600 -16.269932
v 1.249999 -1.000001 -16.411343
v 1.249999 -1.199980 -16.211376
v 1.249999 -1.141411 -16.352787
v 1.050018 0.999999 -16.011410
v 1.191429 1.058570 -16.069965
v 1.249999 1.199978 -16.211376
v 1.249999 0.999999 -16.411343
v 1.191429 0.858590 -16.269932
v 1.050018 0.800019 -16.211376
v 1.050018 0.941429 -16.152821
v 1.249999 1.141410 -16.352787
v -1.191431 -2.941431 -16.069965
v -1.050020 -3.000000 -16.011410
v -1.050020 -3.058570 -16.152821
v -1.050020 -3.199981 -16.211376
v -1.191431 -3.141410 -16.269932
v -1.249999 -3.000000 -16.411343
v -1.249999 -2.800020 -16.211376
v -1.249999 -2.858590 -16.352787
v -1.191431 -4.941430 -16.411343
v -1.249999 -4.800020 -16.411343
v -1.191431 -4.800020 -16.269932
v -1.050020 -4.800020 -16.211376
v -1.050020 -4.941430 -16.269932
v -1.050020 -4.999998 -16.411343
v 1.191429 -4.941430 -16.411343
v 1.050018 -4.999998 -16.411343
v 1.050018 -4.941430 -16.269932
v 1.050018 -4.800020 -16.211376
v 1.191429 -4.800020 -16.269932
v 1.249999 -4.800020 -16.411343
v 1.050018 -3.000000 -16.011410
v 1.191429 -2.941431 -16.069965
v 1.249999 -2.800020 -16.211376
v 1.249999 -3.000000 -16.411343
v 1.191429 -3.141410 -16.269932
v 1.050018 -3.199981 -16.211376
v 1.050018 -3.058570 -16.152821
v 1.249999 -2.858590 -16.352787
v -1.249999 2.800020 -11.836395
v -1.191431 2.941429 -11.836395
v -1.050020 3.000000 -11.836395
v 1.050018 3.000000 -11.836395
v 1.191429 2.941429 -11.836395
v 1.249999 2.800020 -11.836395
v 1.249999 1.199978 -11.836395
v 1.191429 1.058570 -11.836395
v 1.050018 0.999999 -11.836395
v -1.050020 0.999999 -11.836395
v -1.191431 1.058570 -11.836395
v -1.249999 1.199978 -11.836395
v -1.249999 -1.199980 -11.836395
v -1.191431 -1.058570 -11.836395
v -1.050020 -1.000001 -11.836395
v 1.050018 -1.000001 -11.836395
v 1.191429 -1.058570 -11.836395
v 1.249999 -1.199980 -11.836395
v 1.249999 -2.800020 -11.836395
v 1.191429 -2.941431 -11.836395
v 1.050018 -3.000000 -11.836395
v -1.050020 -3.000000 -11.836395
v -1.191431 -2.941431 -11.836395
v -1.249999 -2.800020 -11.836395
v -1.165441 -4.915440 -18.626804
v 1.165439 -4.915440 -18.626804
v -1.165441 4.915440 -18.626804
v 1.165439 4.915440 -18.626804
v -1.165441 4.915440 -16.295948
v 1.165439 4.915440 -16.295948
v -1.191431 0.999999 -16.211376
v -1.191431 -1.000001 -16.211376
v 1.191429 -1.000001 -16.211376
v 1.191429 0.999999 -16.211376
v -1.191431 -3.000000 -16.211376
v -1.165441 -4.915440 -16.295948
v 1.165439 -4.915440 -16.295948
v 1.191429 -3.000000 -16.211376
v -1.249999 1.200000 -18.511410
v -1.191431 1.200000 -18.652821
v -1.050020 1.200000 -18.711376
v 1.050018 1.200000 -18.711376
v 1.191429 1.200000 -18.652821
v 1.249999 1.200000 -18.511410
v 1.249999 1.100000 -18.511410
v 1.191429 1.100000 -18.652821
v 1.050018 1.100000 -18.711376
v -1.050020 1.100000 -18.711376
v -1.191431 1.100000 -18.652821
v -1.249999 1.100000 -18.511410
v 1.249999 -1.200000 -18.511410
v 1.191429 -1.200000 -18.652821
v 1.050018 -1.200000 -18.711376
v -1.050020 -1.200000 -18.711376
v -1.191431 -1.200000 -18.652821
v -1.249999 -1.200000 -18.511410
v -1.249999 -1.100000 -18.511410
v -1.191431 -1.100000 -18.652821
v -1.050020 -1.100000 -18.711376
v 1.050018 -1.100000 -18.711376
v 1.191429 -1.100000 -18.652821
v 1.249999 -1.100000 -18.511410
v 1.249999 -2.820000 -18.511410
v 1.191429 -2.820000 -18.652821
v 1.050018 -2.820000 -18.711376
v -1.050020 -2.820000 -18.711376
v -1.191431 -2.820000 -18.652821
v -1.249999 -2.820000 -18.511410
v 1.249999 -2.892000 -18.511410
v 1.191429 -2.892000 -18.652821
v 1.050018 -2.892000 -18.711376
v -1.050020 -2.892000 -18.711376
v -1.191431 -2.892000 -18.652821
v -1.249999 -2.892000 -18.511410
v -1.249999 2.800020 -8.548374
v -1.050020 3.000000 -8.548374
v 1.050018 3.000000 -8.548374
v 1.249999 2.800020 -8.548374
v 1.249999 1.199978 -8.548374
v 1.050018 0.999999 -8.548374
v -1.050020 0.999999 -8.548374
v -1.249999 1.199978 -8.548374
v -1.249999 -1.199980 -8.548374
v -1.050020 -1.000001 -8.548374
v 1.050018 -1.000001 -8.548374
v 1.249999 -1.199980 -8.548374
v 1.249999 -2.800020 -8.548374
v 1.050018 -3.000000 -8.548374
v -1.050020 -3.000000 -8.548374
v -1.249999 -2.800020 -8.548374
v -1.191431 2.941429 -8.548374
v 1.191429 2.941429 -8.548374
v 1.191429 1.058570 -8.548374
v -1.191431 1.058570 -8.548374
v -1.191431 -1.058570 -8.548374
v 1.191429 -1.058570 -8.548374
v 1.191429 -2.941431 -8.548374
v -1.191431 -2.941431 -8.548374
v -1.191431 4.800020 -0.826836
v -1.249999 4.800020 -0.685425
v -1.191431 4.941430 -0.685425
v -1.050020 4.999998 -0.685425
v -1.050020 4.941430 -0.826836
v -1.050020 4.800020 -0.885391
v 1.191429 4.800020 -0.826836
v 1.050018 4.800020 -0.885391
v 1.050018 4.941430 -0.826836
v 1.050018 4.999998 -0.685425
v 1.191429 4.941430 -0.685425
v 1.249999 4.800020 -0.685425
v -1.249999 2.800020 -0.685425
v -1.191431 2.941429 -0.826836
v -1.050020 3.000000 -0.885391
v 1.050018 3.000000 -0.885391
v 1.191429 2.941429 -0.826836
v 1.249999 2.800020 -0.685425
v -1.191431 1.058570 -1.026802
v -1.050020 0.999999 -1.085358
v -1.050020 0.941429 -0.943947
v -1.050020 0.800019 -0.885391
v -1.191431 0.858590 -0.826836
v -1.249999 0.999999 -0.685425
v -1.249999 1.199978 -0.885391
v -1.249999 1.141410 -0.743980
v -1.050020 -1.000001 -1.085358
v -1.191431 -1.058580 -1.026802
v -1.249999 -1.199980 -0.885391
v -1.249999 -1.000001 -0.685425
v -1.191431 -0.858600 -0.826836
v -1.050020 -0.800020 -0.885391
v -1.050020 -0.941430 -0.943947
v -1.249999 -1.141411 -0.743980
v 1.191429 -1.058580 -1.026802
v 1.050018 -1.000001 -1.085358
v 1.050018 -0.941430 -0.943947
v 1.050018 -0.800020 -0.885391
v 1.191429 -0.858600 -0.826836
v 1.249999 -1.000001 -0.685425
v 1.249999 -1.199980 -0.885391
v 1.249999 -1.141411 -0.743980
v 1.050018 0.999999 -1.085358
v 1.191429 1.058570 -1.026802
v 1.249999 1.199978 -0.885391
v 1.249999 0.999999 -0.685425
v 1.191429 0.858590 -0.826836
v 1.050018 0.800019 -0.885391
v 1.050018 0.941429 -0.943947
v 1.249999 1.141410 -0.743980
v -1.191431 -2.941431 -1.026802
v -1.050020 -3.000000 -1.085358
v -1.050020 -3.058570 -0.943947
v -1.050020 -3.199981 -0.885391
v -1.191431 -3.141410 -0.826836
v -1.249999 -3.000000 -0.685425
v -1.249999 -2.800020 -0.885391
v -1.249999 -2.858590 -0.743980
v -1.191431 -4.941430 -0.685425
v -1.249999 -4.800020 -0.685425
v -1.191431 -4.800020 -0.826836
v -1.050020 -4.800020 -0.885391
v -1.050020 -4.941430 -0.826836
v -1.050020 -4.999998 -0.685425
v 1.191429 -4.941430 -0.685425
v 1.050018 -4.999998 -0.685425
v 1.050018 -4.941430 -0.826836
v 1.050018 -4.800020 -0.885391
v 1.191429 -4.800020 -0.826836
v 1.249999 -4.800020 -0.685425
v 1.050018 -3.000000 -1.085358
v 1.191429 -2.941431 -1.026802
v 1.249999 -2.800020 -0.885391
v 1.249999 -3.000000 -0.685425
v 1.191429 -3.141410 -0.826836
v 1.050018 -3.199981 -0.885391
v 1.050018 -3.058570 -0.943947
v 1.249999 -2.858590 -0.743980
v -1.249999 2.800020 -5.260372
v -1.191431 2.941429 -5.260372
v -1.050020 3.000000 -5.260372
v 1.050018 3.000000 -5.260372
v 1.191429 2.941429 -5.260372
v 1.249999 2.800020 -5.260372
v 1.249999 1.199978 -5.260372
v 1.191429 1.058570 -5.260372
v 1.050018 0.999999 -5.260372
v -1.050020 0.999999 -5.260372
v -1.191431 1.058570 -5.260372
v -1.249999 1.199978 -5.260372
v -1.249999 -1.199980 -5.260372
v -1.191431 -1.058570 -5.260372
v -1.050020 -1.000001 -5.260372
v 1.050018 -1.000001 -5.260372
v 1.191429 -1.058570 -5.260372
v 1.249999 -1.199980 -5.260372
v 1.249999 -2.800020 -5.260372
v 1.191429 -2.941431 -5.260372
v 1.050018 -3.000000 -5.260372
v -1.050020 -3.000000 -5.260372
v -1.191431 -2.941431 -5.260372
v -1.249999 -2.800020 -5.260372
v -1.165441 4.915440 -0.800819
v 1.165439 4.915440 -0.800819
v -1.191431 0.999999 -0.885391
v -1.191431 -1.000001 -0.885391
v 1.191429 -1.000001 -0.885391
v 1.191429 0.999999 -0.885391
v -1.191431 -3.000000 -0.885391
v -1.165441 -4.915440 -0.800819
v 1.165439 -4.915440 -0.800819
v 1.191429 -3.000000 -0.885391
vt 0.650315 0.790617
vt 0.635672 0.791406
vt 0.634671 0.772220
vt 0.649316 0.771483
vt 0.977086 0.033140
vt 0.976353 0.036753
vt 0.924184 0.034662
vt 0.923817 0.030994
vt 0.976047 0.040364
vt 0.923987 0.038259
vt 0.154733 0.897027
vt 0.156123 0.896846
vt 0.158311 0.914863
vt 0.157077 0.915026
vt 0.157517 0.896675
vt 0.159545 0.914713
vt 0.040531 0.350814
vt 0.040225 0.347203
vt 0.092395 0.345126
vt 0.092592 0.348720
vt 0.039493 0.343590
vt 0.092761 0.341461
vt 0.033274 0.350071
vt 0.036910 0.350650
vt 0.038869 0.395401
vt 0.035043 0.395409
vt 0.042666 0.395472
vt 0.973180 0.233848
vt 0.977083 0.233962
vt 0.978064 0.278746
vt 0.974440 0.278520
vt 0.980934 0.234009
vt 0.981692 0.279391
vt 0.974700 0.282141
vt 0.922513 0.283380
vt 0.922341 0.279750
vt 0.975383 0.285766
vt 0.922109 0.287056
vt 0.069781 0.911480
vt 0.071092 0.911222
vt 0.074509 0.929049
vt 0.073222 0.929300
vt 0.072405 0.910967
vt 0.075796 0.928799
vt 0.041094 0.596196
vt 0.041778 0.592572
vt 0.093964 0.593829
vt 0.094368 0.597506
vt 0.042040 0.588950
vt 0.094139 0.590202
vt 0.918889 0.280247
vt 0.916689 0.233697
vt 0.920354 0.229802
vt 0.915374 0.281215
vt 0.914136 0.236444
vt 0.049346 0.915450
vt 0.050649 0.915194
vt 0.054118 0.933010
vt 0.052824 0.933264
vt 0.051953 0.914939
vt 0.055411 0.932757
vt 0.101103 0.591670
vt 0.097591 0.590700
vt 0.099813 0.544153
vt 0.102366 0.546902
vt 0.096151 0.540255
vt 0.652279 0.771331
vt 0.651854 0.769919
vt 0.690298 0.767949
vt 0.690357 0.769342
vt 0.911342 0.185677
vt 0.915106 0.189545
vt 0.805803 0.189241
vt 0.805672 0.185365
vt 0.650802 0.771379
vt 0.651803 0.790566
vt 0.653279 0.790462
vt 0.920138 0.184185
vt 0.916265 0.180612
vt 0.916377 0.137728
vt 0.920278 0.134191
vt 0.649600 0.770033
vt 0.634100 0.770814
vt 0.915289 0.128798
vt 0.911482 0.132633
vt 0.805803 0.132408
vt 0.805956 0.128527
vt 0.945088 0.753519
vt 0.944696 0.754982
vt 0.906648 0.757271
vt 0.906561 0.755877
vt 0.946101 0.754962
vt 0.947236 0.774018
vt 0.945838 0.774164
vt 0.633269 0.772359
vt 0.634264 0.791414
vt 0.946400 0.775572
vt 0.907865 0.777800
vt 0.907788 0.776408
vt 0.105064 0.443091
vt 0.101259 0.439253
vt 0.210587 0.439040
vt 0.210740 0.442924
vt 0.096268 0.444644
vt 0.100169 0.448183
vt 0.100253 0.491065
vt 0.096383 0.494637
vt 0.635251 0.792864
vt 0.650748 0.792029
vt 0.101415 0.500000
vt 0.105179 0.496132
vt 0.210849 0.495878
vt 0.210721 0.499751
vt 0.653003 0.791909
vt 0.691360 0.788484
vt 0.691446 0.789876
vt 0.910167 0.081155
vt 0.912124 0.084694
vt 0.806161 0.084754
vt 0.806126 0.080939
vt 0.915800 0.088535
vt 0.806164 0.088570
vt 0.192361 0.893376
vt 0.193785 0.893279
vt 0.194853 0.911398
vt 0.193638 0.911482
vt 0.195209 0.893199
vt 0.196068 0.911328
vt 0.921508 0.083087
vt 0.917938 0.079214
vt 0.920540 0.037808
vt 0.914546 0.076973
vt 0.917025 0.036854
vt 0.175650 0.894712
vt 0.177060 0.894569
vt 0.178726 0.912642
vt 0.177504 0.912768
vt 0.178473 0.894441
vt 0.179948 0.912531
vt 0.096038 0.348272
vt 0.098632 0.389675
vt 0.095060 0.393548
vt 0.099554 0.347318
vt 0.102025 0.387436
vt 0.100764 0.398996
vt 0.104438 0.395155
vt 0.210401 0.395267
vt 0.210398 0.399083
vt 0.106398 0.391616
vt 0.210439 0.391451
vt 0.141732 0.917101
vt 0.139242 0.899122
vt 0.140873 0.917231
vt 0.138253 0.899270
vt 0.121876 0.901881
vt 0.124943 0.919770
vt 0.107958 0.922739
vt 0.104804 0.904865
vt 0.103032 0.905199
vt 0.106327 0.923047
vt 0.091063 0.925902
vt 0.087709 0.908064
vt 0.037558 0.936248
vt 0.034075 0.918435
vt 0.043035 0.399665
vt 0.043773 0.440002
vt 0.043790 0.444859
vt 0.043907 0.494697
vt 0.043934 0.499533
vt 0.043322 0.544278
vt 0.973901 0.085025
vt 0.972756 0.134423
vt 0.972616 0.184264
vt 0.972372 0.895564
vt 0.974823 0.913548
vt 0.937350 0.918656
vt 0.934912 0.900670
vt 0.210715 0.539705
vt 0.805787 0.229198
vt 0.723528 0.228908
vt 0.723579 0.188971
vt 0.720288 0.767768
vt 0.721295 0.786915
vt 0.292944 0.499533
vt 0.292977 0.539470
vt 0.909172 0.922458
vt 0.906762 0.904467
vt 0.723700 0.128374
vt 0.723839 0.088425
vt 0.232009 0.909832
vt 0.231375 0.891693
vt 0.259905 0.890882
vt 0.260289 0.909028
vt 0.292720 0.398990
vt 0.292840 0.438939
vt 0.877848 0.778205
vt 0.876712 0.759067
vt 0.972587 0.189099
vt 0.919676 0.086788
vt 0.973677 0.087545
vt 0.979669 0.040206
vt 0.977701 0.084957
vt 0.983301 0.039626
vt 0.981527 0.084968
vt 0.038987 0.398028
vt 0.035144 0.398085
vt 0.042888 0.397990
vt 0.977581 0.087586
vt 0.981421 0.087644
vt 0.036095 0.444906
vt 0.039930 0.444884
vt 0.040042 0.494714
vt 0.036204 0.494725
vt 0.976618 0.134448
vt 0.976482 0.184280
vt 0.980453 0.134469
vt 0.980317 0.184291
vt 0.036215 0.499541
vt 0.040053 0.499544
vt 0.039419 0.544393
vt 0.035568 0.544440
vt 0.976468 0.189110
vt 0.980306 0.189110
vt 0.038416 0.589177
vt 0.034786 0.589822
vt 0.805710 0.233014
vt 0.805609 0.236830
vt 0.210795 0.543519
vt 0.210893 0.547334
vt 0.723560 0.232727
vt 0.723563 0.236543
vt 0.292947 0.543289
vt 0.292942 0.547107
vt 0.292983 0.495692
vt 0.721369 0.788310
vt 0.720214 0.766373
vt 0.723539 0.185130
vt 0.723653 0.132231
vt 0.876632 0.757672
vt 0.877929 0.779599
vt 0.292890 0.442793
vt 0.292668 0.395169
vt 0.292646 0.391348
vt 0.723891 0.084601
vt 0.723916 0.080783
vt 0.979141 0.037404
vt 0.981224 0.035411
vt 0.035357 0.345856
vt 0.037440 0.347851
vt 0.979546 0.283565
vt 0.977496 0.281535
vt 0.038984 0.591965
vt 0.036932 0.593993
vt 0.917842 0.285183
vt 0.919712 0.282997
vt 0.096766 0.593449
vt 0.098635 0.595636
vt 0.918668 0.187831
vt 0.914830 0.184174
vt 0.650726 0.769877
vt 0.946445 0.753544
vt 0.918835 0.130536
vt 0.914961 0.134158
vt 0.632759 0.770998
vt 0.097711 0.440989
vt 0.101584 0.444613
vt 0.947744 0.775385
vt 0.633898 0.792820
vt 0.651884 0.792067
vt 0.097851 0.498284
vt 0.101688 0.494626
vt 0.915994 0.082948
vt 0.913190 0.079957
vt 0.919512 0.032864
vt 0.921374 0.035048
vt 0.095205 0.345511
vt 0.097069 0.343327
vt 0.103378 0.390418
vt 0.100573 0.393409
vt 0.096889 0.397246
vt 0.972603 0.186683
vt 0.976474 0.186696
vt 0.980308 0.186705
vt 0.107142 0.922892
vt 0.103918 0.905029
vt 0.040050 0.497130
vt 0.036213 0.497135
vt 0.043918 0.497116
vt 0.043784 0.442432
vt 0.039916 0.442470
vt 0.036081 0.442511
vt 0.122778 0.901720
vt 0.125746 0.919627
vt 0.976629 0.132034
vt 0.980467 0.132075
vt 0.972764 0.131993
vt 0.972775 0.129563
vt 0.976657 0.129623
vt 0.980494 0.129686
vt 0.123683 0.901566
vt 0.126547 0.919489
vt 0.036054 0.440125
vt 0.039894 0.440062
vt 0.039080 0.399734
vt 0.035220 0.399807
vt 0.137574 0.899380
vt 0.140321 0.917321
vt 0.977485 0.089295
vt 0.981344 0.089369
vt 0.973527 0.089224
vt 0.792231 0.783166
vt 0.791177 0.764038
vt 0.805814 0.763227
vt 0.806883 0.782354
vt 0.526499 0.278314
vt 0.526800 0.228441
vt 0.530487 0.232194
vt 0.530039 0.278746
vt 0.533048 0.234853
vt 0.533603 0.279596
vt 0.825742 0.915070
vt 0.827993 0.933080
vt 0.826643 0.933249
vt 0.824465 0.915230
vt 0.825292 0.933413
vt 0.823187 0.915385
vt 0.482937 0.590268
vt 0.483465 0.545522
vt 0.486029 0.542865
vt 0.486502 0.589415
vt 0.489724 0.539110
vt 0.490041 0.588983
vt 0.788274 0.764194
vt 0.750214 0.766194
vt 0.750126 0.764803
vt 0.788547 0.762746
vt 0.535653 0.184682
vt 0.641381 0.184920
vt 0.641332 0.188749
vt 0.531829 0.188421
vt 0.790763 0.783273
vt 0.789722 0.764090
vt 0.789296 0.783323
vt 0.526726 0.183192
vt 0.526753 0.133256
vt 0.530774 0.136785
vt 0.530697 0.179650
vt 0.790730 0.762630
vt 0.806101 0.761777
vt 0.531856 0.128021
vt 0.641406 0.128196
vt 0.641474 0.132042
vt 0.535738 0.131752
vt 0.808294 0.761654
vt 0.846718 0.759456
vt 0.846786 0.760847
vt 0.808727 0.763063
vt 0.809830 0.782187
vt 0.808358 0.782298
vt 0.807269 0.763119
vt 0.847907 0.779983
vt 0.848001 0.781376
vt 0.809561 0.783636
vt 0.480805 0.442427
vt 0.375066 0.442651
vt 0.375132 0.438810
vt 0.484681 0.438693
vt 0.489784 0.443927
vt 0.489804 0.493864
vt 0.485826 0.490321
vt 0.485769 0.447456
vt 0.807331 0.783763
vt 0.791941 0.784615
vt 0.484700 0.499090
vt 0.375195 0.499355
vt 0.375143 0.495528
vt 0.480871 0.495353
vt 0.789725 0.784734
vt 0.751286 0.786727
vt 0.751226 0.785334
vt 0.537774 0.080906
vt 0.641725 0.080627
vt 0.641635 0.084443
vt 0.535738 0.084372
vt 0.641501 0.088259
vt 0.531875 0.087991
vt 0.327597 0.890582
vt 0.326879 0.908718
vt 0.325698 0.908679
vt 0.326136 0.890534
vt 0.324517 0.908660
vt 0.324674 0.890511
vt 0.526630 0.082685
vt 0.526466 0.037841
vt 0.529998 0.037488
vt 0.530290 0.078902
vt 0.533570 0.036693
vt 0.533759 0.076809
vt 0.344458 0.891457
vt 0.342918 0.909541
vt 0.341736 0.909445
vt 0.343004 0.891340
vt 0.340553 0.909368
vt 0.341549 0.891245
vt 0.490052 0.348518
vt 0.489905 0.393359
vt 0.486247 0.389579
vt 0.486518 0.348165
vt 0.482779 0.387485
vt 0.482946 0.347370
vt 0.484665 0.398665
vt 0.375053 0.398873
vt 0.374919 0.395057
vt 0.480811 0.395046
vt 0.374831 0.391238
vt 0.478774 0.391583
vt 0.841143 0.913111
vt 0.843461 0.931112
vt 0.356386 0.892567
vt 0.354584 0.910627
vt 0.492424 0.082693
vt 0.492564 0.037849
vt 0.492331 0.183190
vt 0.492307 0.133259
vt 0.492572 0.278320
vt 0.492258 0.228444
vt 0.878611 0.908215
vt 0.880983 0.926210
vt 0.375239 0.539284
vt 0.641272 0.228676
vt 0.288571 0.908629
vt 0.288452 0.890478
vt 0.487228 0.188421
vt 0.528185 0.086299
vt 0.490875 0.086307
vt 0.641427 0.232489
vt 0.641526 0.236302
vt 0.374984 0.546919
vt 0.375086 0.543100
vt 0.531274 0.283628
vt 0.529325 0.281502
vt 0.526529 0.281966
vt 0.527065 0.285629
vt 0.490011 0.592632
vt 0.487215 0.592170
vt 0.485266 0.594297
vt 0.489475 0.596298
vt 0.528185 0.186789
vt 0.532127 0.183190
vt 0.789636 0.762592
vt 0.807189 0.761620
vt 0.532209 0.133242
vt 0.528205 0.129664
vt 0.488333 0.440333
vt 0.484334 0.443914
vt 0.808447 0.783798
vt 0.790840 0.784772
vt 0.484397 0.493864
vt 0.488347 0.497458
vt 0.532018 0.082603
vt 0.534912 0.079722
vt 0.531277 0.032612
vt 0.529309 0.034717
vt 0.526513 0.034217
vt 0.527059 0.030568
vt 0.487207 0.345394
vt 0.490003 0.344894
vt 0.485239 0.343292
vt 0.489456 0.341244
vt 0.481628 0.390396
vt 0.484525 0.393277
vt 0.488352 0.396973
vt 0.490872 0.186789
vt 0.490856 0.129664
vt 0.487204 0.128024
vt 0.487182 0.087999
vt 0.222731 0.724766
vt 0.222601 0.743923
vt 0.207928 0.743816
vt 0.208072 0.724660
vt 0.041961 0.033104
vt 0.095229 0.030945
vt 0.094863 0.034613
vt 0.042696 0.036718
vt 0.095062 0.038210
vt 0.043005 0.040329
vt 0.541899 0.925010
vt 0.539463 0.942997
vt 0.538079 0.942796
vt 0.540667 0.924830
vt 0.536699 0.942582
vt 0.539436 0.924639
vt 0.973497 0.350809
vt 0.921440 0.348706
vt 0.921637 0.345109
vt 0.973803 0.347195
vt 0.921268 0.341444
vt 0.974539 0.343584
vt 0.980754 0.350065
vt 0.978975 0.395407
vt 0.975148 0.395396
vt 0.977119 0.350645
vt 0.971352 0.395467
vt 0.045886 0.233807
vt 0.044645 0.278479
vt 0.041020 0.278708
vt 0.041982 0.233924
vt 0.037393 0.279356
vt 0.038134 0.233971
vt 0.096743 0.279689
vt 0.096574 0.283319
vt 0.044385 0.282100
vt 0.096978 0.286996
vt 0.043707 0.285728
vt 0.625892 0.930702
vt 0.626133 0.948850
vt 0.624696 0.948861
vt 0.624682 0.930710
vt 0.623259 0.948853
vt 0.623473 0.930704
vt 0.972926 0.596194
vt 0.919655 0.597509
vt 0.920057 0.593829
vt 0.972243 0.592567
vt 0.919879 0.590205
vt 0.971980 0.588947
vt 0.098703 0.229742
vt 0.102369 0.233635
vt 0.100198 0.280184
vt 0.104922 0.236382
vt 0.103711 0.281152
vt 0.646349 0.930252
vt 0.647260 0.948379
vt 0.645828 0.948445
vt 0.645138 0.930308
vt 0.644393 0.948492
vt 0.643927 0.930349
vt 0.912917 0.591673
vt 0.911643 0.546902
vt 0.914196 0.544153
vt 0.916427 0.590702
vt 0.917862 0.540255
vt 0.225538 0.743941
vt 0.263662 0.744134
vt 0.263668 0.745530
vt 0.225178 0.745370
vt 0.107715 0.185628
vt 0.213383 0.185327
vt 0.213257 0.189198
vt 0.103949 0.189493
vt 0.224188 0.724749
vt 0.224071 0.743960
vt 0.225640 0.724786
vt 0.098919 0.184138
vt 0.098780 0.134141
vt 0.102683 0.137681
vt 0.102787 0.180565
vt 0.222960 0.745356
vt 0.207548 0.745245
vt 0.103774 0.128748
vt 0.213101 0.128489
vt 0.213257 0.132373
vt 0.107579 0.132586
vt 0.205320 0.745226
vt 0.166819 0.744843
vt 0.166844 0.743449
vt 0.204981 0.743792
vt 0.205149 0.724636
vt 0.206610 0.724621
vt 0.206454 0.743831
vt 0.167025 0.724282
vt 0.167024 0.722889
vt 0.205512 0.723208
vt 0.908945 0.443091
vt 0.803267 0.442924
vt 0.803423 0.439040
vt 0.912750 0.439250
vt 0.917739 0.444644
vt 0.917624 0.494637
vt 0.913753 0.491067
vt 0.913841 0.448183
vt 0.207713 0.723226
vt 0.223110 0.723337
vt 0.912594 0.500000
vt 0.803289 0.499759
vt 0.803160 0.495883
vt 0.908831 0.496135
vt 0.225296 0.723352
vt 0.263774 0.723574
vt 0.263752 0.724968
vt 0.108896 0.081103
vt 0.212937 0.080895
vt 0.212899 0.084713
vt 0.106936 0.084645
vt 0.212899 0.088529
vt 0.103262 0.088486
vt 0.505504 0.918998
vt 0.502325 0.936868
vt 0.500989 0.936616
vt 0.504240 0.918759
vt 0.499655 0.936360
vt 0.502976 0.918516
vt 0.097555 0.083035
vt 0.098509 0.037756
vt 0.101125 0.079162
vt 0.102024 0.036803
vt 0.104517 0.076921
vt 0.521572 0.921827
vt 0.518704 0.939750
vt 0.517345 0.939519
vt 0.520325 0.921615
vt 0.515990 0.939279
vt 0.519077 0.921393
vt 0.918955 0.393534
vt 0.915385 0.389661
vt 0.917993 0.348256
vt 0.911993 0.387420
vt 0.914478 0.347302
vt 0.913251 0.398985
vt 0.803614 0.399080
vt 0.803611 0.395262
vt 0.909571 0.395141
vt 0.803573 0.391446
vt 0.907614 0.391602
vt 0.557238 0.927028
vt 0.554970 0.945036
vt 0.558072 0.927135
vt 0.555984 0.945166
vt 0.573945 0.928731
vt 0.591086 0.929875
vt 0.589989 0.947992
vt 0.572638 0.946834
vt 0.592593 0.929954
vt 0.608031 0.930425
vt 0.607592 0.948569
vt 0.591932 0.948092
vt 0.661775 0.929380
vt 0.662902 0.947495
vt 0.970977 0.399663
vt 0.970236 0.439999
vt 0.970220 0.444856
vt 0.970100 0.494697
vt 0.970072 0.499530
vt 0.970690 0.544276
vt 0.045162 0.084989
vt 0.046438 0.184223
vt 0.046301 0.134382
vt 0.699403 0.926813
vt 0.700727 0.944915
vt 0.803291 0.539716
vt 0.213268 0.229149
vt 0.295478 0.188949
vt 0.295524 0.228887
vt 0.293718 0.725091
vt 0.293637 0.744264
vt 0.721030 0.539476
vt 0.721065 0.499538
vt 0.727649 0.924599
vt 0.729146 0.942688
vt 0.295226 0.088398
vt 0.295360 0.128347
vt 0.464181 0.929676
vt 0.436274 0.924436
vt 0.439575 0.906590
vt 0.467530 0.911836
vt 0.721166 0.438936
vt 0.721289 0.398985
vt 0.136855 0.743152
vt 0.137045 0.723980
vt 0.046468 0.189058
vt 0.099387 0.086739
vt 0.045386 0.087510
vt 0.041365 0.084921
vt 0.039386 0.040170
vt 0.037538 0.084932
vt 0.035750 0.039591
vt 0.978874 0.398085
vt 0.975031 0.398025
vt 0.971127 0.397984
vt 0.041482 0.087551
vt 0.037642 0.087608
vt 0.977914 0.444903
vt 0.977802 0.494725
vt 0.973967 0.494711
vt 0.974079 0.444881
vt 0.042573 0.184242
vt 0.042442 0.134409
vt 0.038738 0.184253
vt 0.038610 0.134431
vt 0.977794 0.499541
vt 0.978445 0.544437
vt 0.974593 0.544391
vt 0.973954 0.499541
vt 0.042589 0.189072
vt 0.038749 0.189072
vt 0.979235 0.589817
vt 0.975608 0.589172
vt 0.213345 0.232962
vt 0.213446 0.236781
vt 0.803117 0.547348
vt 0.803215 0.543532
vt 0.295497 0.232705
vt 0.295491 0.236524
vt 0.721065 0.547110
vt 0.721060 0.543291
vt 0.721024 0.495695
vt 0.293724 0.723694
vt 0.293630 0.745661
vt 0.295516 0.185106
vt 0.295407 0.132206
vt 0.136842 0.744548
vt 0.137057 0.722583
vt 0.721120 0.442793
vt 0.721341 0.395164
vt 0.721363 0.391342
vt 0.295150 0.080753
vt 0.295174 0.084574
vt 0.039911 0.037371
vt 0.037825 0.035376
vt 0.978674 0.345853
vt 0.976592 0.347846
vt 0.039539 0.283527
vt 0.041592 0.281496
vt 0.975036 0.591960
vt 0.977089 0.593991
vt 0.101245 0.285121
vt 0.099376 0.282937
vt 0.917255 0.593452
vt 0.915385 0.595639
vt 0.100387 0.187782
vt 0.104222 0.184124
vt 0.224067 0.745460
vt 0.206437 0.745332
vt 0.104099 0.134111
vt 0.100223 0.130487
vt 0.916296 0.440989
vt 0.912425 0.444613
vt 0.206618 0.723120
vt 0.224202 0.723248
vt 0.912318 0.494629
vt 0.916156 0.498286
vt 0.103068 0.082896
vt 0.105873 0.079905
vt 0.099537 0.032812
vt 0.097675 0.034996
vt 0.918827 0.345495
vt 0.916965 0.343311
vt 0.910637 0.390402
vt 0.913442 0.393395
vt 0.917126 0.397235
vt 0.046452 0.186642
vt 0.042581 0.186658
vt 0.038746 0.186666
vt 0.591839 0.929919
vt 0.590961 0.948049
vt 0.977794 0.497133
vt 0.973959 0.497127
vt 0.970089 0.497113
vt 0.970225 0.442432
vt 0.974093 0.442470
vt 0.977928 0.442509
vt 0.573187 0.928668
vt 0.571677 0.946755
vt 0.042431 0.131993
vt 0.038593 0.132037
vt 0.046296 0.131955
vt 0.046285 0.129525
vt 0.042406 0.129585
vt 0.038569 0.129648
vt 0.572429 0.928594
vt 0.570717 0.946664
vt 0.977955 0.440122
vt 0.974115 0.440062
vt 0.974935 0.399731
vt 0.978795 0.399805
vt 0.558596 0.927200
vt 0.556691 0.945251
vt 0.041578 0.089256
vt 0.037718 0.089330
vt 0.045533 0.089185
vt 0.364787 0.725374
vt 0.379452 0.725406
vt 0.379374 0.744618
vt 0.364711 0.744534
vt 0.489032 0.278752
vt 0.488568 0.232202
vt 0.485468 0.279605
vt 0.486006 0.234859
vt 0.808908 0.917016
vt 0.810181 0.916878
vt 0.812123 0.934925
vt 0.810763 0.935071
vt 0.811455 0.916734
vt 0.813481 0.934771
vt 0.531072 0.590268
vt 0.527508 0.589415
vt 0.527981 0.542865
vt 0.530545 0.545522
vt 0.523968 0.588983
vt 0.524285 0.539110
vt 0.361742 0.744520
vt 0.362089 0.745953
vt 0.323593 0.745770
vt 0.323612 0.744375
vt 0.483402 0.184682
vt 0.377726 0.188738
vt 0.377676 0.184906
vt 0.363222 0.744554
vt 0.363298 0.725341
vt 0.361820 0.725364
vt 0.488357 0.179650
vt 0.488286 0.136785
vt 0.364347 0.745965
vt 0.379866 0.746055
vt 0.483322 0.131755
vt 0.377584 0.132029
vt 0.377652 0.128188
vt 0.068258 0.743915
vt 0.068750 0.742482
vt 0.106864 0.742838
vt 0.106856 0.744233
vt 0.067347 0.742405
vt 0.067536 0.723316
vt 0.068941 0.723267
vt 0.380782 0.744558
vt 0.380858 0.725478
vt 0.068477 0.721824
vt 0.107074 0.722272
vt 0.107056 0.723669
vt 0.533204 0.442427
vt 0.529331 0.438693
vt 0.638878 0.438813
vt 0.638943 0.442654
vt 0.524225 0.443927
vt 0.528238 0.447456
vt 0.528183 0.490321
vt 0.524206 0.493861
vt 0.379954 0.723973
vt 0.364434 0.723940
vt 0.529307 0.499090
vt 0.533139 0.495351
vt 0.638867 0.495531
vt 0.638815 0.499360
vt 0.362177 0.723934
vt 0.323690 0.725208
vt 0.323683 0.723813
vt 0.481286 0.080919
vt 0.483322 0.084383
vt 0.377428 0.084443
vt 0.377338 0.080627
vt 0.377562 0.088256
vt 0.373089 0.894788
vt 0.374510 0.895007
vt 0.371731 0.912943
vt 0.370537 0.912758
vt 0.375926 0.895245
vt 0.372922 0.913145
vt 0.488765 0.078913
vt 0.489029 0.037499
vt 0.485293 0.076822
vt 0.485457 0.036704
vt 0.357828 0.892726
vt 0.355770 0.910759
vt 0.359266 0.892908
vt 0.356956 0.910911
vt 0.523955 0.348518
vt 0.527486 0.348165
vt 0.527762 0.389576
vt 0.524105 0.393359
vt 0.531059 0.347370
vt 0.531231 0.387485
vt 0.529345 0.398662
vt 0.533202 0.395046
vt 0.639093 0.395065
vt 0.638957 0.398875
vt 0.535235 0.391580
vt 0.639178 0.391247
vt 0.795235 0.936634
vt 0.793474 0.918569
vt 0.757531 0.940210
vt 0.755888 0.922133
vt 0.638768 0.539290
vt 0.377783 0.228668
vt 0.408378 0.919331
vt 0.411565 0.901463
vt 0.377630 0.232484
vt 0.377529 0.236297
vt 0.638924 0.543103
vt 0.639025 0.546919
vt 0.487797 0.283634
vt 0.489746 0.281507
vt 0.492542 0.281969
vt 0.492006 0.285632
vt 0.523998 0.592632
vt 0.526795 0.592170
vt 0.528744 0.594297
vt 0.524534 0.596298
vt 0.486928 0.183190
vt 0.363213 0.746058
vt 0.066906 0.743795
vt 0.486851 0.133242
vt 0.381216 0.745945
vt 0.525677 0.440333
vt 0.529676 0.443914
vt 0.067123 0.721917
vt 0.381303 0.724094
vt 0.363302 0.723839
vt 0.525663 0.497458
vt 0.529613 0.493861
vt 0.487040 0.082612
vt 0.484142 0.079733
vt 0.487748 0.032623
vt 0.491965 0.030576
vt 0.492515 0.034228
vt 0.489718 0.034728
vt 0.524001 0.344894
vt 0.526800 0.345394
vt 0.524548 0.341242
vt 0.528765 0.343289
vt 0.532382 0.390396
vt 0.529487 0.393275
vt 0.525657 0.396973
f 96/1 86/2 80/3 70/4
f 2/5 1/6 107/7 112/8
f 1/6 6/9 108/10 107/7
f 4/11 3/12 14/13 13/14
f 3/12 2/15 15/16 14/13
f 11/17 10/18 113/19 118/20
f 10/18 15/21 114/22 113/19
f 13/23 12/24 17/25 16/26
f 12/24 11/17 18/27 17/25
f 33/28 32/29 39/30 38/31
f 32/29 31/32 40/33 39/30
f 38/31 37/34 51/35 50/36
f 37/34 42/37 52/38 51/35
f 42/39 41/40 45/41 44/42
f 41/40 40/43 46/44 45/41
f 44/45 43/46 59/47 58/48
f 43/46 48/49 60/50 59/47
f 50/36 49/51 62/52 61/53
f 49/51 54/54 63/55 62/52
f 54/56 53/57 57/58 56/59
f 53/57 52/60 58/61 57/58
f 56/62 55/63 65/64 64/65
f 55/63 60/50 66/66 65/64
f 68/67 67/68 137/69 136/70
f 67/71 73/72 138/73 137/74
f 70/4 69/75 97/76 96/1
f 69/75 68/67 91/77 97/76
f 72/78 71/79 79/80 78/81
f 71/82 70/4 80/3 79/83
f 77/84 76/85 140/86 139/87
f 76/88 75/89 141/90 140/91
f 75/89 81/92 85/93 84/94
f 81/95 80/3 86/2 85/96
f 84/94 83/97 143/98 142/99
f 83/100 89/101 144/102 143/103
f 88/104 87/105 95/106 94/107
f 87/108 86/2 96/1 95/109
f 93/110 92/111 134/112 133/113
f 92/114 91/77 135/115 134/116
f 100/117 99/118 149/119 148/120
f 99/118 105/121 150/122 149/119
f 102/123 101/124 125/125 124/126
f 101/124 100/127 119/128 125/125
f 104/129 103/130 109/131 108/10
f 103/130 102/132 110/133 109/131
f 112/134 111/135 115/136 114/137
f 111/135 110/138 116/139 115/136
f 118/20 117/140 123/141 122/142
f 117/140 116/143 124/144 123/141
f 121/145 120/146 146/147 145/148
f 120/146 119/149 147/150 146/147
f 4/11 13/14 16/151 7/152
f 7/152 16/151 197/153 198/154
f 19/155 22/156 28/157 25/158
f 167/159 168/160 34/161 31/162
f 31/162 34/161 46/44 40/43
f 42/39 44/42 58/61 52/60
f 54/56 56/59 64/163 63/164
f 112/134 114/137 15/16 2/15
f 11/17 118/20 122/142 18/27
f 189/165 121/145 89/101 177/166
f 24/167 88/104 94/107 30/168
f 170/169 93/110 66/66 36/170
f 36/170 66/66 60/50 48/49
f 108/10 6/9 9/171 104/129
f 72/78 78/81 21/172 27/173
f 61/53 33/28 38/31 50/36
f 63/174 64/175 130/176 129/177
f 66/66 93/110 133/113 132/178
f 138/73 73/72 61/53 127/179
f 144/102 89/101 121/145 145/148
f 150/122 105/121 77/84 139/87
f 138/73 127/179 201/180 208/181
f 135/115 136/70 207/182 206/183
f 132/178 133/113 205/184 204/185
f 129/177 130/176 203/186 202/187
f 150/122 139/87 209/188 216/189
f 147/190 148/191 215/192 214/193
f 144/102 145/148 213/194 212/195
f 141/90 142/99 211/196 210/197
f 73/72 165/198 33/28 61/53
f 106/199 104/129 9/171 200/200
f 135/115 91/77 68/67 136/70
f 141/90 75/89 84/94 142/99
f 147/190 119/128 100/127 148/191
f 110/138 102/123 124/126 116/139
f 6/9 5/201 8/202 9/171
f 5/201 4/203 7/204 8/202
f 16/26 17/25 196/205 197/206
f 17/25 18/27 195/207 196/205
f 9/171 8/202 199/208 200/200
f 8/202 7/204 198/209 199/208
f 22/210 23/211 29/212 28/213
f 23/211 24/167 30/168 29/212
f 21/172 20/214 26/215 27/173
f 20/214 19/216 25/217 26/215
f 168/218 169/219 35/220 34/221
f 169/219 170/169 36/170 35/220
f 165/198 166/222 32/29 33/28
f 166/222 167/223 31/32 32/29
f 34/221 35/220 47/224 46/225
f 35/220 36/170 48/49 47/224
f 61/53 62/52 128/226 127/179
f 62/52 63/55 129/227 128/226
f 64/65 65/64 131/228 130/229
f 65/64 66/66 132/178 131/228
f 127/179 128/226 217/230 201/180
f 128/226 129/227 202/231 217/230
f 130/229 131/228 218/232 203/233
f 131/228 132/178 204/185 218/232
f 133/113 134/112 219/234 205/184
f 134/116 135/115 206/183 219/235
f 136/70 137/69 220/236 207/182
f 137/74 138/73 208/181 220/237
f 139/87 140/86 221/238 209/188
f 140/91 141/90 210/197 221/239
f 142/99 143/98 222/240 211/196
f 143/103 144/102 212/195 222/241
f 145/148 146/147 223/242 213/194
f 146/147 147/150 214/243 223/242
f 148/120 149/119 224/244 215/245
f 149/119 150/122 216/189 224/244
f 5/201 6/9 1/6 151/246
f 1/6 2/5 3/247 151/246
f 3/247 4/203 5/201 151/246
f 14/248 15/21 10/18 152/249
f 10/18 11/17 12/24 152/249
f 12/24 13/23 14/248 152/249
f 41/250 42/37 37/34 153/251
f 37/34 38/31 39/30 153/251
f 39/30 40/33 41/250 153/251
f 47/224 48/49 43/46 154/252
f 43/46 44/45 45/253 154/252
f 45/253 46/225 47/224 154/252
f 53/254 54/54 49/51 155/255
f 49/51 50/36 51/35 155/255
f 51/35 52/38 53/254 155/255
f 59/47 60/50 55/63 156/256
f 55/63 56/62 57/257 156/256
f 57/257 58/48 59/47 156/256
f 74/258 73/72 67/71 157/259
f 67/68 68/67 69/75 157/260
f 69/75 70/4 71/82 157/260
f 71/79 72/78 74/258 157/259
f 81/92 75/89 76/88 158/261
f 76/85 77/84 82/262 158/263
f 82/262 78/81 79/80 158/263
f 79/83 80/3 81/95 158/264
f 90/265 89/101 83/100 159/266
f 83/97 84/94 85/93 159/267
f 85/96 86/2 87/108 159/268
f 87/105 88/104 90/265 159/266
f 97/76 91/77 92/114 160/269
f 92/111 93/110 98/270 160/271
f 98/270 94/107 95/106 160/271
f 95/109 96/1 97/76 160/269
f 106/199 105/121 99/118 161/272
f 99/118 100/117 101/273 161/272
f 101/273 102/132 103/130 161/272
f 103/130 104/129 106/199 161/272
f 111/274 112/8 107/7 162/275
f 107/7 108/10 109/131 162/275
f 109/131 110/133 111/274 162/275
f 117/140 118/20 113/19 163/276
f 113/19 114/22 115/277 163/276
f 115/277 116/143 117/140 163/276
f 125/278 119/149 120/146 164/279
f 120/146 121/145 126/280 164/279
f 126/280 122/142 123/141 164/279
f 123/141 124/144 125/278 164/279
f 73/72 74/258 176/281 165/198
f 27/173 26/215 175/282 176/281
f 26/215 25/217 174/283 175/282
f 25/158 28/157 173/284 174/285
f 28/213 29/212 172/286 173/287
f 29/212 30/168 171/288 172/286
f 30/168 94/107 98/270 171/288
f 172/286 171/288 170/169 169/219
f 173/287 172/286 169/219 168/218
f 174/285 173/284 168/160 167/159
f 175/282 174/283 167/223 166/222
f 176/281 175/282 166/222 165/198
f 176/281 74/258 72/78 27/173
f 171/288 98/270 93/110 170/169
f 177/166 89/101 90/265 188/289
f 187/290 188/289 24/167 23/211
f 186/291 187/290 23/211 22/210
f 185/292 186/293 22/156 19/155
f 184/294 185/295 19/216 20/214
f 183/296 184/294 20/214 21/172
f 82/262 183/296 21/172 78/81
f 182/297 181/298 184/294 183/296
f 181/298 180/299 185/295 184/294
f 180/300 179/301 186/293 185/292
f 179/302 178/303 187/290 186/291
f 178/303 177/166 188/289 187/290
f 77/84 182/297 183/296 82/262
f 188/289 90/265 88/104 24/167
f 190/304 189/165 177/166 178/303
f 191/305 190/304 178/303 179/302
f 192/306 191/307 179/301 180/300
f 193/308 192/309 180/299 181/298
f 194/310 193/308 181/298 182/297
f 195/207 126/280 121/145 189/165
f 196/205 195/207 189/165 190/304
f 197/206 196/205 190/304 191/305
f 198/154 197/153 191/307 192/306
f 199/208 198/209 192/309 193/308
f 200/200 199/208 193/308 194/310
f 18/27 122/142 126/280 195/207
f 105/121 194/310 182/297 77/84
f 106/199 200/200 194/310 105/121
f 272/311 246/312 256/313 262/314
f 226/315 237/316 238/317 225/318
f 225/318 238/317 239/319 230/320
f 230/321 232/322 233/323 229/324
f 229/324 233/323 234/325 228/326
f 232/327 240/328 241/329 231/330
f 231/330 241/329 242/331 236/332
f 244/333 312/334 313/335 243/336
f 243/337 313/338 314/339 249/340
f 246/312 272/311 273/341 245/342
f 245/342 273/341 267/343 244/333
f 248/344 254/345 255/346 247/347
f 247/348 255/349 256/313 246/312
f 253/350 315/351 316/352 252/353
f 252/354 316/355 317/356 251/357
f 251/357 260/358 261/359 257/360
f 257/360 261/359 262/314 256/313
f 260/358 318/361 319/362 259/363
f 259/364 319/365 320/366 265/367
f 264/368 270/369 271/370 263/371
f 263/372 271/373 272/311 262/314
f 269/374 309/375 310/376 268/377
f 268/378 310/379 311/380 267/343
f 276/381 324/382 325/383 275/384
f 275/384 325/383 326/385 281/386
f 278/387 300/388 301/389 277/390
f 277/390 301/389 295/391 276/392
f 280/393 284/394 285/395 279/396
f 279/396 285/395 286/397 278/398
f 288/399 290/400 291/401 287/402
f 287/402 291/401 292/403 286/404
f 294/405 298/406 299/407 293/408
f 293/408 299/407 300/409 292/410
f 297/411 321/412 322/413 296/414
f 296/414 322/413 323/415 295/416
f 230/321 239/417 240/418 232/322
f 290/400 288/399 624/419 626/420
f 284/394 280/393 616/421 620/422
f 254/345 248/344 584/423 590/424
f 237/316 226/315 562/425 573/426
f 239/417 305/427 306/428 240/418
f 242/331 308/429 309/375 269/374
f 314/339 303/430 237/316 249/340
f 320/366 321/412 297/411 265/367
f 326/385 315/351 253/350 281/386
f 314/339 208/181 201/180 303/430
f 311/380 206/183 207/182 312/334
f 308/429 204/185 205/184 309/375
f 305/427 202/187 203/186 306/428
f 326/385 216/189 209/188 315/351
f 323/431 214/193 215/192 324/432
f 320/366 212/195 213/194 321/412
f 317/356 210/197 211/196 318/361
f 249/340 237/316 573/426 585/433
f 280/393 282/434 618/435 616/421
f 311/380 312/334 244/333 267/343
f 317/356 318/361 260/358 251/357
f 323/431 324/432 276/392 295/391
f 286/404 292/403 300/388 278/387
f 237/316 303/430 304/436 238/317
f 238/317 304/436 305/437 239/319
f 240/328 306/438 307/439 241/329
f 241/329 307/439 308/429 242/331
f 303/430 201/180 217/230 304/436
f 304/436 217/230 202/231 305/437
f 306/438 203/233 218/232 307/439
f 307/439 218/232 204/185 308/429
f 309/375 205/184 219/234 310/376
f 310/379 219/235 206/183 311/380
f 312/334 207/182 220/236 313/335
f 313/338 220/237 208/181 314/339
f 315/351 209/188 221/238 316/352
f 316/355 221/239 210/197 317/356
f 318/361 211/196 222/240 319/362
f 319/365 222/241 212/195 320/366
f 321/412 213/194 223/242 322/413
f 322/413 223/242 214/243 323/415
f 324/382 215/245 224/244 325/383
f 325/383 224/244 216/189 326/385
f 229/440 327/441 225/318 230/320
f 225/318 327/441 227/442 226/315
f 227/442 327/441 229/440 228/443
f 235/444 328/445 231/330 236/332
f 231/330 328/445 233/446 232/327
f 233/446 328/445 235/444 234/447
f 250/448 329/449 243/337 249/340
f 243/336 329/450 245/342 244/333
f 245/342 329/450 247/348 246/312
f 247/347 329/449 250/448 248/344
f 257/360 330/451 252/354 251/357
f 252/353 330/452 258/453 253/350
f 258/453 330/452 255/346 254/345
f 255/349 330/451 257/360 256/313
f 266/454 331/455 259/364 265/367
f 259/363 331/456 261/359 260/358
f 261/359 331/456 263/372 262/314
f 263/371 331/455 266/454 264/368
f 273/341 332/457 268/378 267/343
f 268/377 332/458 274/459 269/374
f 274/459 332/458 271/370 270/369
f 271/373 332/457 273/341 272/311
f 282/434 333/460 275/384 281/386
f 275/384 333/460 277/461 276/381
f 277/461 333/460 279/396 278/398
f 279/396 333/460 282/434 280/393
f 287/462 334/463 283/464 288/465
f 283/464 334/463 285/395 284/394
f 285/395 334/463 287/462 286/397
f 293/408 335/466 289/467 294/405
f 289/467 335/466 291/468 290/469
f 291/468 335/466 293/408 292/410
f 301/470 336/471 296/414 295/416
f 296/414 336/471 302/472 297/411
f 302/472 336/471 299/407 298/406
f 299/407 336/471 301/470 300/409
f 250/448 249/340 585/433 586/473
f 258/453 254/345 590/424 594/474
f 253/350 258/453 594/474 589/475
f 281/386 253/350 589/475 617/476
f 282/434 281/386 617/476 618/435
f 432/477 406/478 416/479 422/480
f 338/481 448/482 443/483 337/484
f 337/484 443/483 444/485 342/486
f 340/487 349/488 350/489 339/490
f 339/490 350/489 351/491 338/492
f 347/493 454/494 449/495 346/496
f 346/496 449/495 450/497 351/498
f 349/499 352/500 353/501 348/502
f 348/502 353/501 354/503 347/493
f 369/504 374/505 375/506 368/507
f 368/507 375/506 376/508 367/509
f 374/505 386/510 387/511 373/512
f 373/512 387/511 388/513 378/514
f 378/515 380/516 381/517 377/518
f 377/518 381/517 382/519 376/520
f 380/521 394/522 395/523 379/524
f 379/524 395/523 396/525 384/526
f 386/510 397/527 398/528 385/529
f 385/529 398/528 399/530 390/531
f 390/532 392/533 393/534 389/535
f 389/535 393/534 394/536 388/537
f 392/538 400/539 401/540 391/541
f 391/541 401/540 402/542 396/525
f 404/543 472/544 473/545 403/546
f 403/547 473/548 474/549 409/550
f 406/478 432/477 433/551 405/552
f 405/552 433/551 427/553 404/543
f 408/554 414/555 415/556 407/557
f 407/558 415/559 416/479 406/478
f 413/560 475/561 476/562 412/563
f 412/564 476/565 477/566 411/567
f 411/567 420/568 421/569 417/570
f 417/570 421/569 422/480 416/479
f 420/568 478/571 479/572 419/573
f 419/574 479/575 480/576 425/577
f 424/578 430/579 431/580 423/581
f 423/582 431/583 432/477 422/480
f 429/584 469/585 470/586 428/587
f 428/588 470/589 471/590 427/553
f 436/591 484/592 485/593 435/594
f 435/594 485/593 486/595 441/596
f 438/597 460/598 461/599 437/600
f 437/600 461/599 455/601 436/602
f 440/603 444/485 445/604 439/605
f 439/605 445/604 446/606 438/607
f 448/608 450/609 451/610 447/611
f 447/611 451/610 452/612 446/613
f 454/494 458/614 459/615 453/616
f 453/616 459/615 460/617 452/618
f 457/619 481/620 482/621 456/622
f 456/622 482/621 483/623 455/624
f 340/487 343/625 352/626 349/488
f 343/625 534/627 533/628 352/626
f 355/629 361/630 364/631 358/632
f 503/633 367/634 370/635 504/636
f 367/634 376/520 382/519 370/635
f 378/515 388/537 394/536 380/516
f 390/532 399/637 400/638 392/533
f 448/608 338/492 351/491 450/609
f 347/493 354/503 458/614 454/494
f 525/639 513/640 425/577 457/619
f 360/641 366/642 430/579 424/578
f 506/643 372/644 402/542 429/584
f 372/644 384/526 396/525 402/542
f 444/485 440/603 345/645 342/486
f 408/554 363/646 357/647 414/555
f 397/527 386/510 374/505 369/504
f 399/637 465/648 466/649 400/638
f 402/542 468/650 469/585 429/584
f 474/549 463/651 397/527 409/550
f 480/576 481/620 457/619 425/577
f 486/595 475/561 413/560 441/596
f 474/549 544/652 537/653 463/651
f 471/590 542/654 543/655 472/544
f 468/650 540/656 541/657 469/585
f 465/648 538/658 539/659 466/649
f 486/595 552/660 545/661 475/561
f 483/662 550/663 551/664 484/665
f 480/576 548/666 549/667 481/620
f 477/566 546/668 547/669 478/571
f 409/550 397/527 369/504 501/670
f 442/671 536/672 345/645 440/603
f 471/590 472/544 404/543 427/553
f 477/566 478/571 420/568 411/567
f 483/662 484/665 436/602 455/601
f 446/613 452/612 460/598 438/597
f 342/486 345/645 344/673 341/674
f 341/674 344/673 343/675 340/676
f 352/500 533/677 532/678 353/501
f 353/501 532/678 531/679 354/503
f 345/645 536/672 535/680 344/673
f 344/673 535/680 534/681 343/675
f 358/682 364/683 365/684 359/685
f 359/685 365/684 366/642 360/641
f 357/647 363/646 362/686 356/687
f 356/687 362/686 361/688 355/689
f 504/690 370/691 371/692 505/693
f 505/693 371/692 372/644 506/643
f 501/670 369/504 368/507 502/694
f 502/694 368/507 367/509 503/695
f 370/691 382/696 383/697 371/692
f 371/692 383/697 384/526 372/644
f 397/527 463/651 464/698 398/528
f 398/528 464/698 465/699 399/530
f 400/539 466/700 467/701 401/540
f 401/540 467/701 468/650 402/542
f 463/651 537/653 553/702 464/698
f 464/698 553/702 538/703 465/699
f 466/700 539/704 554/705 467/701
f 467/701 554/705 540/656 468/650
f 469/585 541/657 555/706 470/586
f 470/589 555/707 542/654 471/590
f 472/544 543/655 556/708 473/545
f 473/548 556/709 544/652 474/549
f 475/561 545/661 557/710 476/562
f 476/565 557/711 546/668 477/566
f 478/571 547/669 558/712 479/572
f 479/575 558/713 548/666 480/576
f 481/620 549/667 559/714 482/621
f 482/621 559/714 550/715 483/623
f 484/592 551/716 560/717 485/593
f 485/593 560/717 552/660 486/595
f 341/674 487/718 337/484 342/486
f 337/484 487/718 339/719 338/481
f 339/719 487/718 341/674 340/676
f 350/720 488/721 346/496 351/498
f 346/496 488/721 348/502 347/493
f 348/502 488/721 350/720 349/499
f 377/722 489/723 373/512 378/514
f 373/512 489/723 375/506 374/505
f 375/506 489/723 377/722 376/508
f 383/697 490/724 379/524 384/526
f 379/524 490/724 381/725 380/521
f 381/725 490/724 383/697 382/696
f 389/726 491/727 385/529 390/531
f 385/529 491/727 387/511 386/510
f 387/511 491/727 389/726 388/513
f 395/523 492/728 391/541 396/525
f 391/541 492/728 393/729 392/538
f 393/729 492/728 395/523 394/522
f 410/730 493/731 403/547 409/550
f 403/546 493/732 405/552 404/543
f 405/552 493/732 407/558 406/478
f 407/557 493/731 410/730 408/554
f 417/570 494/733 412/564 411/567
f 412/563 494/734 418/735 413/560
f 418/735 494/734 415/556 414/555
f 415/559 494/733 417/570 416/479
f 426/736 495/737 419/574 425/577
f 419/573 495/738 421/569 420/568
f 421/569 495/738 423/582 422/480
f 423/581 495/737 426/736 424/578
f 433/551 496/739 428/588 427/553
f 428/587 496/740 434/741 429/584
f 434/741 496/740 431/580 430/579
f 431/583 496/739 433/551 432/477
f 442/671 497/742 435/594 441/596
f 435/594 497/742 437/743 436/591
f 437/743 497/742 439/605 438/607
f 439/605 497/742 442/671 440/603
f 447/744 498/745 443/483 448/482
f 443/483 498/745 445/604 444/485
f 445/604 498/745 447/744 446/606
f 453/616 499/746 449/495 454/494
f 449/495 499/746 451/747 450/497
f 451/747 499/746 453/616 452/618
f 461/748 500/749 456/622 455/624
f 456/622 500/749 462/750 457/619
f 462/750 500/749 459/615 458/614
f 459/615 500/749 461/748 460/617
f 409/550 501/670 512/751 410/730
f 363/646 512/751 511/752 362/686
f 362/686 511/752 510/753 361/688
f 361/630 510/754 509/755 364/631
f 364/683 509/756 508/757 365/684
f 365/684 508/757 507/758 366/642
f 366/642 507/758 434/741 430/579
f 508/757 505/693 506/643 507/758
f 509/756 504/690 505/693 508/757
f 510/754 503/633 504/636 509/755
f 511/752 502/694 503/695 510/753
f 512/751 501/670 502/694 511/752
f 512/751 363/646 408/554 410/730
f 507/758 506/643 429/584 434/741
f 513/640 524/759 426/736 425/577
f 523/760 359/685 360/641 524/759
f 522/761 358/682 359/685 523/760
f 521/762 355/629 358/632 522/763
f 520/764 356/687 355/689 521/765
f 519/766 357/647 356/687 520/764
f 418/735 414/555 357/647 519/766
f 518/767 519/766 520/764 517/768
f 517/768 520/764 521/765 516/769
f 516/770 521/762 522/763 515/771
f 515/772 522/761 523/760 514/773
f 514/773 523/760 524/759 513/640
f 413/560 418/735 519/766 518/767
f 524/759 360/641 424/578 426/736
f 526/774 514/773 513/640 525/639
f 527/775 515/772 514/773 526/774
f 528/776 516/770 515/771 527/777
f 529/778 517/768 516/769 528/779
f 530/780 518/767 517/768 529/778
f 531/679 525/639 457/619 462/750
f 532/678 526/774 525/639 531/679
f 533/677 527/775 526/774 532/678
f 534/627 528/776 527/777 533/628
f 535/680 529/778 528/779 534/681
f 536/672 530/780 529/778 535/680
f 354/503 531/679 462/750 458/614
f 441/596 413/560 518/767 530/780
f 442/671 441/596 530/780 536/672
f 608/781 598/782 592/783 582/784
f 562/425 561/785 574/786 573/426
f 561/785 566/787 575/788 574/786
f 566/789 565/790 569/791 568/792
f 565/790 564/793 570/794 569/791
f 568/795 567/796 577/797 576/798
f 567/796 572/799 578/800 577/797
f 580/801 579/802 649/803 648/804
f 579/805 585/433 650/806 649/807
f 582/784 581/808 609/809 608/781
f 581/808 580/801 603/810 609/809
f 584/423 583/811 591/812 590/424
f 583/813 582/784 592/783 591/814
f 589/475 588/815 652/816 651/817
f 588/818 587/819 653/820 652/821
f 587/819 593/822 597/823 596/824
f 593/825 592/783 598/782 597/826
f 596/824 595/827 655/828 654/829
f 595/830 601/831 656/832 655/833
f 600/834 599/835 607/836 606/837
f 599/838 598/782 608/781 607/839
f 605/840 604/841 646/842 645/843
f 604/844 603/810 647/845 646/846
f 612/847 611/848 661/849 660/850
f 611/848 617/476 662/851 661/849
f 614/852 613/853 637/854 636/855
f 613/853 612/856 631/857 637/854
f 616/421 615/858 621/859 620/422
f 615/858 614/860 622/861 621/859
f 624/419 623/862 627/863 626/420
f 623/862 622/864 628/865 627/863
f 630/866 629/867 635/868 634/869
f 629/867 628/870 636/871 635/868
f 633/872 632/873 658/874 657/875
f 632/873 631/876 659/877 658/874
f 566/789 568/792 576/878 575/879
f 575/879 576/878 642/880 641/881
f 578/800 605/840 645/843 644/882
f 650/806 585/433 573/426 639/883
f 656/832 601/831 633/872 657/875
f 662/851 617/476 589/475 651/817
f 650/806 639/883 537/653 544/652
f 647/845 648/804 543/655 542/654
f 644/882 645/843 541/657 540/656
f 641/881 642/880 539/659 538/658
f 662/851 651/817 545/661 552/660
f 659/884 660/885 551/664 550/663
f 656/832 657/875 549/667 548/666
f 653/820 654/829 547/669 546/668
f 647/845 603/810 580/801 648/804
f 653/820 587/819 596/824 654/829
f 659/884 631/857 612/856 660/885
f 622/864 614/852 636/855 628/865
f 573/426 574/786 640/886 639/883
f 574/786 575/788 641/887 640/886
f 576/798 577/797 643/888 642/889
f 577/797 578/800 644/882 643/888
f 639/883 640/886 553/702 537/653
f 640/886 641/887 538/703 553/702
f 642/889 643/888 554/705 539/704
f 643/888 644/882 540/656 554/705
f 645/843 646/842 555/706 541/657
f 646/846 647/845 542/654 555/707
f 648/804 649/803 556/708 543/655
f 649/807 650/806 544/652 556/709
f 651/817 652/816 557/710 545/661
f 652/821 653/820 546/668 557/711
f 654/829 655/828 558/712 547/669
f 655/833 656/832 548/666 558/713
f 657/875 658/874 559/714 549/667
f 658/874 659/877 550/715 559/714
f 660/850 661/849 560/717 551/716
f 661/849 662/851 552/660 560/717
f 565/890 566/787 561/785 663/891
f 561/785 562/425 563/892 663/891
f 563/892 564/893 565/890 663/891
f 571/894 572/799 567/796 664/895
f 567/796 568/795 569/896 664/895
f 569/896 570/897 571/894 664/895
f 586/473 585/433 579/805 665/898
f 579/802 580/801 581/808 665/899
f 581/808 582/784 583/813 665/899
f 583/811 584/423 586/473 665/898
f 593/822 587/819 588/818 666/900
f 588/815 589/475 594/474 666/901
f 594/474 590/424 591/812 666/901
f 591/814 592/783 593/825 666/902
f 602/903 601/831 595/830 667/904
f 595/827 596/824 597/823 667/905
f 597/826 598/782 599/838 667/906
f 599/835 600/834 602/903 667/904
f 609/809 603/810 604/844 668/907
f 604/841 605/840 610/908 668/909
f 610/908 606/837 607/836 668/909
f 607/839 608/781 609/809 668/907
f 618/435 617/476 611/848 669/910
f 611/848 612/847 613/911 669/910
f 613/911 614/860 615/858 669/910
f 615/858 616/421 618/435 669/910
f 623/912 624/913 619/914 670/915
f 619/914 620/422 621/859 670/915
f 621/859 622/861 623/912 670/915
f 629/867 630/866 625/916 671/917
f 625/916 626/918 627/919 671/917
f 627/919 628/870 629/867 671/917
f 637/920 631/876 632/873 672/921
f 632/873 633/872 638/922 672/921
f 638/922 634/869 635/868 672/921
f 635/868 636/871 637/920 672/921
f 283/464 619/914 624/913 288/465
f 284/394 620/422 619/914 283/464
f 289/467 625/916 630/866 294/405
f 290/469 626/918 625/916 289/467
f 227/442 563/892 562/425 226/315
f 228/443 564/893 563/892 227/442
f 235/444 571/894 570/897 234/447
f 236/332 572/799 571/894 235/444
f 234/325 570/794 564/793 228/326
f 294/405 630/866 634/869 298/406
f 297/411 633/872 601/831 265/367
f 264/368 600/834 606/837 270/369
f 269/374 605/840 578/800 242/331
f 242/331 578/800 572/799 236/332
f 270/369 606/837 610/908 274/459
f 250/448 586/473 584/423 248/344
f 274/459 610/908 605/840 269/374
f 265/367 601/831 602/903 266/454
f 266/454 602/903 600/834 264/368
f 302/472 638/922 633/872 297/411
f 298/406 634/869 638/922 302/472
