# author: headus 3D tools
#  using: ply2obj v1.12
#   from: uvlayout v2023.01
# 674 vertices
v 7.8789411 -0.9486710 0.4154440
v 8.5423966 -0.7260911 0.1193341
v 9.2929564 -0.7310081 -0.3674749
v 10.1074499 -1.3898560 -0.1183410
v 9.8988869 -0.9946400 -0.2055800
v 8.3293018 -1.1585020 -1.6118212
v 8.8165322 -0.8538151 -1.1146590
v 8.4145470 -1.4250480 0.1632771
v 9.1076346 -1.7441640 -0.3037790
v 9.7710381 -1.6935969 -0.1616369
v 8.6886816 -1.5527721 -1.0707160
v 9.6720411 -0.8246580 -0.2735670
v 8.9747840 -0.6866200 -0.1065570
v 9.1156933 -0.7522711 -0.7408480
v 8.0385962 -1.1707140 0.3396761
v 9.1951542 -1.5569240 0.2800831
v 9.9887411 -1.5567900 -0.1274338
v 9.4398415 -1.6709270 -0.8213590
v 8.4327010 -1.3543349 -1.4343640
v 8.2290602 -1.4312249 -0.5313450
v 8.8001185 -1.6415270 -0.0465230
v 9.4973746 -1.7795650 -0.2135330
v 8.9410268 -1.7071789 -0.6808142
v 9.1566164 -1.1719130 0.5818740
v 10.0550637 -1.1942030 -0.1502289
v 9.3217460 -0.8648391 0.2365721
v 8.1049175 -0.8081271 0.3168800
v 9.5480834 -1.3543039 -1.1802861
v 8.4990235 -0.9917479 -1.4571590
v 9.5664331 -0.9788429 -0.8648702
v 7.6109949 -0.9708120 -0.7163051
v 8.3556519 -0.7391410 -0.5748570
v 9.2231923 -1.0038240 0.4644180
v 9.5665217 -1.1637879 -1.0810620
v 7.8676253 -0.8274521 -0.6741320
v 9.3815938 -0.7727671 0.0292340
v 9.5378018 -0.8455471 -0.6739240
v 8.7648421 -0.6925210 -0.4887810
v 9.1570190 -1.3655920 0.4871620
v 9.5003493 -1.5255560 -1.0583180
v 7.8014522 -1.1892199 -0.6513879
v 9.2140771 -1.6885910 0.0868120
v 9.3702852 -1.7613710 -0.6163469
v 8.5973244 -1.6083450 -0.4312040
v 8.5901870 -0.7066880 -0.5261129
v 8.9007978 -0.7115350 -0.6285381
v 8.8287392 -0.6779610 -0.3041639
v 7.9162688 -1.0515549 0.3968631
v 8.5439243 -1.2509670 0.5299999
v 9.1493607 -1.2669529 0.5576650
v 8.2149963 -1.2979449 0.2573320
v 8.7702246 -1.4794461 0.3044881
v 9.1741105 -1.4636450 0.3885681
v 9.5692681 -1.6376350 0.1130961
v 9.8857775 -1.6287150 -0.1428619
v 9.6984835 -1.4795390 0.2534541
v 10.0669575 -1.4773328 -0.1182820
v 9.8885013 -1.5680719 -0.6018972
v 9.5272333 -1.4430110 -1.1433033
v 9.7056305 -1.7011690 -0.5007310
v 9.4702731 -1.6016320 -0.9445848
v 9.0680666 -1.6182160 -1.0362260
v 8.5526447 -1.4552610 -1.2625712
v 8.9672663 -1.4482100 -1.3756510
v 8.3509026 -1.2540580 -1.5596092
v 8.0270061 -1.2620640 -1.1504342
v 7.6574131 -1.0728370 -0.6954333
v 8.3933058 -1.4846309 -0.8746040
v 8.0047798 -1.3115040 -0.5935620
v 8.2318267 -1.4093950 -0.1477170
v 7.7936804 -1.1533530 -0.1001350
v 8.6103974 -1.5433670 0.0669250
v 9.0225191 -1.6696909 0.0629800
v 9.2131159 -1.6389720 0.1770981
v 9.2886172 -1.7703270 -0.2608650
v 9.3790905 -1.7402820 -0.0224290
v 8.9799872 -1.7092260 -0.1869410
v 9.6514237 -1.7494620 -0.1824270
v 9.4719058 -1.7835260 -0.4402280
v 9.4094068 -1.7304270 -0.7064930
v 9.0423597 -1.7382860 -0.4676989
v 9.1873942 -1.7465090 -0.6791930
v 8.8207789 -1.6413880 -0.8800910
v 8.7281179 -1.6555840 -0.5691859
v 8.4381037 -1.5381350 -0.4738400
v 8.6560583 -1.6220100 -0.2448120
v 8.4557791 -1.0405919 0.6316260
v 9.1828060 -1.0841029 0.5461690
v 8.6101704 -0.8887891 0.5072289
v 7.9497299 -0.8686231 0.3853621
v 9.7757427 -1.3019089 0.3154621
v 10.1004183 -1.2944010 -0.1297819
v 9.7647315 -1.1173609 0.2306841
v 9.9837619 -1.0930279 -0.1765400
v 9.6964895 -0.9421141 0.0693690
v 9.2715712 -0.9308211 0.3550701
v 8.8974457 -0.7839250 0.2607601
v 8.3129807 -0.7622580 0.2236541
v 9.9922619 -1.4027890 -0.6591861
v 9.5606795 -1.2601610 -1.1547990
v 9.9547493 -1.2058940 -0.6246671
v 8.9390508 -1.2657560 -1.5437852
v 8.3843642 -1.0711260 -1.5711100
v 9.0335141 -1.0860319 -1.3984212
v 8.6506300 -0.9195741 -1.2962492
v 9.1952877 -0.9226950 -1.0799531
v 9.5677339 -1.0688079 -0.9780831
v 9.8328513 -1.0056480 -0.5444590
v 7.8676520 -1.0536480 -1.2871590
v 7.6908589 -0.8899860 -0.7069290
v 8.0932531 -0.8998861 -1.1732041
v 7.6009002 -0.9293641 -0.0863930
v 7.8599282 -0.7911761 -0.1229049
v 8.3590479 -0.7138751 -0.1914440
v 8.1022406 -0.7786801 -0.6270610
v 8.5205260 -0.7891101 -0.9183320
v 9.3651992 -0.8075250 0.1248250
v 9.1951989 -0.7256411 0.0036280
v 8.7652007 -0.6970470 0.0137170
v 9.8062269 -0.9031420 -0.2356350
v 9.5517703 -0.7962320 -0.0817810
v 9.1638118 -0.7042511 -0.2501230
v 9.4724418 -0.7653511 -0.3240470
v 9.5614901 -0.8989801 -0.7587652
v 9.6445857 -0.8394771 -0.4995800
v 8.9755832 -0.7950681 -0.9332989
v 9.3600743 -0.8024591 -0.7385449
v 9.2261830 -0.7333111 -0.5308820
v 8.5064707 -0.9573559 0.5941110
v 9.7802869 -1.2095380 0.2890001
v 9.7348673 -1.0275109 0.1532322
v 8.7470913 -0.8319581 0.3898311
v 9.9893007 -1.3069200 -0.6518552
v 8.9729100 -1.1746779 -1.5055302
v 9.1109448 -1.0014840 -1.2480350
v 9.8991023 -1.1040309 -0.5860561
v 7.9386568 -0.9699238 -1.2577993
v 7.6812302 -0.8499851 -0.0990140
v 8.0986481 -0.7475890 -0.1548030
v 8.2982683 -0.8405961 -1.0533781
v 9.0446768 -0.7440431 0.1349520
v 9.6490595 -0.8636941 -0.0098120
v 9.3640042 -0.7402391 -0.1464269
v 9.7600531 -0.9154082 -0.5094420
v 9.2778111 -0.8526641 -0.9144820
v 9.4496365 -0.7801361 -0.5318930
v 8.7285834 -0.7439322 -0.7829281
v 8.6064434 -0.6870251 -0.2331239
v 9.0259068 -0.6962491 -0.4303970
v 8.4730168 -1.1402478 0.6056089
v 8.6493683 -1.3662130 0.4234190
v 9.6371443 -1.5617660 0.1868210
v 9.7468339 -1.3924290 0.3004991
v 9.9558471 -1.4898120 -0.6403570
v 9.8013793 -1.6382860 -0.5524680
v 9.0132217 -1.5357389 -1.2144460
v 8.9394568 -1.3575700 -1.4940320
v 7.9052029 -1.1528150 -1.2463011
v 8.2005452 -1.3748510 -1.0197900
v 8.0009251 -1.2818450 -0.1212150
v 7.6477772 -1.0328760 -0.0875158
v 8.8911067 -1.5836200 0.1877361
v 9.1822570 -1.7338599 -0.0839590
v 9.4954893 -1.7032710 0.0429720
v 9.6064817 -1.7549850 -0.4566580
v 9.2678892 -1.7737570 -0.4694250
v 9.1242409 -1.6922409 -0.8616980
v 8.5750132 -1.5835090 -0.7301441
v 8.8441592 -1.6898700 -0.3679290
v 8.4528723 -1.5266020 -0.1803400
v 8.7868939 -0.6839201 -0.4089399
v 8.5792198 -0.6939800 -0.3792069
v 9.1236496 -0.7131240 -0.4899410
v 9.0888625 -0.6969150 -0.3333410
v 8.9662276 -0.7013950 -0.5319970
v 8.9289792 -0.6840401 -0.3643210
v 7.8850468 -0.9975660 0.4118191
v 8.1672897 -1.0886979 0.5362880
v 8.4564953 -1.0886280 0.6259809
v 7.9687400 -1.1096120 0.3722531
v 8.2665767 -1.2043629 0.4666110
v 8.5029583 -1.1946330 0.5728390
v 8.8482114 -1.3061640 0.5350980
v 9.1516677 -1.3160850 0.5270630
v 8.8086443 -1.2013010 0.6107590
v 9.1507819 -1.2187210 0.5766949
v 8.1219692 -1.2338319 0.3008071
v 8.4113875 -1.3266900 0.3675692
v 8.5935240 -1.3084340 0.4794170
v 8.3138113 -1.3620250 0.2109280
v 8.5762405 -1.4482070 0.2559001
v 8.7090655 -1.4234910 0.3643321
v 8.9815217 -1.5164551 0.3116710
v 9.1844809 -1.5111420 0.3344251
v 8.9099410 -1.4130280 0.4290340
v 9.1647283 -1.4149530 0.4402400
v 9.4228785 -1.5145760 0.3061731
v 9.6690341 -1.5213560 0.2218040
v 9.4479256 -1.4248910 0.3914512
v 9.3961431 -1.5985390 0.2123580
v 9.6036199 -1.6005880 0.1500641
v 9.6993075 -1.6705440 -0.0131020
v 9.8290693 -1.6620050 -0.1520139
v 9.7978097 -1.6011640 0.0354850
v 9.9395419 -1.5936630 -0.1345470
v 9.8862393 -1.5250129 0.0786621
v 9.4703599 -1.3323030 0.4522610
v 9.7641221 -1.3475029 0.3127721
v 9.7246857 -1.4365020 0.2802051
v 10.0317541 -1.5180330 -0.1218890
v 9.9539691 -1.4424130 0.1083330
v 10.0927289 -1.4346280 -0.1169760
v 10.0609851 -1.4922730 -0.3733920
v 9.9786179 -1.4474400 -0.6527661
v 9.9835427 -1.5703480 -0.3593400
v 9.9253427 -1.5299920 -0.6230400
v 9.7214843 -1.5523460 -0.8399443
v 9.5143682 -1.4850729 -1.1056080
v 9.7713319 -1.4725309 -0.9025410
v 9.5385916 -1.3994080 -1.1689980
v 9.8819457 -1.6403650 -0.3432490
v 9.8467151 -1.6041400 -0.5780121
v 9.7692405 -1.7031270 -0.3279049
v 9.7538855 -1.6706001 -0.5263470
v 9.5919257 -1.6897570 -0.6689410
v 9.4549238 -1.6371470 -0.8829550
v 9.6591331 -1.6246510 -0.7573170
v 9.4855338 -1.5644220 -1.0038409
v 9.2498570 -1.5714000 -1.1010703
v 8.9885540 -1.4924850 -1.2987890
v 9.2429639 -1.4900860 -1.2418560
v 9.2610952 -1.6467130 -0.9468082
v 9.0401116 -1.5777310 -1.1258509
v 8.8731356 -1.5865349 -1.0805493
v 8.6200305 -1.5046981 -1.1674961
v 8.7757063 -1.4964319 -1.2723880
v 8.4892835 -1.4049700 -1.3526300
v 8.6911983 -1.4022020 -1.4447902
v 9.2433425 -1.4038340 -1.3460042
v 8.9352492 -1.3116879 -1.5291000
v 8.9505151 -1.4031570 -1.4418062
v 8.3856554 -1.3038599 -1.5044610
v 8.6353770 -1.3067879 -1.5707710
v 8.3311987 -1.2054359 -1.5965000
v 8.1058321 -1.2019520 -1.4439310
v 7.8738652 -1.1015620 -1.2748710
v 8.2097159 -1.3068809 -1.3294632
v 7.9576048 -1.2065880 -1.2039792
v 7.8893309 -1.2221030 -0.9176270
v 7.7196251 -1.1297620 -0.6757210
v 7.7540513 -1.1089940 -0.9892810
v 7.6196052 -1.0195008 -0.7093530
v 8.3593760 -1.4140100 -1.1726673
v 8.1093397 -1.3184250 -1.0881950
v 8.5270843 -1.5180269 -0.9976612
v 8.2965546 -1.4305260 -0.9477491
v 8.2923107 -1.4549200 -0.7147601
v 8.1166973 -1.3722140 -0.5624160
v 8.0807972 -1.3399579 -0.8210520
v 7.8981008 -1.2501529 -0.6236101
v 7.9771380 -1.2916610 -0.3544350
v 7.8919902 -1.2171570 -0.1098069
v 7.7681342 -1.1656350 -0.3720679
v 8.2085200 -1.4158799 -0.3375810
v 8.1157742 -1.3462980 -0.1339770
v 8.3001232 -1.4122820 0.0239871
v 8.0791941 -1.2834680 0.0885570
v 7.8823981 -1.1543780 0.1439360
v 7.6203242 -1.0466890 -0.3873200
v 7.6096050 -0.9784389 -0.0853280
v 7.7107049 -1.0915529 -0.0925780
v 7.7447620 -1.0337230 0.1814031
v 8.5133410 -1.4859880 0.1160610
v 8.7399207 -1.5610941 0.1442110
v 8.8304568 -1.5332641 0.2462101
v 8.7059212 -1.5957060 0.0135151
v 8.9067507 -1.6554210 0.0202800
v 8.9535236 -1.6291900 0.1273031
v 9.1331613 -1.6816230 0.0833490
v 9.2159300 -1.6696490 0.1273791
v 9.0520716 -1.6096309 0.1985670
v 9.2054444 -1.6004650 0.2278201
v 9.1852143 -1.7569200 -0.2852250
v 9.2481976 -1.7559680 -0.1682300
v 9.0760527 -1.7218880 -0.1269970
v 9.0553370 -1.7312070 -0.2541159
v 9.3963051 -1.7789520 -0.2360489
v 9.4524775 -1.7634600 -0.1104349
v 9.2872172 -1.7413320 -0.0513140
v 9.2904340 -1.7127590 0.0456780
v 9.1028969 -1.7048410 -0.0071640
v 8.8931943 -1.6793500 -0.1155420
v 9.5348959 -1.6727240 0.0774790
v 9.5951443 -1.7304050 -0.0606360
v 9.7133093 -1.7235490 -0.1713600
v 9.3645335 -1.6714900 0.1237250
v 9.4460345 -1.7266931 0.0093340
v 9.5809299 -1.7689340 -0.1960710
v 9.6522561 -1.7570141 -0.3177239
v 9.6580077 -1.7300850 -0.4767040
v 9.5005677 -1.7858660 -0.3269100
v 9.5465184 -1.7735109 -0.4429880
v 9.4212430 -1.7737050 -0.5431501
v 9.3897879 -1.7506530 -0.6552380
v 9.5229455 -1.7452960 -0.5893539
v 9.4253798 -1.7029370 -0.7622021
v 9.0815840 -1.7434360 -0.3722640
v 9.1540539 -1.7582300 -0.4781129
v 9.2914114 -1.7761010 -0.3627460
v 8.9948683 -1.7267211 -0.5732201
v 9.0651274 -1.7292121 -0.6926390
v 9.2293633 -1.7637640 -0.5764450
v 9.2957546 -1.7573780 -0.6485489
v 9.3764346 -1.7829000 -0.4529190
v 9.0959290 -1.6569530 -0.9487982
v 8.9698648 -1.6682290 -0.8908700
v 8.7558433 -1.5989740 -0.9755440
v 9.2736292 -1.7128580 -0.7987562
v 9.1535406 -1.7223810 -0.7730531
v 8.8827535 -1.6780940 -0.7824760
v 8.6872559 -1.6122800 -0.8231790
v 8.4867335 -1.5363480 -0.8028811
v 8.8271638 -1.6821010 -0.6356411
v 8.6563168 -1.6239430 -0.6539550
v 8.6484737 -1.6292339 -0.4935090
v 8.5294828 -1.5803358 -0.4491730
v 8.4897652 -1.5576741 -0.6110011
v 8.3370791 -1.4874819 -0.5015270
v 8.9054404 -1.6996900 -0.2702969
v 8.9402304 -1.7158980 -0.4268960
v 8.7168770 -1.6307171 -0.1391970
v 8.7506428 -1.6590101 -0.3030250
v 8.6166907 -1.6144249 -0.3504400
v 8.7878925 -1.6763650 -0.4707010
v 8.3443728 -1.4700200 -0.1620549
v 8.5144234 -1.5317540 -0.0451860
v 8.4266196 -1.5282530 -0.3267560
v 8.5567837 -1.5775700 -0.2059219
v 8.1390037 -0.9871609 0.5598560
v 8.4732628 -0.9969580 0.6202179
v 8.2007494 -0.9057791 0.5247880
v 7.9018149 -0.9058961 0.4060562
v 8.8035536 -1.1038730 0.6369109
v 9.1675502 -1.1270509 0.5709310
v 8.8420916 -1.0184370 0.5992620
v 9.2016125 -1.0430380 0.5098970
v 8.9144090 -0.9442591 0.5123460
v 8.5529318 -0.9214231 0.5556630
v 8.3328743 -0.8419141 0.4438240
v 8.0187445 -0.8362390 0.3550671
v 9.4892503 -1.2396220 0.4726710
v 9.7808905 -1.2558329 0.3070081
v 9.5038091 -1.1494390 0.4407640
v 9.9903813 -1.3536838 0.1164051
v 10.1094973 -1.3429579 -0.1227400
v 9.9874279 -1.2594939 0.0968330
v 10.0817577 -1.2446600 -0.1390750
v 9.9525355 -1.1625629 0.0558740
v 9.7746601 -1.1632930 0.2630291
v 9.5141238 -1.0629860 0.3686981
v 9.7512255 -1.0720130 0.1935540
v 9.5204257 -0.9812740 0.2726451
v 9.2467702 -0.9664290 0.4120411
v 10.0218835 -1.1435020 -0.1628480
v 9.8957083 -1.0659539 0.0018360
v 9.9422495 -1.0432499 -0.1909150
v 9.8269473 -0.9727320 -0.0569730
v 9.7163801 -0.9841219 0.1113070
v 9.5229455 -0.9053091 0.1687751
v 9.2968217 -0.8969681 0.2958121
v 8.6757155 -0.8590900 0.4511670
v 8.5092840 -0.7914801 0.3339201
v 8.2043095 -0.7836711 0.2725061
v 9.0074902 -0.8797271 0.3955061
v 9.1083243 -0.8232251 0.2680870
v 8.8218260 -0.8070251 0.3255761
v 8.7038813 -0.7503951 0.2120291
v 8.4269896 -0.7432691 0.1720281
v 10.1012385 -1.4053349 -0.3826139
v 9.9953857 -1.3557700 -0.6585301
v 10.0944433 -1.3093539 -0.3848920
v 9.8010369 -1.3848890 -0.9308210
v 9.5553582 -1.3077379 -1.1747611
v 9.8047811 -1.2896670 -0.9140381
v 9.5643121 -1.2120269 -1.1227741
v 9.7876807 -1.1904410 -0.8626970
v 9.9753173 -1.2567820 -0.6402170
v 10.0498391 -1.2078980 -0.3821269
v 9.2539161 -1.3137029 -1.3903520
v 8.9520169 -1.2200180 -1.5348630
v 9.2767900 -1.2209700 -1.3575014
v 8.6240073 -1.2131329 -1.6233520
v 8.3479671 -1.1137659 -1.6022632
v 8.6688347 -1.1238689 -1.5822710
v 8.4356594 -1.0304869 -1.5216470
v 8.7574949 -1.0397520 -1.4675770
v 9.0004893 -1.1299480 -1.4589832
v 9.3091623 -1.1281810 -1.2646092
v 9.0707455 -1.0431419 -1.3270392
v 9.3474055 -1.0380990 -1.1345991
v 9.5675737 -1.1158980 -1.0320389
v 8.5716248 -0.9548090 -1.3809312
v 8.8736039 -0.9612220 -1.3060370
v 8.7332087 -0.8859420 -1.2063971
v 9.0007764 -0.8887231 -1.1244201
v 9.1528724 -0.9612650 -1.1646081
v 9.3878957 -0.9534830 -0.9903913
v 9.5672647 -1.0229720 -0.9215682
v 9.9289067 -1.1547969 -0.6062622
v 9.9798431 -1.1051550 -0.3768980
v 9.7566825 -1.0913499 -0.7908431
v 9.7187271 -0.9965270 -0.7125251
v 9.8666449 -1.0541340 -0.5651040
v 9.8968803 -1.0053149 -0.3717760
v 8.0754509 -1.1045328 -1.4919602
v 7.8906321 -1.0098919 -1.2806342
v 8.1392908 -1.0190329 -1.4554312
v 7.7111022 -1.0082680 -1.0208103
v 7.6363722 -0.9278300 -0.7151161
v 7.7874990 -0.9261301 -1.0007780
v 7.7695690 -0.8567160 -0.6928872
v 7.9555278 -0.8601981 -0.9403801
v 8.0075788 -0.9333780 -1.2211561
v 8.2760134 -0.9444321 -1.3522500
v 7.5725280 -0.9437041 -0.3970359
v 7.6263729 -0.8867691 -0.0910909
v 7.6537720 -0.8638251 -0.3988169
v 7.7013060 -0.9302121 0.1922301
v 7.7782203 -0.8508041 0.1699030
v 7.9486952 -0.7919280 0.1211491
v 7.7606789 -0.8183442 -0.1097549
v 7.8343311 -0.8037301 -0.3948200
v 7.9741812 -0.7678140 -0.1380570
v 8.0746861 -0.7583601 -0.3879629
v 7.9801431 -0.8016291 -0.6518091
v 8.1770906 -0.7482581 0.0549090
v 8.4277630 -0.7144691 -0.0198839
v 8.2285338 -0.7298320 -0.1727339
v 8.3353214 -0.7226500 -0.3811639
v 8.2290382 -0.7580391 -0.6010290
v 8.1915312 -0.8690820 -1.1164449
v 8.4572725 -0.8788000 -1.2063161
v 8.1783457 -0.8066571 -0.8545799
v 8.4191131 -0.7616901 -0.7583431
v 8.4093151 -0.8140610 -0.9865062
v 8.6547241 -0.8202140 -1.0415331
v 8.9714787 -0.7622921 0.1977391
v 8.8943348 -0.7169051 0.0911381
v 8.6552610 -0.7101071 0.0672811
v 9.3455678 -0.8344011 0.1796580
v 9.2046729 -0.7753581 0.1461160
v 9.3775473 -0.7860780 0.0718290
v 9.3033649 -0.7511181 0.0248481
v 9.1177990 -0.7310951 0.0708401
v 9.0809203 -0.7032331 -0.0395830
v 8.8718360 -0.6886421 -0.0435110
v 9.8552275 -0.9476681 -0.2201409
v 9.7495587 -0.8862160 -0.1137100
v 9.6759177 -0.9017521 0.0290080
v 9.7468453 -0.8618701 -0.2530980
v 9.6266453 -0.8112721 -0.1702989
v 9.6103087 -0.8285990 -0.0471290
v 9.4606370 -0.7822532 -0.0128220
v 9.5171337 -0.8372170 0.0712741
v 9.2405634 -0.7185681 -0.3177800
v 9.2594748 -0.7191130 -0.1900409
v 9.4316188 -0.7531931 -0.2312740
v 9.3704396 -0.7442800 -0.3488890
v 9.0736639 -0.6927121 -0.1775719
v 9.2812319 -0.7298720 -0.0684590
v 9.4655534 -0.7663621 -0.1126100
v 9.5767747 -0.7923151 -0.2980790
v 9.7990305 -0.9591120 -0.5251741
v 9.8066703 -0.9128262 -0.3707980
v 9.5655043 -0.9368731 -0.8103642
v 9.6755459 -0.9110231 -0.6418039
v 9.5514058 -0.8670821 -0.7107878
v 9.5914459 -0.8431991 -0.6016510
v 9.7107917 -0.8754160 -0.4994510
v 9.6747361 -0.8336781 -0.3867739
v 8.8977632 -0.8230931 -1.0243231
v 9.1242791 -0.8240401 -0.9439441
v 9.2369510 -0.8859801 -0.9972690
v 9.0486680 -0.7710311 -0.8395030
v 9.2392962 -0.7770240 -0.7525030
v 9.3178149 -0.8242861 -0.8295160
v 9.4659567 -0.8268721 -0.7070499
v 9.4262305 -0.8785850 -0.8512060
v 9.4748328 -0.7733270 -0.4257899
v 9.3374760 -0.7554560 -0.5411570
v 9.2668106 -0.7307971 -0.4359280
v 9.5547706 -0.8079300 -0.5142139
v 9.4076987 -0.7887951 -0.6377409
v 9.1753381 -0.7400840 -0.6352490
v 8.6277552 -0.7653760 -0.8513520
v 8.8416702 -0.7680920 -0.8762519
v 8.4772033 -0.7214190 -0.5496890
v 8.6423655 -0.7234011 -0.6634510
v 8.6911011 -0.6967651 -0.5047230
v 8.8186770 -0.6987281 -0.5520090
v 8.8205910 -0.7258490 -0.7104182
v 9.0013326 -0.7299131 -0.6955050
v 8.6688366 -0.6875660 -0.0982600
v 8.4853954 -0.6990480 -0.2105260
v 8.8910457 -0.6785291 -0.1990610
v 8.7210579 -0.6794762 -0.2623850
v 8.1594477 -0.9440271 0.5491190
v 8.8177872 -1.0596469 0.6254540
v 8.8748408 -0.9800410 0.5607530
v 8.2596464 -0.8719121 0.4889840
v 9.4970744 -1.1941279 0.4627480
v 9.9935209 -1.3071240 0.1098120
v 9.9733483 -1.2111800 0.0785080
v 9.5094836 -1.1056829 0.4087411
v 9.5177623 -1.0214749 0.3226582
v 9.9262385 -1.1140259 0.0299711
v 9.8621941 -1.0187280 -0.0274910
v 9.5221446 -0.9425101 0.2206771
v 8.4171762 -0.8152720 0.3914311
v 8.9591656 -0.9108881 0.4564560
v 9.0577507 -0.8505731 0.3319101
v 8.6059399 -0.7700231 0.2734131
v 10.1033431 -1.3582920 -0.3845429
v 9.8059485 -1.3380370 -0.9276269
v 9.7984019 -1.2402960 -0.8918092
v 10.0760913 -1.2590490 -0.3839790
v 9.2639389 -1.2675169 -1.3828642
v 8.6399184 -1.1678860 -1.6136860
v 8.7087098 -1.0811400 -1.5324530
v 9.2920163 -1.1744100 -1.3171260
v 9.3277751 -1.0826300 -1.2028120
v 8.8131428 -0.9997599 -1.3909892
v 8.9368298 -0.9241911 -1.2160660
v 9.3675966 -0.9949349 -1.0628362
v 10.0172389 -1.1564250 -0.3796600
v 9.7734853 -1.1406209 -0.8284570
v 9.7381401 -1.0431460 -0.7516140
v 9.9392073 -1.0546089 -0.3741620
v 8.0964890 -1.0603020 -1.4835224
v 7.7355443 -0.9649360 -1.0167750
v 7.8623620 -0.8913770 -0.9746903
v 8.2003136 -0.9804910 -1.4106790
v 7.5982662 -0.9009761 -0.3988310
v 7.7258402 -0.8876101 0.1849280
v 7.8539902 -0.8191330 0.1482710
v 7.7341071 -0.8316211 -0.3973579
v 7.9495039 -0.7795221 -0.3915680
v 8.0578814 -0.7685251 0.0896560
v 8.3018703 -0.7304611 0.0180230
v 8.2049379 -0.7396141 -0.3843740
v 8.3628492 -0.9106141 -1.2831320
v 8.0623913 -0.8321180 -0.8997202
v 8.2987881 -0.7833400 -0.8068300
v 8.5557471 -0.8487461 -1.1247861
v 8.7998430 -0.7320821 0.1518861
v 9.1575816 -0.7974831 0.2064561
v 9.2487488 -0.7588661 0.0861672
v 8.9878569 -0.7066830 0.0279300
v 9.7912169 -0.9283481 -0.0855729
v 9.6965161 -0.8469792 -0.1418119
v 9.5010263 -0.8088101 0.0257411
v 9.5228578 -0.8697981 0.1189641
v 9.3295651 -0.7324541 -0.2669079
v 9.1740275 -0.7083750 -0.1132529
v 9.3820707 -0.7552190 -0.0396030
v 9.5344975 -0.7797391 -0.1995960
v 9.8544177 -0.9577940 -0.3700600
v 9.6993103 -0.9520099 -0.6753292
v 9.6430845 -0.8749981 -0.6137300
v 9.7484923 -0.8711951 -0.3757750
v 9.0633908 -0.8548731 -1.0344491
v 9.1830474 -0.7976251 -0.8506971
v 9.4417935 -0.8488081 -0.7827970
v 9.4078532 -0.9140892 -0.9201259
v 9.3682442 -0.7504750 -0.4410201
v 9.5802567 -0.8010581 -0.4055769
v 9.5101443 -0.8148901 -0.6161129
v 9.2926331 -0.7636361 -0.6471540
v 8.7506619 -0.7929622 -0.9595431
v 8.5347128 -0.7412311 -0.7109870
v 8.7388421 -0.7096431 -0.6144228
v 8.9258566 -0.7467080 -0.7890942
v 8.5503140 -0.6996161 -0.0576940
v 8.7826443 -0.6799831 -0.1444310
v 8.6878586 -0.6858891 -0.3849289
v 8.4608937 -0.7068370 -0.3786959
v 9.1768487 -0.7125841 -0.3951759
v 9.0662043 -0.7188091 -0.5929179
v 8.8764031 -0.6894271 -0.4643180
v 8.9933559 -0.6848680 -0.2650000
v 8.1426802 -1.0356970 0.5548820
v 8.2096520 -1.1452319 0.5061680
v 8.8248873 -1.2531429 0.5779230
v 8.8010187 -1.1513170 0.6312180
v 8.3348847 -1.2651610 0.4197150
v 8.4928999 -1.3880160 0.3122661
v 8.9452697 -1.4655110 0.3705711
v 8.8770754 -1.3596860 0.4846720
v 9.4356707 -1.4702730 0.3508741
v 9.4096635 -1.5574481 0.2593380
v 9.7491543 -1.6367200 0.0113620
v 9.8439475 -1.5639150 0.0582550
v 9.4803057 -1.2857979 0.4685110
v 9.4595290 -1.3787850 0.4259110
v 9.9233553 -1.4844990 0.0956910
v 9.9767543 -1.3987941 0.1155750
v 10.0865747 -1.4499620 -0.3787800
v 10.0260973 -1.5323679 -0.3667950
v 9.7484485 -1.5133970 -0.8746390
v 9.7891809 -1.4297070 -0.9218630
v 9.9349481 -1.6063140 -0.3513749
v 9.8261671 -1.6726021 -0.3353090
v 9.6256591 -1.6580850 -0.7129537
v 9.6913931 -1.5894180 -0.8002412
v 9.2456839 -1.5314270 -1.1745960
v 9.2551165 -1.6098731 -1.0241751
v 8.8237906 -1.5421830 -1.1772131
v 8.7308512 -1.4496490 -1.3627050
v 9.2471724 -1.3591870 -1.3771010
v 9.2420617 -1.4475110 -1.2999572
v 8.6587163 -1.3544590 -1.5152690
v 8.6231499 -1.2595559 -1.6079230
v 8.0797214 -1.1519720 -1.4777592
v 8.1503201 -1.2538100 -1.3934950
v 7.8124081 -1.1644790 -0.9575201
v 7.7187763 -1.0566060 -1.0110122
v 8.2805567 -1.3605030 -1.2548481
v 8.4427071 -1.4667390 -1.0859330
v 8.1863070 -1.3982780 -0.7681689
v 7.9802990 -1.2809150 -0.8715051
v 7.8674122 -1.2283190 -0.3633519
v 8.0924568 -1.3545520 -0.3457130
v 8.1888303 -1.3484530 0.0568760
v 7.9755902 -1.2184139 0.1179410
v 7.5814992 -0.9926459 -0.3930680
v 7.6841532 -1.1047220 -0.3801890
v 7.8039962 -1.0924520 0.1654540
v 7.7090722 -0.9792800 0.1906920
v 8.6582222 -1.5063280 0.2005630
v 8.8224049 -1.6112200 0.0847970
v 9.0861608 -1.6477420 0.1420501
v 9.0171575 -1.5651820 0.2547210
v 9.1446229 -1.7435420 -0.2033409
v 9.3545027 -1.7637759 -0.1377300
v 9.2068090 -1.7133840 0.0206371
v 8.9940320 -1.6924119 -0.0513870
v 9.6495963 -1.7025930 -0.0368959
v 9.3824350 -1.6374970 0.1672280
v 9.3384383 -1.6976860 0.0816240
v 9.5310641 -1.7515159 -0.0849439
v 9.7127973 -1.7320390 -0.3213830
v 9.5830393 -1.7757320 -0.3189080
v 9.4804975 -1.7638741 -0.5578471
v 9.5588867 -1.7197091 -0.6270642
v 9.1833010 -1.7615640 -0.3774530
v 9.1126397 -1.7476730 -0.5852879
v 9.3348819 -1.7730549 -0.5558740
v 9.4002619 -1.7850961 -0.3437110
v 8.9217702 -1.6291190 -0.9857730
v 9.2674304 -1.6817879 -0.8718612
v 9.2792054 -1.7376840 -0.7269139
v 9.0175944 -1.7021620 -0.7938288
v 8.6090413 -1.5672070 -0.9108670
v 8.7604046 -1.6512450 -0.7322270
v 8.5762539 -1.5985180 -0.5585400
v 8.3942900 -1.5089290 -0.6627220
v 8.9919063 -1.7236720 -0.3316090
v 8.8133621 -1.6689050 -0.2031339
v 8.7011414 -1.6475919 -0.4040780
v 8.8862104 -1.7028470 -0.5310520
v 8.4086943 -1.4738620 -0.0090180
v 8.3204708 -1.4745360 -0.3304310
v 8.5252715 -1.5747648 -0.3290449
v 8.6171913 -1.5845200 -0.0875630
# 698 uv coords
vt 0.653101 0.837086
vt 0.624323 0.644856
vt 0.506453 0.561782
vt 0.815035 0.607325
vt 0.333510 0.414734
vt 0.380208 0.226054
vt 0.505347 0.154425
vt 0.193863 0.170766
vt 0.553617 0.595023
vt 0.628511 0.734941
vt 0.710570 0.618512
vt 0.295480 0.509237
vt 0.481083 0.315618
vt 0.544582 0.131967
vt 0.354065 0.093711
vt 0.093117 0.155696
vt 0.197296 0.330751
vt 0.367582 0.315349
vt 0.455276 0.183087
vt 0.296817 0.191718
vt 0.469496 0.535738
vt 0.515492 0.724542
vt 0.682088 0.934746
vt 0.916753 0.601785
vt 0.662773 0.515567
vt 0.796601 0.766278
vt 0.482585 0.771372
vt 0.695812 0.468830
vt 0.885843 0.829175
vt 0.546103 0.686563
vt 0.637300 0.557167
vt 0.721794 0.713553
vt 0.509447 0.365335
vt 0.325565 0.044072
vt 0.102546 0.384986
vt 0.454167 0.274931
vt 0.375521 0.137525
vt 0.276721 0.285291
vt 0.753722 0.736058
vt 0.724276 0.670673
vt 0.682244 0.730310
vt 0.282541 0.543459
vt 0.410690 0.465386
vt 0.523218 0.385027
vt 0.313485 0.464513
vt 0.414091 0.384059
vt 0.495261 0.341235
vt 0.515460 0.230200
vt 0.525897 0.142663
vt 0.560183 0.240358
vt 0.560795 0.122689
vt 0.459022 0.063620
vt 0.315559 0.022227
vt 0.445131 0.107327
vt 0.339159 0.068512
vt 0.261125 0.116816
vt 0.140798 0.162821
vt 0.189277 0.078562
vt 0.057057 0.149524
vt 0.066070 0.266209
vt 0.067251 0.405188
vt 0.173569 0.248786
vt 0.148167 0.358872
vt 0.255957 0.392721
vt 0.186493 0.476589
vt 0.352467 0.365287
vt 0.419795 0.299448
vt 0.467511 0.291931
vt 0.415573 0.205811
vt 0.464386 0.231668
vt 0.376614 0.264388
vt 0.483560 0.166897
vt 0.417999 0.150626
vt 0.367620 0.117412
vt 0.345336 0.209739
vt 0.336972 0.154747
vt 0.246102 0.179461
vt 0.278274 0.242366
vt 0.242822 0.304693
vt 0.314523 0.305689
vt 0.467028 0.789683
vt 0.571511 0.880259
vt 0.691755 0.970028
vt 0.454227 0.524975
vt 0.443799 0.642185
vt 0.487096 0.548141
vt 0.489280 0.636272
vt 0.498973 0.748712
vt 0.575759 0.798972
vt 0.668364 0.888528
vt 0.707826 0.448019
vt 0.561104 0.475740
vt 0.953233 0.599025
vt 0.828258 0.515963
vt 0.868613 0.604400
vt 0.753134 0.547299
vt 0.679981 0.491880
vt 0.570829 0.520559
vt 0.919086 0.852605
vt 0.933308 0.714350
vt 0.793663 0.912486
vt 0.732380 0.822460
vt 0.842874 0.798891
vt 0.827918 0.686904
vt 0.531225 0.702234
vt 0.578022 0.714202
vt 0.638873 0.786077
vt 0.526976 0.576246
vt 0.539988 0.642532
vt 0.624303 0.683357
vt 0.591013 0.621379
vt 0.647054 0.537886
vt 0.593779 0.566213
vt 0.762211 0.611075
vt 0.674061 0.577934
vt 0.660573 0.631892
vt 0.567646 0.910923
vt 0.423861 0.644412
vt 0.465972 0.639183
vt 0.573966 0.841422
vt 0.556497 0.456213
vt 0.855839 0.502012
vt 0.792509 0.531338
vt 0.565732 0.497631
vt 0.971940 0.724244
vt 0.815973 0.945546
vt 0.764254 0.869535
vt 0.882970 0.701095
vt 0.577200 0.757260
vt 0.512576 0.635113
vt 0.578106 0.665087
vt 0.577574 0.542891
vt 0.714336 0.562682
vt 0.627836 0.594528
vt 0.774842 0.674769
vt 0.703105 0.776554
vt 0.673812 0.679737
vt 0.411658 0.496278
vt 0.411891 0.426491
vt 0.538390 0.235285
vt 0.579825 0.244447
vt 0.465445 0.044613
vt 0.452359 0.084982
vt 0.223423 0.097227
vt 0.163131 0.062084
vt 0.026678 0.272432
vt 0.117429 0.257741
vt 0.219804 0.436590
vt 0.161175 0.507404
vt 0.416573 0.342393
vt 0.424321 0.250542
vt 0.492373 0.226858
vt 0.436322 0.128930
vt 0.381435 0.175612
vt 0.298307 0.135775
vt 0.227549 0.241691
vt 0.327664 0.256132
vt 0.289412 0.349768
vt 0.705510 0.721787
vt 0.731221 0.759626
vt 0.669056 0.654900
vt 0.648822 0.683607
vt 0.699033 0.674482
vt 0.677344 0.705257
vt 0.278916 0.555817
vt 0.347136 0.529449
vt 0.413689 0.507936
vt 0.288192 0.527916
vt 0.353345 0.495894
vt 0.410795 0.482046
vt 0.464125 0.420744
vt 0.516365 0.375871
vt 0.472013 0.446904
vt 0.530253 0.392688
vt 0.304037 0.487888
vt 0.363114 0.452830
vt 0.411107 0.446689
vt 0.323439 0.439862
vt 0.374359 0.405281
vt 0.412921 0.405397
vt 0.450516 0.353404
vt 0.488115 0.328410
vt 0.457061 0.388324
vt 0.502402 0.353673
vt 0.523189 0.288757
vt 0.549522 0.237887
vt 0.542512 0.303438
vt 0.503306 0.273388
vt 0.526961 0.232677
vt 0.516452 0.189552
vt 0.515769 0.148460
vt 0.539529 0.185353
vt 0.535545 0.137141
vt 0.560951 0.181726
vt 0.560399 0.315508
vt 0.589094 0.245967
vt 0.570273 0.242572
vt 0.552966 0.127169
vt 0.579828 0.178466
vt 0.568409 0.118331
vt 0.522339 0.078027
vt 0.468828 0.035847
vt 0.509967 0.092656
vt 0.462223 0.053797
vt 0.395681 0.046910
vt 0.319980 0.032772
vt 0.394331 0.025374
vt 0.312515 0.012282
vt 0.495989 0.109287
vt 0.455752 0.074063
vt 0.480682 0.127062
vt 0.448819 0.096154
vt 0.401736 0.095936
vt 0.346597 0.081167
vt 0.398552 0.071008
vt 0.332050 0.056054
vt 0.279207 0.077602
vt 0.205610 0.087671
vt 0.254832 0.055090
vt 0.306004 0.100932
vt 0.242135 0.107020
vt 0.222702 0.140331
vt 0.167094 0.166723
vt 0.176008 0.125946
vt 0.115860 0.159131
vt 0.133930 0.112562
vt 0.236270 0.035041
vt 0.154108 0.054429
vt 0.174965 0.070033
vt 0.073320 0.152523
vt 0.101854 0.100922
vt 0.044566 0.146391
vt 0.032327 0.207460
vt 0.012945 0.274249
vt 0.070923 0.207854
vt 0.044497 0.269703
vt 0.077186 0.326753
vt 0.083236 0.396038
vt 0.038931 0.340061
vt 0.054957 0.412225
vt 0.121696 0.207728
vt 0.090674 0.262151
vt 0.177775 0.207802
vt 0.145388 0.253210
vt 0.180387 0.290791
vt 0.172749 0.344800
vt 0.126730 0.309378
vt 0.124467 0.372437
vt 0.179989 0.402420
vt 0.202453 0.457430
vt 0.139915 0.436343
vt 0.223190 0.365569
vt 0.237871 0.414779
vt 0.293425 0.409849
vt 0.265089 0.458242
vt 0.239267 0.501957
vt 0.109065 0.462591
vt 0.152656 0.518325
vt 0.172553 0.493424
vt 0.220061 0.535440
vt 0.343300 0.389945
vt 0.385264 0.358135
vt 0.415299 0.363151
vt 0.360675 0.340519
vt 0.394775 0.309954
vt 0.417911 0.321479
vt 0.440630 0.286280
vt 0.460431 0.282014
vt 0.444562 0.319890
vt 0.474293 0.303290
vt 0.395460 0.217323
vt 0.422642 0.226849
vt 0.400971 0.259515
vt 0.379036 0.241993
vt 0.436232 0.193988
vt 0.463175 0.206361
vt 0.445757 0.240286
vt 0.460299 0.256332
vt 0.422671 0.275283
vt 0.372848 0.289419
vt 0.504120 0.227977
vt 0.492628 0.194978
vt 0.494835 0.160443
vt 0.483768 0.260036
vt 0.479509 0.227645
vt 0.470700 0.174259
vt 0.463938 0.144857
vt 0.441304 0.118235
vt 0.439207 0.164489
vt 0.429128 0.139625
vt 0.394661 0.141659
vt 0.372583 0.128539
vt 0.403354 0.119547
vt 0.361261 0.105810
vt 0.365871 0.218992
vt 0.361872 0.191205
vt 0.401016 0.189060
vt 0.321840 0.200311
vt 0.315241 0.171005
vt 0.359263 0.164507
vt 0.358878 0.143452
vt 0.401133 0.162325
vt 0.279765 0.126364
vt 0.268878 0.154805
vt 0.220195 0.174878
vt 0.331888 0.123039
vt 0.317021 0.145213
vt 0.271616 0.184929
vt 0.232456 0.209224
vt 0.200981 0.244699
vt 0.284830 0.216374
vt 0.253220 0.240499
vt 0.276150 0.267054
vt 0.262399 0.293488
vt 0.230988 0.274333
vt 0.220890 0.317248
vt 0.352180 0.262333
vt 0.334731 0.231849
vt 0.340252 0.313201
vt 0.321753 0.281209
vt 0.292159 0.295018
vt 0.303045 0.248529
vt 0.273364 0.371155
vt 0.319892 0.361980
vt 0.263009 0.330273
vt 0.303442 0.328236
vt 0.564527 0.922338
vt 0.628765 0.950010
vt 0.694203 0.982673
vt 0.459306 0.796652
vt 0.512195 0.856096
vt 0.474711 0.781213
vt 0.522504 0.830795
vt 0.569842 0.896836
vt 0.625737 0.916019
vt 0.687592 0.954026
vt 0.414489 0.645055
vt 0.436537 0.716983
vt 0.447057 0.519922
vt 0.430043 0.578721
vt 0.461600 0.530172
vt 0.448533 0.583740
vt 0.433547 0.643443
vt 0.455478 0.706644
vt 0.454645 0.640729
vt 0.476092 0.693846
vt 0.490695 0.760426
vt 0.478010 0.541737
vt 0.469518 0.589363
vt 0.496634 0.554862
vt 0.492101 0.595710
vt 0.477592 0.637659
vt 0.497329 0.680410
vt 0.507289 0.736615
vt 0.572851 0.861606
vt 0.620053 0.872232
vt 0.675575 0.912686
vt 0.532584 0.799180
vt 0.542376 0.765029
vt 0.574922 0.820325
vt 0.613323 0.823834
vt 0.660768 0.863052
vt 0.553951 0.447171
vt 0.496710 0.484125
vt 0.711790 0.438404
vt 0.629105 0.443748
vt 0.702432 0.458103
vt 0.625737 0.465063
vt 0.558841 0.465661
vt 0.507656 0.499850
vt 0.865542 0.495239
vt 0.785560 0.468226
vt 0.965966 0.597078
vt 0.913201 0.546433
vt 0.936761 0.600484
vt 0.880172 0.555009
vt 0.843310 0.508816
vt 0.765196 0.486442
vt 0.811144 0.523500
vt 0.738813 0.506567
vt 0.688229 0.480147
vt 0.893787 0.603069
vt 0.837020 0.564382
vt 0.842066 0.605814
vt 0.789178 0.574317
vt 0.772962 0.539331
vt 0.709944 0.527272
vt 0.671386 0.503781
vt 0.563381 0.486443
vt 0.520009 0.517724
vt 0.620615 0.488781
vt 0.615105 0.513301
vt 0.568207 0.509089
vt 0.533579 0.536857
vt 0.985441 0.727341
vt 0.972417 0.659028
vt 0.930665 0.860764
vt 0.953396 0.790425
vt 0.904029 0.841992
vt 0.916558 0.773582
vt 0.954458 0.719852
vt 0.933955 0.655796
vt 0.823430 0.957219
vt 0.872064 0.905824
vt 0.754713 0.967919
vt 0.738736 0.932781
vt 0.805959 0.930555
vt 0.843816 0.876796
vt 0.779572 0.891911
vt 0.807104 0.839258
vt 0.865194 0.814623
vt 0.717134 0.886833
vt 0.693466 0.835991
vt 0.748316 0.846121
vt 0.767552 0.798509
vt 0.819722 0.782574
vt 0.909193 0.707997
vt 0.883418 0.650901
vt 0.868861 0.751629
vt 0.817188 0.728083
vt 0.855560 0.693956
vt 0.827578 0.645708
vt 0.576521 0.778044
vt 0.606892 0.775873
vt 0.645683 0.811488
vt 0.523409 0.712903
vt 0.551448 0.732223
vt 0.539206 0.693025
vt 0.558516 0.699132
vt 0.577830 0.736310
vt 0.601947 0.727012
vt 0.633025 0.760647
vt 0.516356 0.568760
vt 0.515313 0.603351
vt 0.500777 0.635126
vt 0.539091 0.584785
vt 0.543569 0.617451
vt 0.525313 0.637105
vt 0.541745 0.667470
vt 0.518034 0.668952
vt 0.623993 0.660834
vt 0.600510 0.676215
vt 0.581999 0.641658
vt 0.609958 0.634731
vt 0.625704 0.708630
vt 0.577428 0.689875
vt 0.557728 0.652863
vt 0.571556 0.607666
vt 0.573616 0.531775
vt 0.548581 0.556149
vt 0.654474 0.526935
vt 0.611277 0.536653
vt 0.641068 0.548496
vt 0.617855 0.559481
vt 0.583731 0.554216
vt 0.571362 0.578019
vt 0.788433 0.608944
vt 0.741849 0.584388
vt 0.733681 0.555054
vt 0.736297 0.614119
vt 0.694171 0.596160
vt 0.694818 0.570319
vt 0.653312 0.564631
vt 0.682098 0.546846
vt 0.607081 0.606072
vt 0.645849 0.611887
vt 0.639259 0.639174
vt 0.609472 0.579446
vt 0.650951 0.585555
vt 0.684848 0.624713
vt 0.801011 0.680258
vt 0.773002 0.641987
vt 0.774379 0.750616
vt 0.768353 0.706941
vt 0.735282 0.723060
vt 0.724073 0.695450
vt 0.749395 0.671170
vt 0.720188 0.644184
vt 0.671614 0.785845
vt 0.717073 0.799355
vt 0.655924 0.735369
vt 0.691158 0.753799
vt 0.628467 0.962461
vt 0.506517 0.865632
vt 0.517421 0.844423
vt 0.627709 0.934488
vt 0.427512 0.720895
vt 0.421373 0.576268
vt 0.438991 0.581179
vt 0.445789 0.712211
vt 0.465616 0.700449
vt 0.458736 0.586460
vt 0.480711 0.592452
vt 0.486735 0.687081
vt 0.623115 0.895061
vt 0.527556 0.815562
vt 0.537547 0.782157
vt 0.616732 0.848237
vt 0.491482 0.476784
vt 0.629756 0.433935
vt 0.627721 0.454065
vt 0.502035 0.491725
vt 0.792630 0.459670
vt 0.924826 0.541966
vt 0.898228 0.550657
vt 0.776322 0.477073
vt 0.752551 0.496321
vt 0.859550 0.559589
vt 0.813307 0.569322
vt 0.724448 0.516965
vt 0.513647 0.508546
vt 0.623310 0.476692
vt 0.617825 0.501080
vt 0.526681 0.527225
vt 0.985830 0.659524
vt 0.966272 0.796151
vt 0.936706 0.782834
vt 0.955044 0.657709
vt 0.881787 0.916027
vt 0.759690 0.980384
vt 0.747630 0.951999
vt 0.859303 0.892660
vt 0.826185 0.858778
vt 0.728424 0.910821
vt 0.705324 0.861613
vt 0.787306 0.818930
vt 0.909804 0.653470
vt 0.893661 0.763036
vt 0.843061 0.739820
vt 0.855694 0.648259
vt 0.609999 0.799805
vt 0.546994 0.748359
vt 0.555836 0.716667
vt 0.604149 0.751729
vt 0.503455 0.599101
vt 0.528389 0.609201
vt 0.528947 0.665756
vt 0.507647 0.674095
vt 0.602700 0.653491
vt 0.600486 0.701294
vt 0.557857 0.677060
vt 0.561836 0.628952
vt 0.540593 0.546408
vt 0.612628 0.525140
vt 0.611937 0.548004
vt 0.558486 0.566496
vt 0.765431 0.579267
vt 0.718189 0.589924
vt 0.668922 0.556210
vt 0.695797 0.537226
vt 0.625184 0.621589
vt 0.588334 0.591354
vt 0.632304 0.571430
vt 0.669459 0.603432
vt 0.800029 0.643412
vt 0.792177 0.716892
vt 0.746029 0.698916
vt 0.746428 0.642042
vt 0.682042 0.810821
vt 0.662727 0.760798
vt 0.716157 0.741299
vt 0.748603 0.778717
vt 0.645900 0.660064
vt 0.694121 0.649039
vt 0.701328 0.699129
vt 0.651731 0.709185
vt 0.346261 0.541873
vt 0.349644 0.514095
vt 0.467905 0.434789
vt 0.476770 0.456932
vt 0.357920 0.475271
vt 0.368673 0.429255
vt 0.453716 0.370908
vt 0.460528 0.405106
vt 0.533001 0.296316
vt 0.513228 0.281024
vt 0.528097 0.187379
vt 0.550536 0.183474
vt 0.569016 0.320250
vt 0.551636 0.309889
vt 0.570689 0.180073
vt 0.588691 0.176837
vt 0.528232 0.071210
vt 0.516324 0.085093
vt 0.394739 0.035776
vt 0.394607 0.015542
vt 0.503183 0.100749
vt 0.488453 0.118122
vt 0.400176 0.083515
vt 0.397004 0.058719
vt 0.266492 0.066114
vt 0.292531 0.089306
vt 0.199152 0.133092
vt 0.154028 0.119058
vt 0.230034 0.025859
vt 0.244636 0.044717
vt 0.116362 0.106534
vt 0.090698 0.095386
vt 0.018927 0.206696
vt 0.049749 0.207780
vt 0.056258 0.334072
vt 0.025573 0.344553
vt 0.095185 0.207806
vt 0.149543 0.207701
vt 0.153525 0.300045
vt 0.100968 0.318404
vt 0.159159 0.420062
vt 0.201607 0.384043
vt 0.279216 0.434244
vt 0.251596 0.481064
vt 0.098428 0.471832
vt 0.123005 0.450681
vt 0.228608 0.520256
vt 0.213934 0.547380
vt 0.379922 0.381670
vt 0.390261 0.334355
vt 0.441652 0.303987
vt 0.447482 0.336372
vt 0.400924 0.236684
vt 0.443910 0.216094
vt 0.443357 0.264367
vt 0.398640 0.284485
vt 0.504832 0.191863
vt 0.493627 0.266132
vt 0.473203 0.255830
vt 0.479062 0.199574
vt 0.472805 0.135911
vt 0.453105 0.154226
vt 0.401630 0.130787
vt 0.403091 0.107957
vt 0.381534 0.202808
vt 0.339160 0.180568
vt 0.379154 0.152197
vt 0.421058 0.176169
vt 0.245880 0.147490
vt 0.319154 0.112173
vt 0.344127 0.133600
vt 0.291915 0.162539
vt 0.205415 0.208105
vt 0.258908 0.211778
vt 0.253967 0.268441
vt 0.206336 0.282000
vt 0.357298 0.239167
vt 0.346885 0.287527
vt 0.298449 0.272853
vt 0.310327 0.223658
vt 0.307163 0.385863
vt 0.243914 0.347647
vt 0.279727 0.313443
vt 0.331089 0.337877
vt 0.417692 0.517347
vt 0.347827 0.552023
vt 0.277777 0.566022
vt 0.482841 0.465027
vt 0.210140 0.557080
vt 0.538006 0.398981
vt 0.146554 0.526961
vt 0.577994 0.324273
vt 0.090496 0.478968
vt 0.598683 0.247285
vt 0.045671 0.417541
vt 0.598039 0.175149
vt 0.015404 0.347780
vt 0.576543 0.113674
vt 0.002410 0.275137
vt 0.534422 0.064005
vt 0.008642 0.205054
vt 0.472549 0.026914
vt 0.035188 0.142207
vt 0.395686 0.005762
vt 0.082736 0.088893
vt 0.311015 0.002410
vt 0.148023 0.046211
vt 0.226128 0.016526
vt 0.625954 0.972421
vt 0.559657 0.931330
vt 0.499713 0.873122
vt 0.694380 0.992939
vt 0.450996 0.802188
vt 0.762557 0.990396
vt 0.418194 0.724058
vt 0.828693 0.966389
vt 0.404819 0.645467
vt 0.889014 0.923875
vt 0.412226 0.573710
vt 0.939412 0.866929
vt 0.439394 0.514522
vt 0.976095 0.800317
vt 0.485999 0.469030
vt 0.995847 0.729216
vt 0.551089 0.437927
vt 0.996223 0.658857
vt 0.629600 0.424096
vt 0.975694 0.593795
vt 0.714211 0.428717
vt 0.933362 0.536251
vt 0.797397 0.450744
vt 0.872371 0.487628
# 672 polygons
f 1/678 339/675 507/483 342/329
f 339/675 87/676 340/327 507/483
f 507/483 340/327 129/117 341/328
f 342/329 507/483 341/328 90/83
f 87/676 343/677 508/484 340/327
f 343/677 24/679 344/330 508/484
f 508/484 344/330 88/81 345/331
f 340/327 508/484 345/331 129/117
f 129/117 345/331 509/485 348/334
f 345/331 88/81 346/332 509/485
f 509/485 346/332 33/27 347/333
f 348/334 509/485 347/333 89/82
f 90/83 341/328 510/486 350/336
f 341/328 129/117 348/334 510/486
f 510/486 348/334 89/82 349/335
f 350/336 510/486 349/335 27/23
f 24/679 351/681 511/487 344/330
f 351/681 91/683 352/337 511/487
f 511/487 352/337 130/118 353/338
f 344/330 511/487 353/338 88/81
f 91/683 354/685 512/488 352/337
f 354/685 4/687 355/339 512/488
f 512/488 355/339 92/84 356/340
f 352/337 512/488 356/340 130/118
f 130/118 356/340 513/489 359/343
f 356/340 92/84 357/341 513/489
f 513/489 357/341 25/21 358/342
f 359/343 513/489 358/342 93/85
f 88/81 353/338 514/490 346/332
f 353/338 130/118 359/343 514/490
f 514/490 359/343 93/85 360/344
f 346/332 514/490 360/344 33/27
f 33/27 360/344 515/491 363/347
f 360/344 93/85 361/345 515/491
f 515/491 361/345 131/119 362/346
f 363/347 515/491 362/346 96/88
f 93/85 358/342 516/492 361/345
f 358/342 25/21 364/348 516/492
f 516/492 364/348 94/86 365/349
f 361/345 516/492 365/349 131/119
f 131/119 365/349 517/493 368/352
f 365/349 94/86 366/350 517/493
f 517/493 366/350 5/3 367/351
f 368/352 517/493 367/351 95/87
f 96/88 362/346 518/494 370/354
f 362/346 131/119 368/352 518/494
f 518/494 368/352 95/87 369/353
f 370/354 518/494 369/353 26/22
f 27/23 349/335 519/495 373/357
f 349/335 89/82 371/355 519/495
f 519/495 371/355 132/120 372/356
f 373/357 519/495 372/356 98/90
f 89/82 347/333 520/496 371/355
f 347/333 33/27 363/347 520/496
f 520/496 363/347 96/88 374/358
f 371/355 520/496 374/358 132/120
f 132/120 374/358 521/497 376/360
f 374/358 96/88 370/354 521/497
f 521/497 370/354 26/22 375/359
f 376/360 521/497 375/359 97/89
f 98/90 372/356 522/498 378/362
f 372/356 132/120 376/360 522/498
f 522/498 376/360 97/89 377/361
f 378/362 522/498 377/361 2/1
f 4/687 379/689 523/499 355/339
f 379/689 99/691 380/363 523/499
f 523/499 380/363 133/121 381/364
f 355/339 523/499 381/364 92/84
f 99/691 382/693 524/500 380/363
f 382/693 28/695 383/365 524/500
f 524/500 383/365 100/91 384/366
f 380/363 524/500 384/366 133/121
f 133/121 384/366 525/501 387/369
f 384/366 100/91 385/367 525/501
f 525/501 385/367 34/28 386/368
f 387/369 525/501 386/368 101/92
f 92/84 381/364 526/502 357/341
f 381/364 133/121 387/369 526/502
f 526/502 387/369 101/92 388/370
f 357/341 526/502 388/370 25/21
f 28/695 389/697 527/503 383/365
f 389/697 102/698 390/371 527/503
f 527/503 390/371 134/122 391/372
f 383/365 527/503 391/372 100/91
f 102/698 392/696 528/504 390/371
f 392/696 6/694 393/373 528/504
f 528/504 393/373 103/93 394/374
f 390/371 528/504 394/374 134/122
f 134/122 394/374 529/505 397/377
f 394/374 103/93 395/375 529/505
f 529/505 395/375 29/24 396/376
f 397/377 529/505 396/376 104/94
f 100/91 391/372 530/506 385/367
f 391/372 134/122 397/377 530/506
f 530/506 397/377 104/94 398/378
f 385/367 530/506 398/378 34/28
f 34/28 398/378 531/507 401/381
f 398/378 104/94 399/379 531/507
f 531/507 399/379 135/123 400/380
f 401/381 531/507 400/380 107/97
f 104/94 396/376 532/508 399/379
f 396/376 29/24 402/382 532/508
f 532/508 402/382 105/95 403/383
f 399/379 532/508 403/383 135/123
f 135/123 403/383 533/509 406/386
f 403/383 105/95 404/384 533/509
f 533/509 404/384 7/4 405/385
f 406/386 533/509 405/385 106/96
f 107/97 400/380 534/510 408/388
f 400/380 135/123 406/386 534/510
f 534/510 406/386 106/96 407/387
f 408/388 534/510 407/387 30/25
f 25/21 388/370 535/511 364/348
f 388/370 101/92 409/389 535/511
f 535/511 409/389 136/124 410/390
f 364/348 535/511 410/390 94/86
f 101/92 386/368 536/512 409/389
f 386/368 34/28 401/381 536/512
f 536/512 401/381 107/97 411/391
f 409/389 536/512 411/391 136/124
f 136/124 411/391 537/513 413/393
f 411/391 107/97 408/388 537/513
f 537/513 408/388 30/25 412/392
f 413/393 537/513 412/392 108/98
f 94/86 410/390 538/514 366/350
f 410/390 136/124 413/393 538/514
f 538/514 413/393 108/98 414/394
f 366/350 538/514 414/394 5/3
f 6/694 415/692 539/515 393/373
f 415/692 109/690 416/395 539/515
f 539/515 416/395 137/125 417/396
f 393/373 539/515 417/396 103/93
f 109/690 418/688 540/516 416/395
f 418/688 31/686 419/397 540/516
f 540/516 419/397 110/99 420/398
f 416/395 540/516 420/398 137/125
f 137/125 420/398 541/517 423/401
f 420/398 110/99 421/399 541/517
f 541/517 421/399 35/29 422/400
f 423/401 541/517 422/400 111/100
f 103/93 417/396 542/518 395/375
f 417/396 137/125 423/401 542/518
f 542/518 423/401 111/100 424/402
f 395/375 542/518 424/402 29/24
f 31/686 425/684 543/519 419/397
f 425/684 112/682 426/403 543/519
f 543/519 426/403 138/126 427/404
f 419/397 543/519 427/404 110/99
f 112/682 428/680 544/520 426/403
f 428/680 1/678 342/329 544/520
f 544/520 342/329 90/83 429/405
f 426/403 544/520 429/405 138/126
f 138/126 429/405 545/521 431/407
f 429/405 90/83 350/336 545/521
f 545/521 350/336 27/23 430/406
f 431/407 545/521 430/406 113/101
f 110/99 427/404 546/522 421/399
f 427/404 138/126 431/407 546/522
f 546/522 431/407 113/101 432/408
f 421/399 546/522 432/408 35/29
f 35/29 432/408 547/523 435/411
f 432/408 113/101 433/409 547/523
f 547/523 433/409 139/127 434/410
f 435/411 547/523 434/410 115/103
f 113/101 430/406 548/524 433/409
f 430/406 27/23 373/357 548/524
f 548/524 373/357 98/90 436/412
f 433/409 548/524 436/412 139/127
f 139/127 436/412 549/525 438/414
f 436/412 98/90 378/362 549/525
f 549/525 378/362 2/1 437/413
f 438/414 549/525 437/413 114/102
f 115/103 434/410 550/526 440/416
f 434/410 139/127 438/414 550/526
f 550/526 438/414 114/102 439/415
f 440/416 550/526 439/415 32/26
f 29/24 424/402 551/527 402/382
f 424/402 111/100 441/417 551/527
f 551/527 441/417 140/128 442/418
f 402/382 551/527 442/418 105/95
f 111/100 422/400 552/528 441/417
f 422/400 35/29 435/411 552/528
f 552/528 435/411 115/103 443/419
f 441/417 552/528 443/419 140/128
f 140/128 443/419 553/529 445/421
f 443/419 115/103 440/416 553/529
f 553/529 440/416 32/26 444/420
f 445/421 553/529 444/420 116/104
f 105/95 442/418 554/530 404/384
f 442/418 140/128 445/421 554/530
f 554/530 445/421 116/104 446/422
f 404/384 554/530 446/422 7/4
f 2/1 377/361 555/531 449/425
f 377/361 97/89 447/423 555/531
f 555/531 447/423 141/129 448/424
f 449/425 555/531 448/424 119/107
f 97/89 375/359 556/532 447/423
f 375/359 26/22 450/426 556/532
f 556/532 450/426 117/105 451/427
f 447/423 556/532 451/427 141/129
f 141/129 451/427 557/533 454/430
f 451/427 117/105 452/428 557/533
f 557/533 452/428 36/30 453/429
f 454/430 557/533 453/429 118/106
f 119/107 448/424 558/534 456/432
f 448/424 141/129 454/430 558/534
f 558/534 454/430 118/106 455/431
f 456/432 558/534 455/431 13/10
f 5/3 457/433 559/535 367/351
f 457/433 120/108 458/434 559/535
f 559/535 458/434 142/130 459/435
f 367/351 559/535 459/435 95/87
f 120/108 460/436 560/536 458/434
f 460/436 12/9 461/437 560/536
f 560/536 461/437 121/109 462/438
f 458/434 560/536 462/438 142/130
f 142/130 462/438 561/537 464/440
f 462/438 121/109 463/439 561/537
f 561/537 463/439 36/30 452/428
f 464/440 561/537 452/428 117/105
f 95/87 459/435 562/538 369/353
f 459/435 142/130 464/440 562/538
f 562/538 464/440 117/105 450/426
f 369/353 562/538 450/426 26/22
f 3/2 465/441 563/539 468/444
f 465/441 122/110 466/442 563/539
f 563/539 466/442 143/131 467/443
f 468/444 563/539 467/443 123/111
f 122/110 469/445 564/540 466/442
f 469/445 13/10 455/431 564/540
f 564/540 455/431 118/106 470/446
f 466/442 564/540 470/446 143/131
f 143/131 470/446 565/541 471/447
f 470/446 118/106 453/429 565/541
f 565/541 453/429 36/30 463/439
f 471/447 565/541 463/439 121/109
f 123/111 467/443 566/542 472/448
f 467/443 143/131 471/447 566/542
f 566/542 471/447 121/109 461/437
f 472/448 566/542 461/437 12/9
f 5/3 414/394 567/543 457/433
f 414/394 108/98 473/449 567/543
f 567/543 473/449 144/132 474/450
f 457/433 567/543 474/450 120/108
f 108/98 412/392 568/544 473/449
f 412/392 30/25 475/451 568/544
f 568/544 475/451 124/112 476/452
f 473/449 568/544 476/452 144/132
f 144/132 476/452 569/545 479/455
f 476/452 124/112 477/453 569/545
f 569/545 477/453 37/31 478/454
f 479/455 569/545 478/454 125/113
f 120/108 474/450 570/546 460/436
f 474/450 144/132 479/455 570/546
f 570/546 479/455 125/113 480/456
f 460/436 570/546 480/456 12/9
f 7/4 481/457 571/547 405/385
f 481/457 126/114 482/458 571/547
f 571/547 482/458 145/133 483/459
f 405/385 571/547 483/459 106/96
f 126/114 484/460 572/548 482/458
f 484/460 14/11 485/461 572/548
f 572/548 485/461 127/115 486/462
f 482/458 572/548 486/462 145/133
f 145/133 486/462 573/549 488/464
f 486/462 127/115 487/463 573/549
f 573/549 487/463 37/31 477/453
f 488/464 573/549 477/453 124/112
f 106/96 483/459 574/550 407/387
f 483/459 145/133 488/464 574/550
f 574/550 488/464 124/112 475/451
f 407/387 574/550 475/451 30/25
f 3/2 468/444 575/551 491/467
f 468/444 123/111 489/465 575/551
f 575/551 489/465 146/134 490/466
f 491/467 575/551 490/466 128/116
f 123/111 472/448 576/552 489/465
f 472/448 12/9 480/456 576/552
f 576/552 480/456 125/113 492/468
f 489/465 576/552 492/468 146/134
f 146/134 492/468 577/553 493/469
f 492/468 125/113 478/454 577/553
f 577/553 478/454 37/31 487/463
f 493/469 577/553 487/463 127/115
f 128/116 490/466 578/554 494/470
f 490/466 146/134 493/469 578/554
f 578/554 493/469 127/115 485/461
f 494/470 578/554 485/461 14/11
f 7/4 446/422 579/555 481/457
f 446/422 116/104 495/471 579/555
f 579/555 495/471 147/135 496/472
f 481/457 579/555 496/472 126/114
f 116/104 444/420 580/556 495/471
f 444/420 32/26 497/473 580/556
f 580/556 497/473 45/39 498/474
f 495/471 580/556 498/474 147/135
f 147/135 498/474 581/557 501/477
f 498/474 45/39 499/475 581/557
f 581/557 499/475 38/32 500/476
f 501/477 581/557 500/476 46/40
f 126/114 496/472 582/558 484/460
f 496/472 147/135 501/477 582/558
f 582/558 501/477 46/40 502/478
f 484/460 582/558 502/478 14/11
f 2/1 449/425 583/559 437/413
f 449/425 119/107 503/479 583/559
f 583/559 503/479 148/136 504/480
f 437/413 583/559 504/480 114/102
f 119/107 456/432 584/560 503/479
f 456/432 13/10 505/481 584/560
f 584/560 505/481 47/41 506/482
f 503/479 584/560 506/482 148/136
f 148/136 506/482 585/561 172/160
f 506/482 47/41 171/159 585/561
f 585/561 171/159 38/32 499/475
f 172/160 585/561 499/475 45/39
f 114/102 504/480 586/562 439/415
f 504/480 148/136 172/160 586/562
f 586/562 172/160 45/39 497/473
f 439/415 586/562 497/473 32/26
f 3/2 491/467 587/563 465/441
f 491/467 128/116 173/161 587/563
f 587/563 173/161 149/137 174/162
f 465/441 587/563 174/162 122/110
f 128/116 494/470 588/564 173/161
f 494/470 14/11 502/478 588/564
f 588/564 502/478 46/40 175/163
f 173/161 588/564 175/163 149/137
f 149/137 175/163 589/565 176/164
f 175/163 46/40 500/476 589/565
f 589/565 500/476 38/32 171/159
f 176/164 589/565 171/159 47/41
f 122/110 174/162 590/566 469/445
f 174/162 149/137 176/164 590/566
f 590/566 176/164 47/41 505/481
f 469/445 590/566 505/481 13/10
f 1/653 177/165 591/567 339/652
f 177/165 48/42 178/166 591/567
f 591/567 178/166 150/138 179/167
f 339/652 591/567 179/167 87/651
f 48/42 180/168 592/568 178/166
f 180/168 15/12 181/169 592/568
f 592/568 181/169 49/43 182/170
f 178/166 592/568 182/170 150/138
f 150/138 182/170 593/569 185/173
f 182/170 49/43 183/171 593/569
f 593/569 183/171 39/33 184/172
f 185/173 593/569 184/172 50/44
f 87/651 179/167 594/570 343/654
f 179/167 150/138 185/173 594/570
f 594/570 185/173 50/44 186/174
f 343/654 594/570 186/174 24/656
f 15/12 187/175 595/571 181/169
f 187/175 51/45 188/176 595/571
f 595/571 188/176 151/139 189/177
f 181/169 595/571 189/177 49/43
f 51/45 190/178 596/572 188/176
f 190/178 8/5 191/179 596/572
f 596/572 191/179 52/46 192/180
f 188/176 596/572 192/180 151/139
f 151/139 192/180 597/573 195/183
f 192/180 52/46 193/181 597/573
f 597/573 193/181 16/13 194/182
f 195/183 597/573 194/182 53/47
f 49/43 189/177 598/574 183/171
f 189/177 151/139 195/183 598/574
f 598/574 195/183 53/47 196/184
f 183/171 598/574 196/184 39/33
f 39/33 196/184 599/575 199/187
f 196/184 53/47 197/185 599/575
f 599/575 197/185 152/140 198/186
f 199/187 599/575 198/186 56/50
f 53/47 194/182 600/576 197/185
f 194/182 16/13 200/188 600/576
f 600/576 200/188 54/48 201/189
f 197/185 600/576 201/189 152/140
f 152/140 201/189 601/577 204/192
f 201/189 54/48 202/190 601/577
f 601/577 202/190 10/7 203/191
f 204/192 601/577 203/191 55/49
f 56/50 198/186 602/578 206/194
f 198/186 152/140 204/192 602/578
f 602/578 204/192 55/49 205/193
f 206/194 602/578 205/193 17/14
f 24/656 186/174 603/579 351/658
f 186/174 50/44 207/195 603/579
f 603/579 207/195 153/141 208/196
f 351/658 603/579 208/196 91/660
f 50/44 184/172 604/580 207/195
f 184/172 39/33 199/187 604/580
f 604/580 199/187 56/50 209/197
f 207/195 604/580 209/197 153/141
f 153/141 209/197 605/581 211/199
f 209/197 56/50 206/194 605/581
f 605/581 206/194 17/14 210/198
f 211/199 605/581 210/198 57/51
f 91/660 208/196 606/582 354/662
f 208/196 153/141 211/199 606/582
f 606/582 211/199 57/51 212/200
f 354/662 606/582 212/200 4/664
f 4/664 212/200 607/583 379/666
f 212/200 57/51 213/201 607/583
f 607/583 213/201 154/142 214/202
f 379/666 607/583 214/202 99/668
f 57/51 210/198 608/584 213/201
f 210/198 17/14 215/203 608/584
f 608/584 215/203 58/52 216/204
f 213/201 608/584 216/204 154/142
f 154/142 216/204 609/585 219/207
f 216/204 58/52 217/205 609/585
f 609/585 217/205 40/34 218/206
f 219/207 609/585 218/206 59/53
f 99/668 214/202 610/586 382/670
f 214/202 154/142 219/207 610/586
f 610/586 219/207 59/53 220/208
f 382/670 610/586 220/208 28/672
f 17/14 205/193 611/587 215/203
f 205/193 55/49 221/209 611/587
f 611/587 221/209 155/143 222/210
f 215/203 611/587 222/210 58/52
f 55/49 203/191 612/588 221/209
f 203/191 10/7 223/211 612/588
f 612/588 223/211 60/54 224/212
f 221/209 612/588 224/212 155/143
f 155/143 224/212 613/589 227/215
f 224/212 60/54 225/213 613/589
f 613/589 225/213 18/15 226/214
f 227/215 613/589 226/214 61/55
f 58/52 222/210 614/590 217/205
f 222/210 155/143 227/215 614/590
f 614/590 227/215 61/55 228/216
f 217/205 614/590 228/216 40/34
f 40/34 228/216 615/591 231/219
f 228/216 61/55 229/217 615/591
f 615/591 229/217 156/144 230/218
f 231/219 615/591 230/218 64/58
f 61/55 226/214 616/592 229/217
f 226/214 18/15 232/220 616/592
f 616/592 232/220 62/56 233/221
f 229/217 616/592 233/221 156/144
f 156/144 233/221 617/593 236/224
f 233/221 62/56 234/222 617/593
f 617/593 234/222 11/8 235/223
f 236/224 617/593 235/223 63/57
f 64/58 230/218 618/594 238/226
f 230/218 156/144 236/224 618/594
f 618/594 236/224 63/57 237/225
f 238/226 618/594 237/225 19/16
f 28/672 220/208 619/595 389/674
f 220/208 59/53 239/227 619/595
f 619/595 239/227 157/145 240/228
f 389/674 619/595 240/228 102/673
f 59/53 218/206 620/596 239/227
f 218/206 40/34 231/219 620/596
f 620/596 231/219 64/58 241/229
f 239/227 620/596 241/229 157/145
f 157/145 241/229 621/597 243/231
f 241/229 64/58 238/226 621/597
f 621/597 238/226 19/16 242/230
f 243/231 621/597 242/230 65/59
f 102/673 240/228 622/598 392/671
f 240/228 157/145 243/231 622/598
f 622/598 243/231 65/59 244/232
f 392/671 622/598 244/232 6/669
f 6/669 244/232 623/599 415/667
f 244/232 65/59 245/233 623/599
f 623/599 245/233 158/146 246/234
f 415/667 623/599 246/234 109/665
f 65/59 242/230 624/600 245/233
f 242/230 19/16 247/235 624/600
f 624/600 247/235 66/60 248/236
f 245/233 624/600 248/236 158/146
f 158/146 248/236 625/601 251/239
f 248/236 66/60 249/237 625/601
f 625/601 249/237 41/35 250/238
f 251/239 625/601 250/238 67/61
f 109/665 246/234 626/602 418/663
f 246/234 158/146 251/239 626/602
f 626/602 251/239 67/61 252/240
f 418/663 626/602 252/240 31/661
f 19/16 237/225 627/603 247/235
f 237/225 63/57 253/241 627/603
f 627/603 253/241 159/147 254/242
f 247/235 627/603 254/242 66/60
f 63/57 235/223 628/604 253/241
f 235/223 11/8 255/243 628/604
f 628/604 255/243 68/62 256/244
f 253/241 628/604 256/244 159/147
f 159/147 256/244 629/605 259/247
f 256/244 68/62 257/245 629/605
f 629/605 257/245 20/17 258/246
f 259/247 629/605 258/246 69/63
f 66/60 254/242 630/606 249/237
f 254/242 159/147 259/247 630/606
f 630/606 259/247 69/63 260/248
f 249/237 630/606 260/248 41/35
f 41/35 260/248 631/607 263/251
f 260/248 69/63 261/249 631/607
f 631/607 261/249 160/148 262/250
f 263/251 631/607 262/250 71/65
f 69/63 258/246 632/608 261/249
f 258/246 20/17 264/252 632/608
f 632/608 264/252 70/64 265/253
f 261/249 632/608 265/253 160/148
f 160/148 265/253 633/609 267/255
f 265/253 70/64 266/254 633/609
f 633/609 266/254 8/5 190/178
f 267/255 633/609 190/178 51/45
f 71/65 262/250 634/610 268/256
f 262/250 160/148 267/255 634/610
f 634/610 267/255 51/45 187/175
f 268/256 634/610 187/175 15/12
f 31/661 252/240 635/611 425/659
f 252/240 67/61 269/257 635/611
f 635/611 269/257 161/149 270/258
f 425/659 635/611 270/258 112/657
f 67/61 250/238 636/612 269/257
f 250/238 41/35 263/251 636/612
f 636/612 263/251 71/65 271/259
f 269/257 636/612 271/259 161/149
f 161/149 271/259 637/613 272/260
f 271/259 71/65 268/256 637/613
f 637/613 268/256 15/12 180/168
f 272/260 637/613 180/168 48/42
f 112/657 270/258 638/614 428/655
f 270/258 161/149 272/260 638/614
f 638/614 272/260 48/42 177/165
f 428/655 638/614 177/165 1/653
f 8/5 273/261 639/615 191/179
f 273/261 72/66 274/262 639/615
f 639/615 274/262 162/150 275/263
f 191/179 639/615 275/263 52/46
f 72/66 276/264 640/616 274/262
f 276/264 21/18 277/265 640/616
f 640/616 277/265 73/67 278/266
f 274/262 640/616 278/266 162/150
f 162/150 278/266 641/617 281/269
f 278/266 73/67 279/267 641/617
f 641/617 279/267 42/36 280/268
f 281/269 641/617 280/268 74/68
f 52/46 275/263 642/618 193/181
f 275/263 162/150 281/269 642/618
f 642/618 281/269 74/68 282/270
f 193/181 642/618 282/270 16/13
f 9/6 283/271 643/619 286/274
f 283/271 75/69 284/272 643/619
f 643/619 284/272 163/151 285/273
f 286/274 643/619 285/273 77/71
f 75/69 287/275 644/620 284/272
f 287/275 22/19 288/276 644/620
f 644/620 288/276 76/70 289/277
f 284/272 644/620 289/277 163/151
f 163/151 289/277 645/621 291/279
f 289/277 76/70 290/278 645/621
f 645/621 290/278 42/36 279/267
f 291/279 645/621 279/267 73/67
f 77/71 285/273 646/622 292/280
f 285/273 163/151 291/279 646/622
f 646/622 291/279 73/67 277/265
f 292/280 646/622 277/265 21/18
f 10/7 202/190 647/623 295/283
f 202/190 54/48 293/281 647/623
f 647/623 293/281 164/152 294/282
f 295/283 647/623 294/282 78/72
f 54/48 200/188 648/624 293/281
f 200/188 16/13 282/270 648/624
f 648/624 282/270 74/68 296/284
f 293/281 648/624 296/284 164/152
f 164/152 296/284 649/625 297/285
f 296/284 74/68 280/268 649/625
f 649/625 280/268 42/36 290/278
f 297/285 649/625 290/278 76/70
f 78/72 294/282 650/626 298/286
f 294/282 164/152 297/285 650/626
f 650/626 297/285 76/70 288/276
f 298/286 650/626 288/276 22/19
f 10/7 295/283 651/627 223/211
f 295/283 78/72 299/287 651/627
f 651/627 299/287 165/153 300/288
f 223/211 651/627 300/288 60/54
f 78/72 298/286 652/628 299/287
f 298/286 22/19 301/289 652/628
f 652/628 301/289 79/73 302/290
f 299/287 652/628 302/290 165/153
f 165/153 302/290 653/629 305/293
f 302/290 79/73 303/291 653/629
f 653/629 303/291 43/37 304/292
f 305/293 653/629 304/292 80/74
f 60/54 300/288 654/630 225/213
f 300/288 165/153 305/293 654/630
f 654/630 305/293 80/74 306/294
f 225/213 654/630 306/294 18/15
f 9/6 307/295 655/631 283/271
f 307/295 81/75 308/296 655/631
f 655/631 308/296 166/154 309/297
f 283/271 655/631 309/297 75/69
f 81/75 310/298 656/632 308/296
f 310/298 23/20 311/299 656/632
f 656/632 311/299 82/76 312/300
f 308/296 656/632 312/300 166/154
f 166/154 312/300 657/633 314/302
f 312/300 82/76 313/301 657/633
f 657/633 313/301 43/37 303/291
f 314/302 657/633 303/291 79/73
f 75/69 309/297 658/634 287/275
f 309/297 166/154 314/302 658/634
f 658/634 314/302 79/73 301/289
f 287/275 658/634 301/289 22/19
f 11/8 234/222 659/635 317/305
f 234/222 62/56 315/303 659/635
f 659/635 315/303 167/155 316/304
f 317/305 659/635 316/304 83/77
f 62/56 232/220 660/636 315/303
f 232/220 18/15 306/294 660/636
f 660/636 306/294 80/74 318/306
f 315/303 660/636 318/306 167/155
f 167/155 318/306 661/637 319/307
f 318/306 80/74 304/292 661/637
f 661/637 304/292 43/37 313/301
f 319/307 661/637 313/301 82/76
f 83/77 316/304 662/638 320/308
f 316/304 167/155 319/307 662/638
f 662/638 319/307 82/76 311/299
f 320/308 662/638 311/299 23/20
f 11/8 317/305 663/639 255/243
f 317/305 83/77 321/309 663/639
f 663/639 321/309 168/156 322/310
f 255/243 663/639 322/310 68/62
f 83/77 320/308 664/640 321/309
f 320/308 23/20 323/311 664/640
f 664/640 323/311 84/78 324/312
f 321/309 664/640 324/312 168/156
f 168/156 324/312 665/641 327/315
f 324/312 84/78 325/313 665/641
f 665/641 325/313 44/38 326/314
f 327/315 665/641 326/314 85/79
f 68/62 322/310 666/642 257/245
f 322/310 168/156 327/315 666/642
f 666/642 327/315 85/79 328/316
f 257/245 666/642 328/316 20/17
f 9/6 286/274 667/643 307/295
f 286/274 77/71 329/317 667/643
f 667/643 329/317 169/157 330/318
f 307/295 667/643 330/318 81/75
f 77/71 292/280 668/644 329/317
f 292/280 21/18 331/319 668/644
f 668/644 331/319 86/80 332/320
f 329/317 668/644 332/320 169/157
f 169/157 332/320 669/645 334/322
f 332/320 86/80 333/321 669/645
f 669/645 333/321 44/38 325/313
f 334/322 669/645 325/313 84/78
f 81/75 330/318 670/646 310/298
f 330/318 169/157 334/322 670/646
f 670/646 334/322 84/78 323/311
f 310/298 670/646 323/311 23/20
f 8/5 266/254 671/647 273/261
f 266/254 70/64 335/323 671/647
f 671/647 335/323 170/158 336/324
f 273/261 671/647 336/324 72/66
f 70/64 264/252 672/648 335/323
f 264/252 20/17 328/316 672/648
f 672/648 328/316 85/79 337/325
f 335/323 672/648 337/325 170/158
f 170/158 337/325 673/649 338/326
f 337/325 85/79 326/314 673/649
f 673/649 326/314 44/38 333/321
f 338/326 673/649 333/321 86/80
f 72/66 336/324 674/650 276/264
f 336/324 170/158 338/326 674/650
f 674/650 338/326 86/80 331/319
f 276/264 674/650 331/319 21/18
# h3dt: 674 698 0 672
