# author: headus 3D tools
#  using: ply2obj v1.12
#   from: uvlayout v2023.01
# 1027 vertices
v 64.020393 18.039885 -102.458885
v 63.985041 21.012899 -105.350326
v 67.127334 23.221113 -108.901809
v 63.830911 23.653267 -108.329223
v 67.006308 25.856604 -111.885978
v 63.644028 26.199311 -111.129242
v 70.102317 27.592150 -115.733206
v 66.795003 28.356529 -114.685729
v 63.405895 28.721844 -113.672338
v 72.681937 27.889781 -120.141153
v 69.400657 28.751608 -119.127838
v 66.102515 29.628119 -117.952515
v 62.762535 30.222721 -116.691337
v 71.710685 28.158743 -123.521081
v 68.381706 29.026911 -122.419555
v 65.084890 29.953105 -121.169487
v 61.831207 30.746752 -119.808427
v 74.113327 27.504500 -127.658371
v 70.741424 28.381970 -126.627521
v 67.350264 29.289221 -125.491843
v 64.025565 30.251313 -124.214301
v 60.820885 31.179321 -122.811227
v 76.664961 26.753022 -131.584413
v 73.297279 27.689818 -130.589433
v 69.838256 28.591604 -129.545685
v 66.370550 29.564694 -128.431671
v 62.980618 30.545647 -127.176013
v 59.753906 31.479896 -125.770695
v 75.917404 26.629738 -134.457445
v 72.556761 27.751155 -133.394375
v 69.044661 28.802461 -132.359131
v 65.460555 29.820042 -131.340837
v 61.963345 30.832003 -130.136505
v 58.639103 31.794188 -128.760925
v 52.769188 33.174965 -126.082205
v 55.751787 32.631230 -127.092369
v 48.316069 31.206011 -121.617005
v 50.788078 32.512545 -122.196629
v 53.710283 32.653752 -123.108145
v 56.736446 32.342909 -124.291475
v 47.052833 29.722676 -118.522600
v 49.197727 31.048888 -118.718695
v 51.764770 31.927533 -119.245833
v 54.658302 31.963126 -120.196011
v 57.704064 31.806631 -121.393091
v 47.217739 29.233533 -116.030731
v 49.632591 30.633570 -115.856406
v 52.473255 31.207402 -116.320023
v 55.485981 31.272592 -117.247429
v 58.609559 31.109974 -118.463829
v 49.835271 29.988999 -112.966950
v 52.974312 30.800110 -113.220322
v 56.198789 30.583251 -114.228750
v 59.438576 30.405781 -115.447266
v 53.482892 29.578173 -110.238914
v 56.793514 29.272799 -111.356034
v 60.072190 29.009697 -112.549996
v 53.905891 27.148951 -108.061492
v 57.167118 26.998610 -108.982009
v 60.369385 26.590624 -110.119926
v 57.466900 24.508239 -106.667487
v 60.593452 24.021449 -107.609907
v 60.817711 21.469114 -104.847204
v 60.941679 18.781834 -101.952538
v 53.010197 27.256899 -137.881901
v 49.574573 28.601977 -134.742373
v 52.816044 29.781439 -135.394991
v 46.870941 28.713944 -130.795761
v 49.393075 30.574586 -131.786591
v 52.712110 31.553239 -132.299953
v 72.275138 -10.369303 -109.676124
v 74.831543 -11.246515 -110.178077
v 61.029614 -9.711009 -110.199165
v 63.626981 -10.379709 -110.519234
v 66.276183 -11.061481 -110.845449
v 68.963201 -11.775813 -111.186836
v 71.677169 -12.520373 -111.569335
v 51.040363 -8.606647 -110.782348
v 52.995786 -9.511403 -110.924949
v 55.254274 -10.308209 -111.268898
v 57.692287 -11.048293 -111.662245
v 60.252928 -11.773467 -112.034011
v 62.907322 -12.479475 -112.380440
v 65.633573 -13.180205 -112.715376
v 48.384997 -8.438061 -111.621948
v 49.984649 -9.907869 -112.052627
v 52.015659 -11.161111 -112.358299
v 54.360210 -12.068517 -112.872376
v 56.870018 -12.964457 -113.266571
v 59.504826 -13.798689 -113.663856
v 62.243198 -14.590227 -113.984222
v 46.851955 -9.186415 -112.837126
v 48.636945 -11.111665 -113.310234
v 50.871311 -12.680543 -113.781890
v 53.422634 -13.646347 -114.505989
v 56.086723 -14.502571 -115.090498
v 45.539333 -9.667351 -114.686363
v 47.395432 -11.919547 -115.124168
v 49.836782 -13.573275 -115.789383
v 52.575497 -14.564999 -116.555464
v 44.478879 -10.097853 -116.795120
v 46.565549 -12.220545 -117.337386
v 44.402637 -9.835233 -119.033629
v 92.355039 -5.922297 -110.005255
v 94.518769 -9.997555 -112.120979
v 98.983249 -13.358457 -115.645284
v 100.683621 -17.805339 -117.892029
v 101.041925 -22.022703 -120.705911
v 103.627021 -21.735515 -123.338149
v 98.942225 -24.470227 -123.961731
v 100.553341 -24.173999 -127.282291
v 55.243214 -0.345175 -103.960409
v 58.072029 -0.880709 -103.760177
v 60.854225 -1.531135 -103.820043
v 63.600330 -2.270027 -103.950842
v 66.343726 -3.071425 -104.128372
v 54.845978 -3.089917 -105.915442
v 57.501154 -3.644135 -105.892331
v 60.122177 -4.309445 -105.987670
v 62.733292 -5.029931 -106.127455
v 65.362959 -5.712775 -106.380567
v 68.003120 -6.424017 -106.721563
v 70.624883 -7.244183 -107.168556
v 73.185424 -8.203579 -107.740219
v 75.622528 -9.278433 -108.422354
v 77.829559 -10.379599 -109.149093
v 51.904844 -4.858287 -108.024315
v 54.321224 -5.489157 -107.739998
v 56.808624 -6.117089 -107.827924
v 59.315281 -6.816015 -107.982330
v 61.860596 -7.487379 -108.221511
v 64.445211 -8.131753 -108.522079
v 67.055335 -8.811073 -108.849937
v 51.560188 -6.879911 -109.482757
v 53.727869 -7.618761 -109.407165
v 56.060542 -8.335391 -109.600952
v 77.752470 9.044873 -101.499697
v 73.812019 10.966271 -101.218042
v 70.179229 12.198860 -100.906204
v 69.335083 7.780331 -100.996438
v 66.838790 13.309666 -100.708092
v 66.048781 8.885144 -100.700196
v 63.640500 14.264992 -100.429284
v 62.815674 9.885791 -100.413987
v 62.092964 5.555376 -100.618462
v 58.908531 6.367930 -100.397957
v 72.818725 6.475030 -101.160088
v 76.553756 4.680371 -101.056504
v 80.233870 2.209521 -101.777415
v 65.208228 4.578252 -100.811707
v 68.344940 3.529387 -100.654794
v 71.621650 2.500887 -100.393580
v 74.931107 0.778177 -100.744881
v 78.156700 -1.296133 -101.958680
v 80.821099 -3.762509 -103.964194
v 58.457685 2.229127 -101.451843
v 61.444425 1.529451 -101.464975
v 64.393462 0.757335 -101.589616
v 67.333120 -0.156817 -101.832788
v 70.317192 -1.101157 -102.104279
v 73.288849 -2.328135 -102.719222
v 76.144661 -3.869771 -103.756575
v 78.749855 -5.778005 -105.133673
v 69.106750 -3.886243 -104.454955
v 71.843854 -4.848445 -105.006598
v 74.489616 -6.050461 -105.777098
v 76.970642 -7.477667 -106.755645
v 79.214828 -9.061393 -107.890617
v 114.644685 4.847092 -126.360525
v 113.841205 3.806972 -123.146355
v 111.494693 3.043999 -120.736925
v 113.136365 9.284610 -125.885685
v 113.129145 7.979007 -123.677265
v 109.232725 -18.532519 -135.357655
v 103.556409 -23.098979 -138.415337
v 106.446625 1.122949 -117.615135
v 108.051069 -2.056907 -119.197494
v 104.161881 -0.246939 -116.414184
v 106.061993 -3.819479 -118.266890
v 108.386629 -7.521051 -120.509917
v 110.499089 -11.084639 -124.152911
v 100.156597 2.139754 -113.478058
v 101.867997 -1.591823 -115.210403
v 103.941769 -5.487203 -117.236130
v 106.345425 -9.642549 -119.659367
v 97.707797 1.124627 -112.085227
v 99.518145 -2.807903 -113.951615
v 101.663813 -6.900943 -116.059180
v 95.210225 0.177199 -110.683761
v 97.125865 -3.893813 -112.642051
v 90.966661 3.525831 -107.389579
v 92.688281 -0.752299 -109.263633
v 88.183921 2.613599 -105.801650
v 105.854701 16.650985 -117.215942
v 102.733149 18.158470 -118.464058
v 103.476693 16.607294 -116.202133
v 99.642381 19.534295 -120.465443
v 100.098153 18.408594 -117.465462
v 100.891521 16.492861 -115.128950
v 96.640123 20.852957 -122.988631
v 96.839311 19.905699 -119.625695
v 97.388925 18.667204 -116.436156
v 98.234237 16.457066 -113.930694
v 93.493157 21.763119 -125.743959
v 93.754807 21.440225 -122.215367
v 94.008785 20.238115 -118.751496
v 94.637279 18.824078 -115.369627
v 95.492745 16.328279 -112.803367
v 90.231525 22.712969 -128.490923
v 90.686377 22.857071 -125.041243
v 90.853165 21.899754 -121.470917
v 91.176009 20.566212 -117.863157
v 91.872937 19.028093 -114.273445
v 92.707497 16.182549 -111.647194
v 93.951055 12.853246 -109.767517
v 86.707327 23.540049 -131.038423
v 87.311341 23.777758 -127.799143
v 87.744173 23.531214 -124.322267
v 87.948619 22.299181 -120.740449
v 88.339007 20.895150 -116.974586
v 89.079269 19.323517 -113.164437
v 89.859541 16.083417 -110.501966
v 91.149849 12.548582 -108.370483
v 82.993543 24.456112 -133.310055
v 83.688759 24.633402 -130.295027
v 84.361091 24.820273 -127.061137
v 84.783437 24.164591 -123.623385
v 85.051993 22.781443 -119.997177
v 85.476237 21.243414 -116.124436
v 86.215043 19.522132 -112.116369
v 86.922629 16.062652 -109.381332
v 88.145251 12.311750 -107.064338
v 79.157738 25.442509 -135.356033
v 79.872033 25.593910 -132.479753
v 80.625147 25.750116 -129.488233
v 81.313217 25.640174 -126.262189
v 81.915205 25.124680 -122.761047
v 82.139771 23.401255 -119.248177
v 82.554297 21.679272 -115.375960
v 83.261807 19.836450 -111.269448
v 83.862213 16.197112 -108.328811
v 84.965301 12.113570 -105.720770
v 43.893949 -7.246743 -114.164879
v 42.351207 -7.719423 -116.328788
v 42.433169 -7.946761 -118.853555
v 53.433471 24.390907 -139.541717
v 50.629152 23.224039 -139.394945
v 49.857621 26.155537 -137.395821
v 48.192966 21.516932 -138.309557
v 47.384952 24.362654 -136.209961
v 47.010443 26.762097 -133.664245
v 45.880747 19.698174 -137.123657
v 44.919479 22.575062 -135.141237
v 44.533343 24.980468 -132.628417
v 44.461385 26.939773 -129.804593
v 43.616871 17.911553 -135.780193
v 42.492905 20.814303 -134.005433
v 42.104701 23.275574 -131.555385
v 42.104115 25.273918 -128.801497
v 41.320549 16.148694 -134.338193
v 40.030507 19.103430 -132.777981
v 39.690861 21.618931 -130.437241
v 38.929765 14.425093 -132.812425
v 37.518897 17.426069 -131.443769
v 36.421097 12.745161 -131.205261
v 115.529997 -0.011683 -125.192321
v 112.973089 -0.331711 -122.028467
v 111.260601 8.352906 -142.841585
v 111.759065 9.001531 -138.747637
v 113.715285 5.911509 -138.219677
v 113.487081 7.200077 -133.959351
v 115.438981 4.402608 -132.560669
v 112.835833 8.908431 -130.352597
v 114.328321 6.866716 -128.703203
v 112.096437 10.605674 -127.532241
v 115.151849 -4.411037 -126.709601
v 113.639429 -8.916663 -127.974585
v 113.387097 -3.984587 -123.148613
v 116.025845 -4.534225 -131.409471
v 114.572641 -8.983995 -132.360671
v 110.600201 0.419985 -146.570637
v 111.210309 -3.489319 -147.028013
v 116.184493 -7.184477 -142.792357
v 111.255745 -7.702231 -147.068193
v 113.998361 -10.930031 -141.615833
v 109.719897 -11.144969 -145.712297
v 111.968517 -13.743657 -140.466189
v 108.354177 -14.461205 -144.324433
v 110.634893 -16.044335 -138.062145
v 107.285033 -17.587031 -142.434377
v 105.649577 -20.263699 -140.232473
v 77.948158 23.530983 -137.690629
v 76.671430 20.812986 -139.072449
v 75.296035 17.975839 -140.514209
v 73.765533 15.035486 -142.030369
v 72.055320 12.008347 -143.624357
v 70.245315 8.578221 -144.600201
v 68.500831 4.769152 -144.544297
v 81.012601 22.156348 -138.443741
v 79.701818 19.396727 -139.846477
v 78.283188 16.531860 -141.305841
v 76.730131 13.571194 -142.854169
v 75.044836 10.502595 -144.465133
v 73.332510 7.046248 -145.461133
v 84.020323 20.859526 -139.155917
v 82.684827 18.067581 -140.574997
v 81.234701 15.185416 -142.060529
v 79.677604 12.215216 -143.623065
v 78.035126 9.139452 -145.217489
v 76.416771 5.725998 -146.292757
v 87.033385 19.649021 -139.823713
v 85.637477 16.811572 -141.268421
v 84.160729 13.913401 -142.777561
v 82.611985 10.940092 -144.348425
v 81.021435 7.881316 -145.940689
v 89.967459 18.410603 -140.504737
v 88.556373 15.588901 -141.951037
v 87.066729 12.684620 -143.477737
v 85.542349 9.706958 -145.051253
v 84.014497 6.667240 -146.657945
v 91.450891 14.370516 -142.638125
v 89.967383 11.466605 -144.172005
v 88.493331 8.482739 -145.749557
v 94.348419 13.152923 -143.331421
v 92.896629 10.250248 -144.865813
v 91.518601 7.253605 -146.451585
v 97.270213 11.940210 -144.023173
v 95.897873 9.042581 -145.555981
v 100.183569 10.724979 -144.716153
v 99.007137 7.884127 -146.221373
v 102.977225 9.589588 -145.364649
v 82.167023 23.913170 -136.144213
v 86.055619 23.344097 -134.086011
v 85.254703 22.892958 -137.015293
v 89.702615 22.462523 -131.721891
v 89.085951 22.252308 -134.789625
v 88.321649 21.975144 -137.767613
v 93.129643 21.592900 -129.146267
v 92.687611 21.391813 -132.372925
v 92.096643 21.171588 -135.458577
v 91.181655 20.476721 -138.404253
v 96.311653 20.665705 -126.437195
v 96.031221 20.469170 -129.791841
v 95.671183 20.311274 -133.023315
v 95.106625 20.088793 -136.145085
v 94.209615 19.505533 -139.164377
v 92.903093 17.211569 -141.165453
v 99.353685 19.787233 -123.759089
v 99.126501 19.571111 -127.113089
v 98.936305 19.344921 -130.430463
v 98.649281 19.159215 -133.676575
v 98.148769 18.993443 -136.846085
v 97.236521 18.428410 -139.906589
v 95.840105 15.969035 -141.858569
v 102.311997 18.845667 -121.322395
v 102.031529 18.738084 -124.490109
v 101.915873 18.489439 -127.750927
v 101.838981 18.223871 -131.042497
v 101.660429 17.996671 -134.322083
v 101.251801 17.837659 -137.562961
v 100.371829 17.281789 -140.665677
v 98.820485 14.741567 -142.549913
v 105.247297 17.814101 -119.385843
v 104.817445 17.883445 -122.138055
v 104.639349 17.723115 -125.127035
v 104.655597 17.434626 -128.291397
v 104.728913 17.115071 -131.568633
v 104.712629 16.823216 -134.906219
v 104.443173 16.608842 -138.270433
v 103.463309 15.889720 -141.466097
v 101.784105 13.413655 -143.298553
v 107.555325 17.007441 -120.155965
v 107.227909 16.908166 -122.723717
v 107.116209 16.687375 -125.559955
v 107.295497 16.347243 -128.629697
v 107.536505 15.900383 -131.907009
v 107.634109 15.262854 -135.287823
v 107.529389 14.842747 -138.807893
v 106.591561 14.203539 -142.194833
v 104.666709 11.965967 -144.115641
v 109.935769 4.038269 -146.229645
v 114.172317 1.286906 -142.562397
v 115.457609 -2.683989 -142.638857
v 117.445817 -1.159861 -136.900525
v 116.672013 -5.650007 -136.823893
v 115.271133 -9.515239 -136.869801
v 43.942455 -6.698339 -125.029923
v 45.472195 -7.455269 -128.463299
v 45.278983 -6.389453 -130.807877
v 47.297743 -8.445171 -131.963607
v 47.348245 -7.240991 -134.162507
v 49.964264 -8.538465 -135.280155
v 48.036003 -5.584515 -135.563541
v 50.510638 -6.347157 -136.485849
v 53.330799 -6.647173 -137.516737
v 50.903473 -3.978935 -136.776721
v 53.478591 -3.785987 -137.843521
v 56.399551 -3.436951 -139.102085
v 38.283399 0.195307 -122.265809
v 39.205777 -1.853275 -119.539407
v 41.092943 -5.772287 -119.839577
v 36.206943 4.517979 -123.021057
v 45.293597 -5.341327 -133.113051
v 46.104157 -3.938483 -134.930483
v 43.624435 -5.410963 -127.272483
v 43.392265 -4.270657 -129.682647
v 43.339603 -3.266453 -132.190349
v 44.237715 -1.935763 -134.345005
v 42.597001 -6.634967 -121.798177
v 42.080437 -5.083573 -123.668999
v 41.703709 -3.564585 -125.924903
v 41.478899 -2.198479 -128.428253
v 41.394101 -1.089697 -131.133541
v 40.304203 -3.701303 -121.841307
v 39.762813 -1.849407 -124.280717
v 39.388827 -0.241679 -126.982453
v 39.341889 1.162885 -129.860795
v 37.665791 2.050101 -125.161323
v 37.258151 3.660352 -128.303589
v 94.744549 -24.969711 -123.450493
v 95.644343 -25.356831 -126.310353
v 92.264931 -24.708899 -127.450763
v 92.498725 -24.983587 -130.755015
v 88.794615 -24.209315 -131.062991
v 84.826195 -23.568631 -134.175891
v 81.100047 -21.835787 -136.772801
v 77.848899 -19.158363 -138.929969
v 74.924888 -15.984499 -140.689813
v 72.395498 -12.075887 -141.569193
v 69.753782 -7.874867 -142.218465
v 66.672172 -3.356023 -142.842561
v 47.806916 -2.492157 -135.916425
v 50.124914 -1.643169 -136.843341
v 52.855846 -0.916277 -137.754565
v 55.755838 -0.121271 -139.082913
v 58.984274 0.900055 -140.569429
v 46.268119 -0.432889 -135.490085
v 48.624176 0.738937 -136.739817
v 51.406901 1.877621 -137.603413
v 54.308418 3.078856 -138.654981
v 44.390517 1.843230 -134.937167
v 46.817037 3.256177 -136.252801
v 49.380043 4.591544 -137.572117
v 39.920211 2.520563 -132.732087
v 42.259147 4.267138 -134.287613
v 37.726845 5.038234 -131.665499
v 106.873213 -21.714123 -133.367933
v 102.249769 6.934149 -146.776969
v 101.942209 4.011854 -148.338289
v 98.139133 4.879556 -147.818729
v 94.699879 6.030945 -147.152433
v 101.655857 0.840369 -150.033449
v 97.362581 1.741090 -149.489181
v 93.589799 2.932409 -148.796661
v 90.199425 4.186512 -148.076001
v 87.048415 5.437630 -147.360373
v 101.303781 -2.642775 -151.894665
v 96.555399 -1.579727 -151.123749
v 92.508469 -0.321977 -150.303101
v 88.939599 0.936133 -149.442729
v 85.687011 2.161079 -148.584985
v 82.574911 3.356562 -147.793829
v 79.497427 4.527884 -147.061605
v 100.586589 -6.804883 -152.295457
v 95.796333 -5.270969 -151.251329
v 91.647339 -3.895345 -150.346009
v 87.926779 -2.624377 -149.638297
v 84.595925 -1.427495 -148.709213
v 81.402783 -0.267957 -147.885173
v 78.242408 0.868133 -147.152673
v 75.078085 2.020684 -146.317617
v 71.851011 3.306458 -145.456065
v 99.796945 -10.272171 -150.544173
v 95.167485 -8.710103 -149.933761
v 91.066185 -7.296185 -149.152877
v 87.353921 -6.037693 -148.422565
v 83.905699 -4.898711 -147.733597
v 80.608192 -3.808815 -147.075057
v 77.371290 -2.742479 -146.401469
v 74.101241 -1.667339 -145.686977
v 70.720871 -0.526553 -144.920461
v 67.075187 0.746999 -144.002765
v 98.936309 -13.610841 -148.903409
v 94.512153 -11.984789 -148.342913
v 90.468457 -10.615713 -147.768129
v 86.793907 -9.367591 -147.073301
v 83.356273 -8.238649 -146.384125
v 80.054946 -7.185569 -145.711497
v 76.806349 -6.181731 -145.038041
v 73.537063 -5.211411 -144.346297
v 98.147977 -16.880147 -147.247457
v 93.804261 -15.214419 -146.727505
v 89.846197 -13.823465 -146.198093
v 86.192379 -12.624391 -145.630557
v 82.754777 -11.545565 -145.029925
v 79.469595 -10.525153 -144.350857
v 97.130933 -19.999583 -145.482393
v 92.955397 -18.382807 -145.098345
v 89.117269 -16.974795 -144.611061
v 85.521855 -15.784007 -144.098301
v 96.014133 -23.218635 -143.863321
v 92.016813 -21.520763 -143.456873
v 108.818193 2.277681 -119.037498
v 110.172421 -0.678189 -120.318977
v 109.999753 -5.142149 -121.023751
v 82.994163 -1.214263 -103.872007
v 81.100387 -7.906017 -106.722786
v 83.299355 -6.587997 -105.804847
v 85.498717 -4.778157 -105.949629
v 81.037017 -10.813303 -109.209808
v 83.072067 -10.210985 -108.499519
v 85.340115 -9.328741 -108.100591
v 87.760191 -8.300917 -108.026541
v 82.088359 -12.827281 -110.827041
v 84.528589 -12.648569 -110.439085
v 87.094413 -12.404745 -109.983520
v 89.767277 -11.861327 -109.928818
v 85.515953 -15.172365 -112.432899
v 88.354835 -15.271573 -112.206671
v 91.232879 -15.186037 -112.359642
v 89.107351 -18.450595 -113.872550
v 92.235111 -18.833767 -113.838583
v 92.516311 -22.319783 -115.545227
v 108.223869 -13.905269 -123.351521
v 109.446045 -18.584607 -127.910897
v 103.992749 -11.270841 -118.482193
v 105.749329 -15.861287 -121.779227
v 106.381013 -20.772775 -125.764885
v 99.291469 -8.068097 -114.777128
v 101.502749 -12.463059 -117.107315
v 94.723067 -4.902469 -111.311721
v 56.413872 19.200314 -140.693001
v 59.497253 12.074267 -141.419269
v 33.382719 16.930165 -124.972935
v 37.450053 23.372421 -122.554999
v 71.587392 26.582966 -135.805767
v 68.161581 28.237616 -135.077747
v 64.540542 29.242543 -134.191759
v 60.862587 30.433489 -133.159347
v 63.721573 27.298281 -136.486681
v 60.190886 28.850743 -135.932241
v 56.540146 29.533091 -135.316745
v 59.688854 26.158696 -137.723605
v 56.384107 27.202452 -137.737641
v 67.103804 25.562151 -136.723041
v 62.870073 24.493401 -137.720481
v 59.090114 23.437979 -138.911005
v 56.290218 24.510249 -139.019709
v 74.813698 25.021479 -136.830821
v 73.576667 22.326986 -138.247069
v 70.397208 23.910063 -137.384889
v 72.263816 19.512615 -139.678041
v 69.177650 21.112270 -138.808637
v 66.028005 22.738629 -137.995285
v 70.784132 16.609232 -141.152421
v 67.797538 18.280720 -140.247469
v 64.816901 19.969938 -139.333481
v 61.880329 21.721336 -138.797441
v 69.066711 13.646372 -142.703785
v 66.151283 15.454686 -141.699301
v 63.318494 17.319676 -140.683717
v 60.601101 19.203280 -139.974509
v 58.156509 21.032369 -139.833617
v 67.148460 10.372500 -143.707737
v 64.186796 12.507720 -142.791949
v 61.444490 14.739568 -141.727085
v 58.825964 16.973529 -140.971513
v 65.156897 6.633834 -143.479617
v 62.230344 9.309446 -142.407457
v 52.264682 32.868382 -129.183193
v 49.129995 32.331067 -128.658995
v 49.687293 32.890553 -125.290685
v 46.697047 30.435564 -127.839399
v 47.272043 31.205018 -124.638389
v 44.413447 28.625674 -126.892335
v 44.977187 29.544727 -123.850303
v 46.111739 29.761239 -121.068167
v 42.231607 26.848067 -125.853883
v 37.317863 20.050346 -129.129013
v 40.142999 25.132269 -124.893635
v 77.314346 -12.112397 -110.677411
v 77.158935 -14.093487 -112.311447
v 77.038931 -16.379031 -113.709900
v 74.408798 -13.301225 -111.972219
v 74.110702 -15.586199 -113.487496
v 73.801529 -18.019843 -114.754286
v 73.587074 -19.540043 -117.035721
v 73.468063 -20.146771 -119.704245
v 71.240638 -14.756459 -113.241552
v 70.834358 -17.142215 -114.531853
v 70.532630 -18.814799 -116.709397
v 70.387336 -19.368119 -119.321161
v 70.171943 -19.595367 -122.005123
v 69.816940 -19.706863 -124.771033
v 69.307785 -19.791983 -127.639907
v 68.940343 -19.051487 -130.487655
v 68.417335 -13.926753 -113.014916
v 67.908752 -16.306947 -114.327468
v 67.560278 -17.846247 -116.484650
v 67.297553 -18.725163 -118.934422
v 67.065116 -18.892051 -121.530059
v 66.692900 -18.996271 -124.184593
v 66.187789 -19.073883 -126.924393
v 65.900024 -18.077275 -129.640057
v 65.766249 -16.673019 -132.334397
v 65.602499 -15.319677 -135.240401
v 65.478950 -13.704923 -138.232477
v 65.043532 -15.460725 -114.105179
v 64.597686 -17.043331 -116.192299
v 64.295486 -17.825587 -118.579863
v 63.962700 -18.198327 -121.067985
v 63.561558 -18.278295 -123.621273
v 63.077034 -18.218879 -126.244643
v 62.858196 -17.045323 -128.798585
v 62.708566 -15.687747 -131.417313
v 62.509407 -14.471957 -134.285813
v 62.367943 -13.026305 -137.253221
v 62.718834 -10.190339 -139.207973
v 63.056725 -6.681501 -140.545653
v 63.033826 -2.737123 -141.875817
v 61.646259 -16.416743 -115.815063
v 61.255234 -17.193911 -118.158944
v 60.867948 -17.501259 -120.586837
v 60.422800 -17.555535 -123.062445
v 59.967007 -17.256279 -125.600075
v 59.789661 -15.992611 -127.984985
v 59.582699 -14.787537 -130.550155
v 59.376547 -13.647087 -133.305863
v 59.225624 -12.354291 -136.166025
v 59.416237 -9.883437 -138.284289
v 59.698633 -6.595407 -139.527141
v 58.861269 -15.326759 -115.560491
v 58.308799 -16.296191 -117.735830
v 57.803858 -16.733679 -120.067565
v 57.287569 -16.846903 -122.468951
v 56.918659 -16.157003 -124.860481
v 56.686166 -15.003459 -127.212747
v 56.435508 -13.904197 -129.710403
v 56.226467 -12.811305 -132.339443
v 56.042251 -11.680643 -135.090913
v 56.189257 -9.535791 -137.210637
v 55.403034 -15.473365 -117.198242
v 54.752744 -16.059247 -119.454409
v 54.181949 -16.142431 -121.819503
v 53.892853 -15.128861 -124.125099
v 53.599551 -14.066533 -126.475597
v 53.315669 -13.014557 -128.913087
v 53.098104 -11.960471 -131.433075
v 52.919439 -10.896787 -134.016847
v 51.826225 -15.076169 -118.799531
v 51.128450 -15.212811 -121.212317
v 50.902573 -14.185917 -123.470895
v 50.590013 -13.167979 -125.801359
v 50.274653 -12.128431 -128.186231
v 50.044870 -11.100043 -130.626815
v 49.040546 -13.896735 -118.053709
v 48.494977 -13.726921 -120.424401
v 48.200611 -12.923217 -122.758343
v 47.981340 -11.767759 -124.991745
v 47.655591 -10.699137 -127.308057
v 46.325775 -11.824715 -119.657983
v 46.295971 -10.968749 -121.852951
v 46.088983 -9.820111 -123.985245
v 44.540609 -9.237037 -121.103051
v 55.539613 6.907437 -100.727227
v 55.403435 2.857609 -101.947992
v 52.316623 6.681185 -101.957711
v 49.268289 6.205806 -103.297042
v 36.624271 21.934788 -120.086381
v 35.230511 17.067452 -120.106427
v 36.820185 19.628559 -117.809692
v 34.573243 12.034562 -120.172713
v 35.833389 14.688039 -117.884987
v 37.473403 17.187012 -115.720373
v 35.859755 7.168145 -120.449731
v 35.666645 9.747639 -117.900838
v 36.515339 12.391716 -115.634916
v 38.134825 14.851535 -113.599180
v 36.986831 7.704813 -115.616195
v 37.148345 10.240820 -113.336937
v 38.769007 12.624370 -111.479171
v 38.068799 8.175007 -111.206566
v 39.422947 10.552925 -109.427161
v 40.231491 8.698549 -107.602973
v 42.705351 27.858051 -122.793167
v 44.113777 28.374659 -120.244897
v 52.463247 0.143861 -104.780150
v 52.224564 -2.527227 -106.435735
v 49.617557 -2.139801 -107.376495
v 49.529493 -4.417239 -108.736473
v 49.515567 -6.394689 -109.889333
v 46.937245 -2.088719 -108.545074
v 47.124453 -4.405677 -109.804870
v 47.552469 -6.540073 -110.858709
v 44.758091 -4.582151 -111.334061
v 42.469151 -4.666483 -113.432976
v 54.449608 21.609003 -140.490969
v 56.834782 14.730345 -140.808137
v 54.258308 17.337161 -140.711729
v 52.017002 20.144247 -140.618349
v 60.036344 6.409481 -141.351345
v 57.401258 9.685602 -140.433153
v 54.707985 12.643771 -139.966633
v 52.046458 15.454579 -139.986005
v 49.731996 18.423514 -139.634349
v 57.218845 4.486898 -139.994617
v 54.966694 7.739667 -139.234901
v 52.312957 10.687034 -139.239077
v 49.777204 13.613698 -138.993549
v 47.544805 16.620529 -138.385469
v 52.187881 6.075323 -138.415477
v 49.807750 8.964883 -138.214325
v 47.460102 11.887301 -137.740997
v 45.332237 14.874991 -136.981433
v 47.260442 7.386851 -137.027673
v 45.057253 10.226071 -136.402105
v 42.986685 13.153363 -135.586885
v 44.752009 5.864376 -135.659229
v 42.565433 8.573457 -135.023361
v 40.586025 11.444982 -134.064823
v 40.018557 6.859708 -133.566741
v 38.068879 9.710108 -132.467343
v 35.873215 7.944989 -130.258577
v 34.850505 15.884664 -129.863479
v 34.349045 11.036115 -129.191803
v 34.486233 9.340741 -122.851313
v 33.134517 11.843315 -124.844699
v 33.754565 14.500050 -122.448913
v 34.999887 19.336058 -122.397435
v 39.919869 23.596298 -127.769593
v 37.881217 22.041935 -126.629951
v 34.911349 18.744526 -127.394073
v 32.409185 13.969568 -127.598715
v 35.981929 20.994067 -124.733447
v 96.498421 -14.117275 -114.168989
v 97.990061 -18.287411 -116.173042
v 98.770957 -22.411791 -118.090622
v 97.228913 -24.796559 -121.086831
v 59.439072 10.803195 -100.132370
v 40.831835 5.191807 -107.260023
v 43.502831 5.203232 -105.852127
v 46.348517 5.690730 -104.624557
v 40.994739 2.883295 -108.761877
v 43.784943 2.736338 -107.156463
v 46.671291 2.946852 -105.744077
v 49.554256 3.117108 -104.356543
v 52.468304 3.143934 -103.076086
v 41.363235 0.510635 -110.442818
v 43.968417 0.242039 -108.550682
v 46.846979 0.373357 -107.157773
v 49.677403 0.381721 -105.887601
v 41.788237 -1.987797 -112.108756
v 44.231935 -2.196419 -110.017723
v 96.444925 -25.747887 -129.606415
v 96.830569 -26.066939 -133.334853
v 96.009547 -26.169959 -137.454665
v 95.120853 -25.989175 -141.368609
v 92.375447 -25.194259 -134.245409
v 91.752341 -25.259411 -137.869189
v 91.263511 -24.436363 -141.354205
v 88.440673 -24.362683 -134.439455
v 87.888621 -24.290315 -137.850861
v 87.732659 -22.792755 -140.952317
v 88.312477 -20.069091 -143.026961
v 84.374259 -23.070511 -137.435733
v 84.308119 -21.486427 -140.413057
v 84.790237 -18.861399 -142.542621
v 81.015687 -20.287395 -139.735349
v 81.407123 -17.830463 -142.021145
v 82.102461 -14.741135 -143.557785
v 78.104132 -16.906987 -141.475673
v 78.802886 -13.788657 -142.973161
v 75.588476 -12.889597 -142.291721
v 76.241806 -9.576157 -143.664721
v 73.017105 -8.692931 -142.956297
v 70.179883 -4.258823 -143.622357
v 92.112083 -23.953679 -118.347738
v 91.677981 -24.169279 -121.361915
v 91.895305 -24.418203 -124.339601
v 89.267947 -21.603475 -115.485916
v 89.054525 -23.317663 -118.115197
v 88.900465 -23.567031 -121.277775
v 88.882483 -23.781367 -124.487579
v 88.905769 -24.007583 -127.743865
v 86.040505 -18.055943 -113.896498
v 86.145005 -20.922083 -115.308777
v 86.009149 -22.672615 -117.949073
v 85.909957 -22.913779 -121.111593
v 85.795349 -23.107231 -124.320789
v 85.621489 -23.291087 -127.576725
v 85.308807 -23.447379 -130.866089
v 82.706915 -15.067991 -112.511953
v 83.012609 -17.636535 -113.905387
v 83.031371 -20.300927 -115.223846
v 82.891121 -21.898715 -117.788711
v 82.829861 -22.234679 -120.850943
v 82.676185 -22.413859 -123.973935
v 82.400801 -22.571359 -127.160445
v 81.976935 -22.699611 -130.388043
v 81.418197 -22.800475 -133.639969
v 79.723557 -12.766629 -110.993461
v 79.931555 -14.713377 -112.537727
v 80.010613 -17.087651 -113.848305
v 79.922707 -19.603999 -115.101029
v 79.794976 -21.139631 -117.589041
v 79.714646 -21.542299 -120.503961
v 79.545158 -21.710691 -123.518695
v 79.223051 -21.851559 -126.612801
v 78.743202 -21.962867 -129.766083
v 78.206848 -21.796491 -132.957839
v 77.935301 -20.707187 -135.992815
v 76.842840 -18.829251 -114.937645
v 76.642868 -20.461507 -117.297598
v 76.587372 -20.843591 -120.104821
v 76.413223 -21.003927 -123.011917
v 76.072449 -21.133999 -126.006595
v 75.566427 -21.234671 -129.086975
v 74.968474 -21.127991 -132.278091
v 74.849914 -19.655979 -135.121385
v 74.747368 -18.132799 -138.056809
v 73.287888 -20.297863 -122.499373
v 72.940542 -20.419039 -125.380311
v 72.437881 -20.482215 -128.352261
v 71.929581 -20.118511 -131.394315
v 71.810683 -18.652531 -134.199741
v 71.704940 -17.137879 -137.114833
v 71.773885 -15.186869 -139.885041
v 68.790718 -17.664211 -133.266129
v 68.659339 -16.208375 -136.176761
v 68.522299 -14.580795 -139.146105
v 69.190886 -11.348135 -140.822873
v 65.972403 -10.680065 -140.052233
v 66.429908 -7.153867 -141.433377
v 106.736797 14.305192 -116.659157
v 107.430001 11.677298 -117.335952
v 104.378765 14.039897 -115.240324
v 105.078593 11.116984 -115.833495
v 106.072885 8.202277 -116.732580
v 107.358153 5.260676 -117.825768
v 101.810765 13.695363 -113.993781
v 102.657365 10.586088 -114.282501
v 103.646241 7.438193 -115.197492
v 104.938997 4.290164 -116.312796
v 99.301057 13.460068 -112.567421
v 100.190289 10.064881 -112.700576
v 101.206685 6.634731 -113.657333
v 102.579213 3.213681 -114.848074
v 97.696561 9.532540 -111.102164
v 98.749133 5.820882 -112.106163
v 95.142517 9.014432 -109.462280
v 96.239565 5.031214 -110.551742
v 92.474129 8.506998 -107.820037
v 93.653435 4.277536 -108.983154
v 89.727295 8.061634 -105.977872
v 86.605103 7.471339 -104.197700
v 77.416174 26.645561 -128.609237
v 78.198860 26.471113 -125.417305
v 78.926497 26.001336 -121.940087
v 79.285025 24.390531 -118.393614
v 79.607620 22.404186 -114.653297
v 80.161552 20.249386 -110.680641
v 80.639770 16.667659 -107.464386
v 81.462653 12.295021 -104.544219
v 74.994613 27.304322 -124.510003
v 75.858726 26.937427 -121.071793
v 76.328591 25.439427 -117.558213
v 76.668412 23.478163 -113.886702
v 77.048118 21.172427 -110.065979
v 77.271964 17.603406 -106.919006
v 77.630140 13.504326 -104.037361
v 73.263229 26.528003 -116.694573
v 73.626043 24.608786 -113.131887
v 73.777450 21.964461 -109.694571
v 73.889030 18.705860 -106.500426
v 73.943069 14.889919 -103.716567
v 70.375472 25.406054 -112.487793
v 70.455222 22.663906 -109.341056
v 70.525169 19.656051 -106.159536
v 70.472709 16.100039 -103.345878
v 67.230887 20.456787 -105.763786
v 67.178527 17.142688 -102.944441
v 109.407457 15.588550 -123.041509
v 109.219761 15.291935 -125.732841
v 109.335473 14.563945 -128.647675
v 109.627901 13.642064 -131.828995
v 109.808357 12.706364 -135.279267
v 109.787981 12.052242 -138.974429
v 109.403277 11.772056 -142.793753
v 107.214677 10.274766 -145.243625
v 110.543809 13.391770 -125.695969
v 110.814093 12.468628 -128.319197
v 111.259625 11.194353 -131.341735
v 111.635937 9.938455 -134.839945
v 111.977261 11.441504 -124.002371
v 110.624357 13.114498 -120.930817
v 111.926289 10.706705 -121.843421
v 108.653057 14.813001 -118.356805
v 109.679973 12.404755 -118.757614
v 110.585585 9.764468 -119.861281
v 112.263621 7.032006 -121.153731
v 108.463757 8.945099 -118.245797
v 109.867025 6.098128 -119.408747
v 57.436441 16.063868 -99.660195
v 60.481325 15.109628 -100.053574
v 39.099429 24.179407 -118.203398
v 39.301823 21.742425 -115.963751
v 42.102125 23.372679 -114.278250
v 39.867039 19.276510 -113.947265
v 42.615509 21.013069 -112.375015
v 45.316635 22.703102 -110.819670
v 40.487425 16.895930 -111.929672
v 43.174599 18.645098 -110.423093
v 45.853801 20.347878 -108.903196
v 41.129845 14.576143 -109.927625
v 43.757193 16.265525 -108.448112
v 46.406737 17.905116 -106.938856
v 49.050476 19.578835 -105.481918
v 41.772233 12.338159 -107.979248
v 44.333111 13.874427 -106.492736
v 46.948169 15.368273 -104.956870
v 49.562721 16.942399 -103.468419
v 52.121242 18.627480 -102.096749
v 42.355713 10.188939 -106.159576
v 44.888537 11.408047 -104.680938
v 47.482082 12.609701 -103.141006
v 50.328136 14.008259 -101.745087
v 53.083890 15.530888 -100.605171
v 47.086421 28.459613 -113.485701
v 50.154647 28.509228 -110.293395
v 50.582523 26.350708 -108.037405
v 51.167724 23.902510 -106.059370
v 54.386119 24.974928 -105.639525
v 54.810596 22.524187 -103.424506
v 57.749954 21.963867 -104.230674
v 54.975468 19.803723 -101.509682
v 57.938472 19.439603 -101.577187
v 41.860181 25.595499 -116.276733
v 42.595417 27.076127 -118.580156
v 44.798061 24.960303 -112.666732
v 44.404591 26.983977 -114.528892
v 44.878095 28.014116 -116.780677
v 48.512771 22.090744 -107.446104
v 47.959603 24.475964 -109.372312
v 47.382825 26.734169 -111.272278
v 51.661006 21.319489 -104.094580
v 39.259825 6.431660 -109.149803
v 38.225489 5.789056 -113.332380
v 39.415373 4.090998 -111.027053
v 37.202433 5.194770 -117.920944
v 38.501429 3.319600 -115.431379
v 39.739871 1.642112 -112.917539
v 37.477241 2.628804 -120.146089
v 38.825459 0.745095 -117.482741
v 40.136295 -1.015285 -114.817475
v 58.500175 -9.043729 -109.873741
v 69.673225 -9.552069 -109.229744
v 105.612185 6.672753 -147.078973
v 106.139809 3.810516 -148.385801
v 106.485533 0.476173 -149.697301
v 106.660361 -3.344613 -150.746669
v 106.230521 -7.640185 -150.741257
v 104.862697 -11.168253 -149.203137
v 103.857117 -14.513873 -147.534149
v 102.895245 -17.756739 -145.837741
v 101.823017 -21.053679 -144.320857
v 100.464785 -24.226543 -142.856753
v 113.306053 -13.313551 -134.097109
v 108.952753 7.399426 -145.915681
v 112.785021 4.901845 -142.646057
v 115.752077 2.665159 -137.532441
v 44.302875 -8.045273 -122.999509
v 45.756621 -8.620439 -126.181287
v 47.463723 -9.512029 -129.623415
v 49.844047 -10.074515 -133.089019
v 52.960777 -9.217905 -136.300861
v 56.436169 -6.647469 -138.489545
v 59.606640 -2.989061 -140.465913
v 112.208513 -7.514585 -123.850999
v 90.183185 -1.778323 -107.871932
v 96.892515 -9.068163 -113.447576
v 103.309245 -17.123567 -119.808969
v 85.360539 1.222803 -104.481741
v 87.780287 -3.088913 -106.650342
v 90.027045 -7.043493 -108.871475
v 92.194811 -10.931249 -110.851722
v 94.019461 -14.807967 -112.804138
v 95.300241 -18.741595 -114.537031
v 95.904091 -22.670215 -116.124739
v 94.957305 -24.652155 -119.016080
v 100.445589 -25.338171 -137.102801
v 96.734093 13.279538 -111.013359
v 109.534265 15.477663 -120.503229
v 110.732317 13.538877 -123.290145
v 45.623627 -6.932431 -112.249313
v 51.792986 10.483711 -101.616715
v 48.653762 9.463406 -102.927893
v 45.759783 8.568881 -104.163329
v 43.098069 7.784914 -105.237937
v 42.172293 0.210439 -133.687425
v 54.900154 32.714447 -129.404037
v 41.239077 7.207245 -106.500936
v 45.371237 28.706995 -118.470602
v 55.457420 11.873627 -100.075859
v 111.524789 11.860682 -125.650973
v 38.491985 23.560381 -124.659759
v 55.027191 17.388577 -99.870890
v 33.876767 9.816555 -126.848963
v 35.332859 6.844715 -126.253007
v 107.738589 16.685214 -118.118759
v 39.970337 26.098923 -121.216027
v 56.281330 22.417319 -139.803789
v 111.965045 -14.578731 -129.731385
v 56.794799 31.488028 -131.942869
v 82.759337 6.516921 -101.997635
v 79.520240 -11.299049 -109.770635
v 111.149197 -3.194059 -121.376907
v 62.909245 2.350525 -142.388713
v 93.842945 -24.632887 -121.342695
v 116.667021 0.696149 -130.328995
v 98.801665 -26.120411 -140.877049
v 105.233625 8.819901 -146.006397
v 40.745343 -4.232365 -116.705650
v 114.198921 -12.493829 -137.056749
v 48.910789 -4.052029 -136.135005
v 102.499797 -23.836871 -131.479093
v 43.165959 -7.924683 -120.559487
v 49.598531 -7.849445 -110.738144
# 1063 uv coords
vt 0.585347 0.912956
vt 0.581996 0.883821
vt 0.549280 0.860783
vt 0.579870 0.856078
vt 0.549164 0.833115
vt 0.578658 0.829909
vt 0.521464 0.808312
vt 0.550014 0.807295
vt 0.578545 0.805264
vt 0.496630 0.782952
vt 0.523995 0.783249
vt 0.551811 0.782961
vt 0.579580 0.781913
vt 0.500418 0.758968
vt 0.527346 0.759756
vt 0.554533 0.760073
vt 0.581535 0.759771
vt 0.478197 0.735435
vt 0.504447 0.737017
vt 0.531137 0.737900
vt 0.557849 0.738429
vt 0.584111 0.738540
vt 0.456500 0.712681
vt 0.482006 0.715069
vt 0.508227 0.716569
vt 0.534825 0.717152
vt 0.561222 0.717536
vt 0.586871 0.717765
vt 0.459886 0.692978
vt 0.485178 0.695652
vt 0.511415 0.697092
vt 0.538121 0.696828
vt 0.564481 0.696908
vt 0.589935 0.696776
vt 0.634971 0.693801
vt 0.613109 0.698497
vt 0.675960 0.698245
vt 0.656295 0.706775
vt 0.634654 0.713636
vt 0.611386 0.717485
vt 0.693120 0.710104
vt 0.675664 0.719499
vt 0.655885 0.727578
vt 0.633607 0.733874
vt 0.609520 0.737518
vt 0.697568 0.727237
vt 0.678170 0.739080
vt 0.656647 0.747993
vt 0.633047 0.754473
vt 0.607833 0.758211
vt 0.682017 0.758246
vt 0.658554 0.768565
vt 0.633245 0.775586
vt 0.606817 0.779724
vt 0.660810 0.789556
vt 0.634252 0.797177
vt 0.606733 0.801995
vt 0.663869 0.810923
vt 0.636159 0.819470
vt 0.607719 0.825521
vt 0.638720 0.842651
vt 0.609733 0.850204
vt 0.612771 0.876203
vt 0.617417 0.903613
vt 0.607029 0.621172
vt 0.636108 0.627097
vt 0.614733 0.639848
vt 0.665072 0.633094
vt 0.644455 0.645987
vt 0.622229 0.658466
vt 0.437919 0.153517
vt 0.413544 0.152972
vt 0.526030 0.188617
vt 0.504325 0.183053
vt 0.481768 0.178293
vt 0.458420 0.174518
vt 0.434429 0.171870
vt 0.595219 0.229471
vt 0.579426 0.223437
vt 0.561405 0.217376
vt 0.541948 0.211521
vt 0.521385 0.205986
vt 0.499896 0.200797
vt 0.477554 0.196162
vt 0.609558 0.245135
vt 0.593853 0.242208
vt 0.576588 0.237467
vt 0.557995 0.232386
vt 0.538292 0.227269
vt 0.517582 0.222418
vt 0.496037 0.217507
vt 0.612532 0.258655
vt 0.594393 0.255675
vt 0.575436 0.251476
vt 0.555864 0.247039
vt 0.535665 0.242410
vt 0.614664 0.273332
vt 0.595154 0.269772
vt 0.575067 0.265796
vt 0.554783 0.261436
vt 0.614809 0.288226
vt 0.595183 0.283911
vt 0.613231 0.301894
vt 0.206641 0.970273
vt 0.149815 0.224180
vt 0.166166 0.254383
vt 0.186013 0.279881
vt 0.170147 0.308669
vt 0.210665 0.296078
vt 0.203144 0.321783
vt 0.616927 0.161223
vt 0.595103 0.147485
vt 0.571732 0.136425
vt 0.547355 0.127500
vt 0.521998 0.120482
vt 0.603528 0.178203
vt 0.582995 0.166786
vt 0.561237 0.157379
vt 0.538593 0.149525
vt 0.515136 0.143030
vt 0.490768 0.138081
vt 0.465548 0.135083
vt 0.439906 0.134248
vt 0.414706 0.135457
vt 0.391504 0.138199
vt 0.610757 0.205446
vt 0.593144 0.194251
vt 0.573717 0.184869
vt 0.553125 0.176850
vt 0.531659 0.169868
vt 0.509355 0.163863
vt 0.486209 0.158994
vt 0.601586 0.217717
vt 0.585078 0.209212
vt 0.566605 0.201661
vt 0.550626 0.042020
vt 0.584851 0.051888
vt 0.617835 0.064990
vt 0.600970 0.090589
vt 0.629876 0.105613
vt 0.514214 0.035540
vt 0.474454 0.034680
vt 0.432570 0.041281
vt 0.570698 0.079300
vt 0.539510 0.070601
vt 0.507315 0.063580
vt 0.472371 0.063113
vt 0.435482 0.068197
vt 0.398597 0.079983
vt 0.610605 0.127153
vt 0.585126 0.114116
vt 0.558394 0.103648
vt 0.530223 0.096239
vt 0.500998 0.090853
vt 0.470060 0.089380
vt 0.437998 0.092238
vt 0.405937 0.099439
vt 0.495576 0.115431
vt 0.468002 0.113129
vt 0.439767 0.113937
vt 0.411848 0.117754
vt 0.385567 0.124208
vt 0.105547 0.678137
vt 0.102140 0.714711
vt 0.108940 0.757086
vt 0.140585 0.699146
vt 0.130932 0.713663
vt 0.157464 0.413600
vt 0.206252 0.394748
vt 0.130312 0.826518
vt 0.141215 0.855973
vt 0.049922 0.366730
vt 0.078767 0.389516
vt 0.185282 0.877270
vt 0.153323 0.882970
vt 0.069841 0.329515
vt 0.200702 0.900514
vt 0.166791 0.907528
vt 0.216680 0.922443
vt 0.180958 0.929901
vt 0.269865 0.935404
vt 0.232304 0.943476
vt 0.287744 0.957259
vt 0.216356 0.781043
vt 0.243085 0.781568
vt 0.231084 0.794028
vt 0.270786 0.776279
vt 0.261688 0.794063
vt 0.248008 0.808352
vt 0.298416 0.766030
vt 0.291862 0.786890
vt 0.281725 0.806350
vt 0.266835 0.822904
vt 0.325758 0.752649
vt 0.320858 0.774739
vt 0.313651 0.797262
vt 0.302611 0.818749
vt 0.287015 0.837336
vt 0.352877 0.737344
vt 0.348722 0.759386
vt 0.343593 0.782840
vt 0.336007 0.807037
vt 0.324475 0.830720
vt 0.308233 0.851867
vt 0.286936 0.869653
vt 0.380223 0.721519
vt 0.376208 0.742813
vt 0.371949 0.765554
vt 0.366704 0.790202
vt 0.358995 0.816103
vt 0.347523 0.841898
vt 0.330927 0.865869
vt 0.308909 0.886614
vt 0.407890 0.705651
vt 0.403806 0.725899
vt 0.399823 0.747586
vt 0.395553 0.770837
vt 0.390261 0.796651
vt 0.382791 0.824185
vt 0.371627 0.852434
vt 0.355528 0.879021
vt 0.333458 0.903041
vt 0.435567 0.690229
vt 0.431779 0.709564
vt 0.427861 0.729859
vt 0.423828 0.751714
vt 0.419540 0.775677
vt 0.414528 0.801983
vt 0.407763 0.830573
vt 0.397560 0.860627
vt 0.382662 0.890495
vt 0.360765 0.919402
vt 0.634389 0.276335
vt 0.635575 0.293553
vt 0.630830 0.307863
vt 0.598670 0.603658
vt 0.615021 0.590305
vt 0.626682 0.608196
vt 0.631528 0.575803
vt 0.645165 0.594144
vt 0.656055 0.613267
vt 0.647454 0.560324
vt 0.662978 0.578959
vt 0.675356 0.598885
vt 0.685044 0.620142
vt 0.663453 0.544285
vt 0.680680 0.562975
vt 0.694592 0.583844
vt 0.704910 0.606621
vt 0.679268 0.526932
vt 0.698467 0.545631
vt 0.713983 0.567264
vt 0.694430 0.507576
vt 0.715561 0.525830
vt 0.708106 0.485321
vt 0.194704 0.604997
vt 0.178925 0.625868
vt 0.155794 0.611650
vt 0.144853 0.639263
vt 0.115381 0.627247
vt 0.146610 0.668363
vt 0.123583 0.667269
vt 0.155176 0.693334
vt 0.053851 0.491693
vt 0.077380 0.453325
vt 0.035349 0.451839
vt 0.079826 0.525627
vt 0.096331 0.479822
vt 0.194667 0.553303
vt 0.188833 0.531608
vt 0.147868 0.517894
vt 0.186471 0.507412
vt 0.151130 0.489028
vt 0.188478 0.484269
vt 0.157423 0.465096
vt 0.191365 0.462282
vt 0.155964 0.441220
vt 0.192346 0.440360
vt 0.196099 0.417854
vt 0.439322 0.668728
vt 0.442884 0.646610
vt 0.446828 0.623236
vt 0.451465 0.598577
vt 0.456767 0.572698
vt 0.462081 0.545637
vt 0.466804 0.517295
vt 0.416370 0.665355
vt 0.420602 0.643011
vt 0.425271 0.619590
vt 0.430436 0.594950
vt 0.435867 0.569089
vt 0.440803 0.542227
vt 0.394163 0.661454
vt 0.399009 0.639272
vt 0.404353 0.616002
vt 0.409999 0.591614
vt 0.415593 0.566169
vt 0.420266 0.539874
vt 0.372133 0.657479
vt 0.377894 0.635396
vt 0.383934 0.612377
vt 0.390023 0.588391
vt 0.395754 0.563556
vt 0.350725 0.652744
vt 0.357227 0.631112
vt 0.363896 0.608465
vt 0.370320 0.584984
vt 0.376108 0.560809
vt 0.336948 0.626081
vt 0.344068 0.603999
vt 0.350617 0.581132
vt 0.316813 0.620309
vt 0.324132 0.598919
vt 0.330439 0.576747
vt 0.296605 0.613943
vt 0.303695 0.593278
vt 0.276459 0.606927
vt 0.282401 0.587322
vt 0.257054 0.599993
vt 0.412074 0.685953
vt 0.384522 0.701582
vt 0.389082 0.681991
vt 0.356906 0.716676
vt 0.361429 0.697197
vt 0.366765 0.678430
vt 0.329700 0.731268
vt 0.333823 0.711118
vt 0.338757 0.691838
vt 0.344897 0.672484
vt 0.302913 0.744954
vt 0.306663 0.724416
vt 0.310876 0.704806
vt 0.316196 0.685909
vt 0.322813 0.667088
vt 0.329665 0.647365
vt 0.276452 0.756825
vt 0.280260 0.736597
vt 0.283719 0.716739
vt 0.287938 0.697561
vt 0.293589 0.679046
vt 0.300963 0.660676
vt 0.308785 0.640804
vt 0.250520 0.765526
vt 0.254983 0.746992
vt 0.257953 0.727649
vt 0.260890 0.708278
vt 0.264917 0.689343
vt 0.270781 0.671036
vt 0.278692 0.653257
vt 0.287840 0.633781
vt 0.225774 0.769799
vt 0.231110 0.754595
vt 0.234138 0.737192
vt 0.236014 0.718493
vt 0.238180 0.699284
vt 0.241751 0.680228
vt 0.247773 0.661725
vt 0.257031 0.643961
vt 0.267122 0.625468
vt 0.208953 0.759671
vt 0.212093 0.745094
vt 0.213910 0.728369
vt 0.214416 0.709843
vt 0.215623 0.690226
vt 0.218364 0.670441
vt 0.224539 0.651170
vt 0.235199 0.633551
vt 0.246933 0.616141
vt 0.203264 0.572292
vt 0.161514 0.569638
vt 0.150889 0.545877
vt 0.114371 0.566400
vt 0.112301 0.527313
vt 0.120512 0.492153
vt 0.618912 0.346195
vt 0.601140 0.360788
vt 0.600552 0.377351
vt 0.580395 0.373624
vt 0.579082 0.389176
vt 0.559084 0.388244
vt 0.577304 0.403373
vt 0.559455 0.404723
vt 0.540693 0.408965
vt 0.562632 0.420506
vt 0.546181 0.427678
vt 0.527896 0.436440
vt 0.680537 0.358006
vt 0.672359 0.332304
vt 0.645012 0.321008
vt 0.707354 0.382359
vt 0.598135 0.393417
vt 0.593919 0.408482
vt 0.620888 0.363508
vt 0.620414 0.381263
vt 0.617240 0.398821
vt 0.611349 0.415486
vt 0.631340 0.329053
vt 0.637130 0.345486
vt 0.640475 0.364261
vt 0.640688 0.383965
vt 0.637340 0.403663
vt 0.654620 0.340292
vt 0.660243 0.362164
vt 0.661827 0.384981
vt 0.658985 0.407634
vt 0.684145 0.384551
vt 0.682683 0.411451
vt 0.241331 0.282899
vt 0.237883 0.302794
vt 0.263414 0.301971
vt 0.265662 0.322181
vt 0.291363 0.318363
vt 0.320682 0.334160
vt 0.348004 0.350429
vt 0.372776 0.368530
vt 0.395568 0.388290
vt 0.417086 0.410149
vt 0.439458 0.433823
vt 0.464817 0.459160
vt 0.586410 0.422403
vt 0.573288 0.433507
vt 0.557292 0.444380
vt 0.539663 0.456298
vt 0.520424 0.470389
vt 0.601873 0.431087
vt 0.588784 0.445050
vt 0.573367 0.458714
vt 0.556839 0.473034
vt 0.620325 0.440023
vt 0.607324 0.456103
vt 0.592758 0.471446
vt 0.652140 0.429196
vt 0.641053 0.449066
vt 0.674291 0.436852
vt 0.172133 0.383501
vt 0.260044 0.582184
vt 0.260142 0.563347
vt 0.285933 0.566981
vt 0.309135 0.571902
vt 0.260072 0.543554
vt 0.288475 0.546136
vt 0.313390 0.550028
vt 0.335671 0.553999
vt 0.356287 0.557644
vt 0.259977 0.522392
vt 0.290296 0.524607
vt 0.316432 0.527693
vt 0.339515 0.530868
vt 0.360511 0.533733
vt 0.380502 0.536157
vt 0.400255 0.538079
vt 0.260372 0.500246
vt 0.291069 0.503424
vt 0.317841 0.505861
vt 0.341451 0.507942
vt 0.362729 0.509567
vt 0.382957 0.511027
vt 0.402877 0.512220
vt 0.423138 0.513269
vt 0.444255 0.514950
vt 0.260495 0.480441
vt 0.291170 0.482755
vt 0.317817 0.484320
vt 0.341424 0.485308
vt 0.362938 0.485959
vt 0.383313 0.486483
vt 0.403332 0.486821
vt 0.423751 0.487062
vt 0.445214 0.487471
vt 0.468959 0.488053
vt 0.260791 0.461248
vt 0.290779 0.462560
vt 0.317042 0.462965
vt 0.340391 0.462890
vt 0.361772 0.462595
vt 0.382046 0.462216
vt 0.401934 0.461732
vt 0.422027 0.461112
vt 0.260664 0.442295
vt 0.290214 0.442456
vt 0.315965 0.441764
vt 0.338921 0.440610
vt 0.360054 0.439360
vt 0.380143 0.438139
vt 0.262555 0.423196
vt 0.290327 0.422228
vt 0.314995 0.420528
vt 0.337344 0.418440
vt 0.264591 0.403316
vt 0.290282 0.401538
vt 0.119496 0.794270
vt 0.033855 0.400268
vt 0.390368 0.058562
vt 0.375091 0.110201
vt 0.362403 0.095499
vt 0.349085 0.079997
vt 0.362801 0.133757
vt 0.347101 0.124363
vt 0.328793 0.114605
vt 0.308449 0.104978
vt 0.347014 0.148773
vt 0.325331 0.142893
vt 0.300959 0.137340
vt 0.272471 0.133224
vt 0.311207 0.164257
vt 0.283935 0.163275
vt 0.253665 0.166143
vt 0.276291 0.189219
vt 0.247961 0.196015
vt 0.249749 0.222607
vt 0.100460 0.352532
vt 0.134326 0.373137
vt 0.092911 0.292026
vt 0.121546 0.317072
vt 0.153629 0.338810
vt 0.119431 0.256462
vt 0.194709 0.950603
vt 0.570105 0.579785
vt 0.537717 0.543013
vt 0.765865 0.482735
vt 0.759057 0.614520
vt 0.488030 0.676490
vt 0.514137 0.677905
vt 0.540154 0.676526
vt 0.567250 0.675891
vt 0.540129 0.655992
vt 0.566015 0.655321
vt 0.591011 0.650478
vt 0.563019 0.634849
vt 0.585965 0.630935
vt 0.514777 0.655691
vt 0.539241 0.634846
vt 0.561020 0.615236
vt 0.581028 0.613342
vt 0.463153 0.672484
vt 0.465987 0.650255
vt 0.489924 0.653643
vt 0.469095 0.626947
vt 0.492035 0.630494
vt 0.515542 0.633286
vt 0.473117 0.602497
vt 0.495255 0.606632
vt 0.517617 0.610525
vt 0.539695 0.613610
vt 0.478339 0.576869
vt 0.500206 0.582098
vt 0.521994 0.587568
vt 0.542953 0.592602
vt 0.562070 0.596797
vt 0.484386 0.550288
vt 0.506992 0.557104
vt 0.529147 0.564862
vt 0.550440 0.572409
vt 0.490788 0.521727
vt 0.514472 0.532069
vt 0.631836 0.675226
vt 0.652359 0.665369
vt 0.656272 0.685742
vt 0.672209 0.653862
vt 0.675798 0.675969
vt 0.691985 0.642697
vt 0.695045 0.666312
vt 0.694143 0.689472
vt 0.711990 0.631281
vt 0.733956 0.548569
vt 0.731620 0.618570
vt 0.389891 0.153361
vt 0.385397 0.169567
vt 0.380848 0.186527
vt 0.410005 0.170337
vt 0.405905 0.187630
vt 0.402255 0.205078
vt 0.399701 0.222720
vt 0.398324 0.240475
vt 0.430449 0.189476
vt 0.426736 0.206591
vt 0.423734 0.224002
vt 0.421933 0.241038
vt 0.421399 0.258592
vt 0.422264 0.276981
vt 0.424424 0.296403
vt 0.427133 0.316290
vt 0.454376 0.192327
vt 0.450572 0.209480
vt 0.447411 0.226213
vt 0.445211 0.242761
vt 0.444294 0.259546
vt 0.444686 0.277089
vt 0.446238 0.295539
vt 0.448475 0.314969
vt 0.450782 0.335547
vt 0.452739 0.357488
vt 0.454601 0.380959
vt 0.473710 0.212981
vt 0.470507 0.229500
vt 0.468084 0.245399
vt 0.466979 0.261627
vt 0.467120 0.278405
vt 0.468247 0.295913
vt 0.470122 0.314649
vt 0.471976 0.334505
vt 0.473414 0.355739
vt 0.474646 0.378422
vt 0.476740 0.402250
vt 0.480776 0.428055
vt 0.487570 0.455867
vt 0.492801 0.233728
vt 0.490530 0.249077
vt 0.489421 0.264648
vt 0.489501 0.280792
vt 0.490444 0.297611
vt 0.492090 0.315343
vt 0.493603 0.334193
vt 0.494649 0.354267
vt 0.495379 0.375614
vt 0.497276 0.397858
vt 0.501226 0.421843
vt 0.514603 0.237788
vt 0.512524 0.252894
vt 0.511542 0.268089
vt 0.511681 0.283727
vt 0.512680 0.299825
vt 0.514202 0.316813
vt 0.515550 0.334638
vt 0.516313 0.353401
vt 0.516729 0.373248
vt 0.518006 0.393583
vt 0.533917 0.257073
vt 0.533208 0.271864
vt 0.533453 0.286878
vt 0.534577 0.302716
vt 0.536175 0.319067
vt 0.537527 0.335989
vt 0.538107 0.353475
vt 0.538195 0.371549
vt 0.554381 0.275992
vt 0.554758 0.291183
vt 0.555894 0.306279
vt 0.557603 0.322052
vt 0.559107 0.338326
vt 0.559611 0.354848
vt 0.575026 0.280086
vt 0.575132 0.294596
vt 0.576155 0.309698
vt 0.578129 0.325263
vt 0.579787 0.341273
vt 0.594652 0.298056
vt 0.595047 0.312641
vt 0.597403 0.328053
vt 0.611946 0.315341
vt 0.656387 0.125974
vt 0.634380 0.143744
vt 0.676017 0.151765
vt 0.690666 0.178044
vt 0.774107 0.636718
vt 0.762657 0.397271
vt 0.785899 0.381367
vt 0.730478 0.374581
vt 0.752627 0.363582
vt 0.773202 0.347426
vt 0.791582 0.324194
vt 0.741085 0.333780
vt 0.759360 0.318587
vt 0.775121 0.297378
vt 0.744724 0.293944
vt 0.758531 0.274959
vt 0.743037 0.256846
vt 0.715135 0.657872
vt 0.711375 0.683524
vt 0.636354 0.178019
vt 0.622169 0.192078
vt 0.638325 0.208789
vt 0.625853 0.219293
vt 0.615101 0.228152
vt 0.651636 0.228431
vt 0.637618 0.236453
vt 0.623847 0.242394
vt 0.646668 0.256246
vt 0.653938 0.278526
vt 0.587146 0.589053
vt 0.560063 0.553146
vt 0.581340 0.562944
vt 0.600362 0.574551
vt 0.524293 0.508017
vt 0.548389 0.522327
vt 0.571671 0.534520
vt 0.594026 0.546152
vt 0.614501 0.559482
vt 0.539967 0.488934
vt 0.562020 0.503865
vt 0.584948 0.516819
vt 0.607551 0.529579
vt 0.628761 0.543738
vt 0.577315 0.487179
vt 0.599319 0.500100
vt 0.621769 0.513202
vt 0.643500 0.527655
vt 0.613939 0.483788
vt 0.636155 0.496459
vt 0.658268 0.510583
vt 0.628100 0.467055
vt 0.650172 0.478641
vt 0.672522 0.491909
vt 0.663229 0.458943
vt 0.685839 0.470706
vt 0.697576 0.446314
vt 0.731293 0.502188
vt 0.718561 0.460084
vt 0.738104 0.406380
vt 0.744749 0.438653
vt 0.769171 0.436542
vt 0.724613 0.591822
vt 0.744968 0.576588
vt 0.754147 0.524043
vt 0.741843 0.471163
vt 0.184313 0.196315
vt 0.191465 0.228371
vt 0.203484 0.254966
vt 0.221246 0.273399
vt 0.650313 0.082536
vt 0.719021 0.251897
vt 0.710283 0.228491
vt 0.701740 0.203701
vt 0.704403 0.259773
vt 0.693788 0.235048
vt 0.683073 0.210474
vt 0.670134 0.186700
vt 0.654115 0.164135
vt 0.688646 0.267408
vt 0.678048 0.242897
vt 0.666548 0.219295
vt 0.652864 0.197510
vt 0.672007 0.274423
vt 0.662543 0.250526
vt 0.236808 0.324092
vt 0.239953 0.345415
vt 0.252131 0.364929
vt 0.264212 0.382789
vt 0.270903 0.342042
vt 0.279787 0.361404
vt 0.287767 0.380508
vt 0.297121 0.338398
vt 0.304127 0.358211
vt 0.310265 0.378294
vt 0.313619 0.399178
vt 0.326623 0.354345
vt 0.331768 0.375109
vt 0.335325 0.396389
vt 0.352551 0.371811
vt 0.355894 0.393560
vt 0.358171 0.416329
vt 0.375887 0.390990
vt 0.378134 0.414321
vt 0.397661 0.412286
vt 0.399791 0.436863
vt 0.419444 0.435443
vt 0.442854 0.460357
vt 0.255441 0.243307
vt 0.261671 0.262226
vt 0.262862 0.281848
vt 0.275269 0.214096
vt 0.278070 0.235329
vt 0.281949 0.256191
vt 0.284721 0.277146
vt 0.287406 0.297928
vt 0.303526 0.186365
vt 0.300678 0.208303
vt 0.301386 0.229825
vt 0.304079 0.250893
vt 0.306944 0.271945
vt 0.310379 0.292903
vt 0.314957 0.313631
vt 0.336520 0.166588
vt 0.329792 0.185778
vt 0.326265 0.205653
vt 0.325859 0.226004
vt 0.327149 0.246552
vt 0.329476 0.267168
vt 0.332849 0.287958
vt 0.337397 0.308792
vt 0.342751 0.329641
vt 0.367672 0.153045
vt 0.360922 0.168611
vt 0.355471 0.185994
vt 0.351845 0.204366
vt 0.350394 0.223771
vt 0.350703 0.243284
vt 0.352280 0.263234
vt 0.355160 0.283653
vt 0.359282 0.304446
vt 0.364194 0.325541
vt 0.368798 0.346681
vt 0.377230 0.204104
vt 0.375210 0.222775
vt 0.374531 0.241235
vt 0.375291 0.260408
vt 0.377485 0.280289
vt 0.380983 0.300839
vt 0.385339 0.322143
vt 0.389247 0.343252
vt 0.392714 0.365373
vt 0.398373 0.258841
vt 0.399860 0.278025
vt 0.402677 0.298046
vt 0.406129 0.318744
vt 0.409591 0.340025
vt 0.412535 0.362327
vt 0.415096 0.385491
vt 0.430019 0.337359
vt 0.432486 0.359555
vt 0.434998 0.382580
vt 0.436703 0.407927
vt 0.456596 0.405577
vt 0.459990 0.431717
vt 0.200414 0.784985
vt 0.180939 0.783682
vt 0.214046 0.801546
vt 0.193084 0.803987
vt 0.169970 0.802270
vt 0.145282 0.798139
vt 0.229797 0.818670
vt 0.208007 0.824158
vt 0.183580 0.826145
vt 0.157548 0.826169
vt 0.247402 0.835512
vt 0.224637 0.844146
vt 0.198730 0.849300
vt 0.170869 0.852480
vt 0.242537 0.863885
vt 0.215097 0.871684
vt 0.261910 0.883311
vt 0.232589 0.893309
vt 0.282591 0.902735
vt 0.250991 0.914374
vt 0.305033 0.922361
vt 0.329420 0.943789
vt 0.452646 0.733041
vt 0.448546 0.755036
vt 0.444316 0.779217
vt 0.439724 0.805840
vt 0.434015 0.834888
vt 0.425691 0.865944
vt 0.413256 0.898356
vt 0.394000 0.932543
vt 0.474082 0.757452
vt 0.469991 0.781648
vt 0.466029 0.808021
vt 0.461637 0.836862
vt 0.455778 0.867812
vt 0.447213 0.900706
vt 0.435224 0.935269
vt 0.493381 0.808705
vt 0.490315 0.836819
vt 0.486807 0.867040
vt 0.482209 0.899087
vt 0.476507 0.932480
vt 0.519598 0.835382
vt 0.518160 0.864486
vt 0.516633 0.895306
vt 0.515144 0.927551
vt 0.549939 0.890106
vt 0.551327 0.920946
vt 0.193186 0.737669
vt 0.194607 0.721143
vt 0.193602 0.702237
vt 0.192606 0.681460
vt 0.194689 0.659885
vt 0.201898 0.638975
vt 0.214570 0.620463
vt 0.229014 0.604774
vt 0.176916 0.714971
vt 0.173517 0.695991
vt 0.169714 0.673720
vt 0.170539 0.649516
vt 0.157496 0.719858
vt 0.172776 0.746338
vt 0.152927 0.734694
vt 0.192233 0.768044
vt 0.173888 0.763610
vt 0.152771 0.754450
vt 0.129260 0.737892
vt 0.158990 0.777916
vt 0.134885 0.768132
vt 0.757160 0.669214
vt 0.771978 0.691480
vt 0.752596 0.718897
vt 0.763329 0.741627
vt 0.740450 0.763925
vt 0.747851 0.787341
vt 0.786777 0.269976
vt 0.727644 0.829311
vt 0.766954 0.249549
vt 0.770337 0.219436
vt 0.747293 0.234189
vt 0.746285 0.206815
vt 0.741371 0.176994
vt 0.731963 0.144494
vt 0.703760 0.744119
vt 0.686175 0.778099
vt 0.690575 0.798822
vt 0.694641 0.820891
vt 0.666726 0.833189
vt 0.669872 0.856367
vt 0.642139 0.866988
vt 0.674616 0.879762
vt 0.647159 0.892253
vt 0.740605 0.699756
vt 0.727266 0.686486
vt 0.732190 0.742956
vt 0.723531 0.725032
vt 0.714249 0.710948
vt 0.721970 0.805432
vt 0.716235 0.783070
vt 0.709993 0.762540
vt 0.699449 0.844605
vt 0.730942 0.272044
vt 0.728392 0.307253
vt 0.715787 0.283031
vt 0.721421 0.344765
vt 0.710588 0.317492
vt 0.699187 0.291994
vt 0.701051 0.352802
vt 0.691766 0.325561
vt 0.681033 0.299630
vt 0.546827 0.194832
vt 0.462309 0.155499
vt 0.236962 0.580831
vt 0.231681 0.563877
vt 0.228159 0.545076
vt 0.225574 0.524601
vt 0.224443 0.501911
vt 0.226667 0.480879
vt 0.227172 0.461187
vt 0.228113 0.441859
vt 0.231238 0.422758
vt 0.237162 0.404363
vt 0.120940 0.449951
vt 0.214588 0.589307
vt 0.176509 0.588880
vt 0.132630 0.593744
vt 0.615215 0.330006
vt 0.599908 0.344201
vt 0.580744 0.357577
vt 0.559494 0.371444
vt 0.538761 0.390035
vt 0.521249 0.415025
vt 0.508351 0.446470
vt 0.056151 0.424496
vt 0.245768 0.964172
vt 0.143171 0.284428
vt 0.220212 0.175547
vt 0.219233 0.208333
vt 0.225030 0.235411
vt 0.235596 0.254965
vt 0.223914 0.374524
vt 0.266743 0.852368
vt 0.191456 0.752820
vt 0.175107 0.730749
vt 0.630007 0.258803
vt 0.702264 0.143611
vt 0.714593 0.174032
vt 0.722975 0.201662
vt 0.728121 0.226134
vt 0.630571 0.422552
vt 0.614594 0.682648
vt 0.730345 0.244716
vt 0.706246 0.701898
vt 0.685797 0.107226
vt 0.163241 0.710062
vt 0.745989 0.602638
vt 0.725091 0.438700
vt 0.710760 0.416382
vt 0.205997 0.770486
vt 0.739575 0.650605
vt 0.576916 0.599831
vt 0.111613 0.414749
vt 0.596562 0.673065
vt 0.373978 0.141333
vt 0.023214 0.424181
vt 0.497848 0.488876
vt 0.245912 0.267222
vt 0.243181 0.388020
vt 0.241149 0.594620
vt 0.659229 0.305174
vt 0.130970 0.469179
vt 0.575321 0.415301
vt 0.197035 0.352802
vt 0.624990 0.317336
vt 0.606785 0.234469
vt 0.298859 0.980895
vt 0.253864 0.985129
vt 0.158030 0.960428
vt 0.144601 0.940278
vt 0.131140 0.917525
vt 0.360114 0.970915
vt 0.215347 0.989468
vt 0.170144 0.978960
vt 0.119100 0.891580
vt 0.180416 0.996892
vt 0.109573 0.862332
vt 0.423519 0.970845
vt 0.102269 0.829884
vt 0.472161 0.965847
vt 0.094154 0.793930
vt 0.515091 0.960785
vt 0.081114 0.751368
vt 0.554091 0.952895
vt 0.071295 0.695008
vt 0.590571 0.943472
vt 0.074671 0.602408
vt 0.625108 0.932444
vt 0.656630 0.918614
vt 0.679393 0.900391
vt 0.703854 0.870705
vt 0.702726 0.900478
vt 0.026548 0.514993
vt 0.009236 0.460543
vt 0.735742 0.852857
vt 0.002915 0.421765
vt 0.754527 0.812766
vt 0.760695 0.839476
vt 0.007250 0.387980
vt 0.019753 0.350130
vt 0.772707 0.767116
vt 0.779891 0.794751
vt 0.038998 0.308441
vt 0.064559 0.266389
vt 0.785454 0.716770
vt 0.796299 0.744428
vt 0.095935 0.226920
vt 0.132981 0.191769
vt 0.791105 0.662997
vt 0.806607 0.689927
vt 0.176976 0.161599
vt 0.235641 0.134737
vt 0.792525 0.610888
vt 0.810305 0.634605
vt 0.771625 0.564831
vt 0.290657 0.093276
vt 0.335999 0.063336
vt 0.380562 0.036027
vt 0.791203 0.490268
vt 0.429004 0.006234
vt 0.796030 0.422568
vt 0.480057 0.002915
vt 0.523304 0.004009
vt 0.807131 0.355158
vt 0.820796 0.389397
vt 0.562566 0.012010
vt 0.599348 0.023023
vt 0.806444 0.294452
vt 0.824894 0.322214
vt 0.634236 0.037611
vt 0.667444 0.056081
vt 0.794230 0.237809
vt 0.817158 0.260361
vt 0.697869 0.075629
vt 0.720577 0.087339
vt 0.723944 0.113298
vt 0.769773 0.185326
vt 0.797692 0.203052
vt 0.754440 0.116134
vt 0.758494 0.144784
# 1025 polygons
f 1/1 881/862 880/861 2/2
f 1/1 143/1009 141/1007 881/862
f 1/1 64/64 904/1011 143/1009
f 1/1 2/2 63/63 64/64
f 2/2 4/4 62/62 63/63
f 2/2 880/861 3/3 4/4
f 3/3 877/858 876/857 5/5
f 3/3 880/861 878/859 877/858
f 3/3 5/5 6/6 4/4
f 4/4 6/6 60/60 62/62
f 5/5 8/8 9/9 6/6
f 5/5 876/857 7/7 8/8
f 6/6 9/9 57/57 60/60
f 7/7 11/11 12/12 8/8
f 7/7 871/852 10/10 11/11
f 7/7 876/857 872/853 871/852
f 8/8 12/12 13/13 9/9
f 9/9 13/13 54/54 57/57
f 10/10 865/846 864/845 14/14
f 10/10 871/852 866/847 865/846
f 10/10 14/14 15/15 11/11
f 11/11 15/15 16/16 12/12
f 12/12 16/16 17/17 13/13
f 13/13 17/17 50/50 54/54
f 14/14 19/19 20/20 15/15
f 14/14 864/845 18/18 19/19
f 15/15 20/20 21/21 16/16
f 16/16 21/21 22/22 17/17
f 17/17 22/22 45/45 50/50
f 18/18 856/837 23/23 24/24
f 18/18 864/845 857/838 856/837
f 18/18 24/24 25/25 19/19
f 19/19 25/25 26/26 20/20
f 20/20 26/26 27/27 21/21
f 21/21 27/27 28/28 22/22
f 22/22 28/28 40/40 45/45
f 23/23 234/224 233/223 29/29
f 23/23 856/837 235/225 234/224
f 23/23 29/29 30/30 24/24
f 24/24 30/30 31/31 25/25
f 25/25 31/31 32/32 26/26
f 26/26 32/32 33/33 27/27
f 27/27 33/33 34/34 28/28
f 28/28 34/34 36/36 40/40
f 29/29 549/535 536/522 30/30
f 29/29 233/223 292/280 549/535
f 30/30 536/522 537/523 31/31
f 31/31 537/523 538/524 32/32
f 32/32 538/524 539/525 33/33
f 33/33 539/525 1013/977 34/34
f 34/34 1013/977 1000/965 36/36
f 35/35 39/39 40/40 36/36
f 35/35 572/558 38/38 39/39
f 35/35 570/556 571/557 572/558
f 35/35 36/36 1000/965 570/556
f 37/37 577/563 41/41 42/42
f 37/37 574/560 576/562 577/563
f 37/37 38/38 572/558 574/560
f 37/37 42/42 43/43 38/38
f 38/38 43/43 44/44 39/39
f 39/39 44/44 45/45 40/40
f 41/41 46/46 47/47 42/42
f 41/41 1002/967 941/911 46/46
f 41/41 577/563 686/669 1002/967
f 42/42 47/47 48/48 43/43
f 43/43 48/48 49/49 44/44
f 44/44 49/49 50/50 45/45
f 46/46 941/911 940/910 928/898
f 46/46 928/898 51/51 47/47
f 47/47 51/51 52/52 48/48
f 48/48 52/52 53/53 49/49
f 49/49 53/53 54/54 50/50
f 51/51 929/899 55/55 52/52
f 51/51 928/898 944/914 929/899
f 52/52 55/55 56/56 53/53
f 53/53 56/56 57/57 54/54
f 55/55 58/58 59/59 56/56
f 55/55 929/899 930/900 58/58
f 56/56 59/59 60/60 57/57
f 58/58 930/900 931/901 932/902
f 58/58 932/902 61/61 59/59
f 59/59 61/61 62/62 60/60
f 61/61 934/904 63/63 62/62
f 61/61 932/902 933/903 934/904
f 63/63 934/904 936/906 64/64
f 64/64 936/906 903/1012 904/1011
f 65/65 67/67 542/528 544/530
f 65/65 248/238 66/66 67/67
f 65/65 246/236 247/237 248/238
f 65/65 544/530 548/534 246/236
f 66/66 69/69 70/70 67/67
f 66/66 251/241 68/68 69/69
f 66/66 248/238 250/240 251/241
f 67/67 70/70 1013/977 542/528
f 68/68 573/559 571/557 69/69
f 68/68 255/245 575/561 573/559
f 68/68 251/241 254/244 255/245
f 69/69 571/557 570/556 70/70
f 70/70 570/556 1000/965 1013/977
f 71/71 72/72 125/124 124/123
f 71/71 77/77 584/570 72/72
f 71/71 956/926 76/76 77/77
f 71/71 124/123 123/122 956/926
f 72/72 584/570 582/568 581/567
f 72/72 581/567 126/125 125/124
f 73/73 74/74 132/131 131/130
f 73/73 82/82 83/83 74/74
f 73/73 955/925 81/81 82/82
f 73/73 131/130 130/129 955/925
f 74/74 83/83 84/84 75/75
f 74/74 75/75 133/132 132/131
f 75/75 84/84 597/583 76/76
f 75/75 76/76 956/926 133/132
f 76/76 597/583 589/575 77/77
f 77/77 589/575 585/571 584/570
f 78/78 79/79 135/134 134/133
f 78/78 86/86 87/87 79/79
f 78/78 1027/989 85/85 86/86
f 78/78 134/133 691/674 1027/989
f 79/79 87/87 88/88 80/80
f 79/79 80/80 136/135 135/134
f 80/80 88/88 89/89 81/81
f 80/80 81/81 955/925 136/135
f 81/81 89/89 90/90 82/82
f 82/82 90/90 91/91 83/83
f 83/83 91/91 608/594 84/84
f 84/84 608/594 598/584 597/583
f 85/85 694/677 994/959 92/92
f 85/85 1027/989 691/674 694/677
f 85/85 92/92 93/93 86/86
f 86/86 93/93 94/94 87/87
f 87/87 94/94 95/95 88/88
f 88/88 95/95 96/96 89/89
f 89/89 96/96 632/618 90/90
f 90/90 632/618 621/607 91/91
f 91/91 621/607 609/595 608/594
f 92/92 994/959 243/233 97/97
f 92/92 97/97 98/98 93/93
f 93/93 98/98 99/99 94/94
f 94/94 99/99 100/100 95/95
f 95/95 100/100 642/628 96/96
f 96/96 642/628 633/619 632/618
f 97/97 243/233 244/234 101/101
f 97/97 101/101 102/102 98/98
f 98/98 102/102 656/642 99/99
f 99/99 656/642 650/636 100/100
f 100/100 650/636 643/629 642/628
f 101/101 103/103 661/647 102/102
f 101/101 244/234 245/235 103/103
f 102/102 661/647 657/643 656/642
f 103/103 664/650 662/648 661/647
f 103/103 245/235 1026/988 664/650
f 104/104 984/996 985/999 105/997
f 104/104 979/949 983/991 984/996
f 104/104 531/517 192/182 979/949
f 104/104 105/997 980/992 531/517
f 105/1034 985/1035 986/951 735/716
f 105/1034 735/716 106/105 980/1031
f 106/105 107/106 981/950 530/516
f 106/105 735/716 736/717 107/106
f 106/105 530/516 529/1030 980/1031
f 107/106 108/107 109/108 981/950
f 107/106 736/717 737/718 108/107
f 108/107 737/718 738/719 110/109
f 108/107 110/109 111/110 109/108
f 109/108 111/110 1025/987 528/515
f 109/108 528/515 527/514 981/950
f 110/109 738/719 420/408 421/409
f 110/109 421/409 754/735 111/110
f 111/110 754/735 755/736 1025/987
f 112/111 687/670 688/671 117/116
f 112/111 666/652 747/728 687/670
f 112/111 113/112 156/150 666/652
f 112/111 117/116 118/117 113/112
f 113/112 118/117 119/118 114/113
f 113/112 114/113 157/151 156/150
f 114/113 115/114 158/152 157/151
f 114/113 119/118 120/119 115/114
f 115/114 116/115 159/153 158/152
f 115/114 120/119 121/120 116/115
f 116/115 164/158 160/154 159/153
f 116/115 121/120 122/121 164/158
f 117/116 128/127 129/128 118/117
f 117/116 688/671 127/126 128/127
f 118/117 129/128 130/129 119/118
f 119/118 130/129 131/130 120/119
f 120/119 131/130 132/131 121/120
f 121/120 132/131 133/132 122/121
f 122/121 133/132 956/926 123/122
f 122/121 123/122 165/159 164/158
f 123/122 124/123 166/160 165/159
f 124/123 125/124 167/161 166/160
f 125/124 126/125 168/162 167/161
f 126/125 1015/978 510/497 168/162
f 126/125 581/567 801/782 1015/978
f 127/126 690/673 691/674 134/133
f 127/126 688/671 689/672 690/673
f 127/126 134/133 135/134 128/127
f 128/127 135/134 136/135 129/128
f 129/128 136/135 955/925 130/129
f 137/1001 870/851 875/856 138/1003
f 137/1001 1014/995 863/844 870/851
f 137/1045 148/142 149/143 1014/1043
f 137/1045 138/1046 147/141 148/142
f 138/1003 875/856 879/860 139/1005
f 138/1046 139/1049 140/136 147/141
f 139/1005 879/860 881/862 141/1007
f 139/1049 141/1050 142/137 140/136
f 140/136 142/137 150/144 151/145
f 140/136 151/145 152/146 147/141
f 141/1050 143/1053 144/138 142/137
f 142/137 144/138 145/139 150/144
f 143/1053 904/1054 739/720 144/138
f 144/138 739/720 146/140 145/139
f 145/139 146/140 156/150 157/151
f 145/139 157/151 158/152 150/144
f 146/140 665/651 666/652 156/150
f 146/140 739/720 1003/968 665/651
f 147/141 152/146 153/147 148/142
f 148/142 153/147 154/148 149/143
f 149/143 154/148 155/149 506/493
f 149/143 506/493 982/1041 1014/1043
f 150/144 158/152 159/153 151/145
f 151/145 159/153 160/154 152/146
f 152/146 160/154 161/155 153/147
f 153/147 161/155 162/156 154/148
f 154/148 162/156 163/157 155/149
f 155/149 508/495 509/496 506/493
f 155/149 163/157 507/494 508/495
f 160/154 164/158 165/159 161/155
f 161/155 165/159 166/160 162/156
f 162/156 166/160 167/161 163/157
f 163/157 167/161 168/162 507/494
f 168/162 510/497 511/498 507/494
f 169/163 173/167 900/881 170/164
f 169/163 274/262 172/166 173/167
f 169/163 1019/1010 272/260 274/262
f 169/163 170/164 266/1008 1019/1010
f 170/164 900/881 902/883 171/165
f 170/164 171/165 267/1006 266/1008
f 171/165 503/491 504/1004 267/1006
f 171/165 902/883 839/820 503/491
f 172/166 275/263 1004/969 894/875
f 172/166 274/262 273/261 275/263
f 172/166 894/875 896/877 173/167
f 173/167 896/877 899/880 900/881
f 174/168 447/435 175/169 291/279
f 174/168 1012/976 525/512 447/435
f 174/168 289/277 967/937 1012/976
f 174/168 291/279 290/278 289/277
f 175/169 447/435 1025/987 990/955
f 175/169 966/936 965/935 291/279
f 175/169 990/955 1020/982 966/936
f 176/170 178/171 179/1000 177/1002
f 176/170 843/824 847/828 178/171
f 176/170 503/491 839/820 843/824
f 176/170 177/1002 504/1004 503/491
f 177/1022 505/492 1016/979 504/1019
f 177/1022 179/1023 180/172 505/492
f 178/171 183/175 184/998 179/1000
f 178/171 847/828 182/174 183/175
f 179/1023 184/1026 185/176 180/172
f 180/172 185/176 524/511 181/173
f 180/172 181/173 978/948 505/492
f 181/173 1012/976 277/265 978/948
f 181/173 524/511 525/512 1012/976
f 182/174 849/830 851/832 186/177
f 182/174 847/828 846/827 849/830
f 182/174 186/177 187/178 183/175
f 183/175 187/178 188/994 184/998
f 184/1026 188/1027 526/513 185/176
f 185/176 526/513 527/514 524/511
f 186/177 189/179 190/180 187/178
f 186/177 851/832 853/834 189/179
f 187/178 190/180 529/993 188/994
f 188/1027 529/1030 530/516 526/513
f 189/179 192/182 531/517 190/180
f 189/179 853/834 191/181 192/182
f 190/180 531/517 980/992 529/993
f 191/181 854/835 855/836 193/183
f 191/181 853/834 852/833 854/835
f 191/181 193/183 979/949 192/182
f 193/183 855/836 1014/995 982/990
f 193/183 982/990 983/991 979/949
f 194/184 196/186 836/817 834/815
f 194/184 363/351 195/185 196/186
f 194/184 1009/973 372/360 363/351
f 194/184 834/815 897/878 1009/973
f 195/185 198/188 199/189 196/186
f 195/185 355/343 197/187 198/188
f 195/185 363/351 364/352 355/343
f 196/186 199/189 840/821 836/817
f 197/187 201/191 202/192 198/188
f 197/187 348/336 200/190 201/191
f 197/187 355/343 356/344 348/336
f 198/188 202/192 203/193 199/189
f 199/189 203/193 844/825 840/821
f 200/190 205/195 206/196 201/191
f 200/190 342/330 204/194 205/195
f 200/190 348/336 349/337 342/330
f 201/191 206/196 207/197 202/192
f 202/192 207/197 208/198 203/193
f 203/193 208/198 991/956 844/825
f 204/194 338/326 209/199 210/200
f 204/194 342/330 343/331 338/326
f 204/194 210/200 211/201 205/195
f 205/195 211/201 212/202 206/196
f 206/196 212/202 213/203 207/197
f 207/197 213/203 214/204 208/198
f 208/198 214/204 215/205 991/956
f 209/199 335/323 216/206 217/207
f 209/199 338/326 339/327 335/323
f 209/199 217/207 218/208 210/200
f 210/200 218/208 219/209 211/201
f 211/201 219/209 220/210 212/202
f 212/202 220/210 221/211 213/203
f 213/203 221/211 222/212 214/204
f 214/204 222/212 223/213 215/205
f 215/205 223/213 852/833 850/831
f 215/205 850/831 848/829 991/956
f 216/206 333/321 224/214 225/215
f 216/206 335/323 336/324 333/321
f 216/206 225/215 226/216 217/207
f 217/207 226/216 227/217 218/208
f 218/208 227/217 228/218 219/209
f 219/209 228/218 229/219 220/210
f 220/210 229/219 230/220 221/211
f 221/211 230/220 231/221 222/212
f 222/212 231/221 232/222 223/213
f 223/213 232/222 854/835 852/833
f 224/214 332/320 233/223 234/224
f 224/214 333/321 334/322 332/320
f 224/214 234/224 235/225 225/215
f 225/215 235/225 236/226 226/216
f 226/216 236/226 237/227 227/217
f 227/217 237/227 238/228 228/218
f 228/218 238/228 239/229 229/219
f 229/219 239/229 240/230 230/220
f 230/220 240/230 241/231 231/221
f 231/221 241/231 242/232 232/222
f 232/222 242/232 855/836 854/835
f 233/223 332/320 299/287 292/280
f 235/225 856/837 857/838 236/226
f 236/226 857/838 858/839 237/227
f 237/227 858/839 859/840 238/228
f 238/228 859/840 860/841 239/229
f 239/229 860/841 861/842 240/230
f 240/230 861/842 862/843 241/231
f 241/231 862/843 863/844 242/232
f 242/232 863/844 1014/995 855/836
f 243/233 696/679 1022/984 244/234
f 243/233 994/959 695/678 696/679
f 244/234 1022/984 401/389 245/235
f 245/235 401/389 409/397 1026/988
f 246/236 697/680 700/683 247/237
f 246/236 548/534 1011/975 697/680
f 247/237 700/683 705/688 249/239
f 247/237 249/239 250/240 248/238
f 249/239 705/688 710/693 252/242
f 249/239 252/242 253/243 250/240
f 250/240 253/243 254/244 251/241
f 252/242 710/693 714/697 256/246
f 252/242 256/246 257/247 253/243
f 253/243 257/247 258/248 254/244
f 254/244 258/248 259/249 255/245
f 255/245 259/249 578/564 575/561
f 256/246 260/250 261/251 257/247
f 256/246 714/697 717/700 260/250
f 257/247 261/251 262/252 258/248
f 258/248 262/252 730/712 259/249
f 259/249 730/712 580/566 578/564
f 260/250 263/253 264/254 261/251
f 260/250 717/700 720/703 263/253
f 261/251 264/254 579/565 262/252
f 262/252 579/565 731/713 730/712
f 263/253 265/255 724/707 264/254
f 263/253 720/703 722/705 265/255
f 264/254 724/707 732/714 579/565
f 265/255 725/708 733/715 724/707
f 265/255 722/705 723/706 725/708
f 266/1016 267/1017 278/266 276/264
f 266/1016 276/264 279/267 1019/1010
f 267/1017 504/1019 1016/979 278/266
f 268/256 888/869 887/868 269/257
f 268/256 968/938 889/870 888/869
f 268/256 969/939 381/369 968/938
f 268/256 269/257 270/258 969/939
f 269/257 887/868 886/867 893/874
f 269/257 893/874 271/259 270/258
f 270/258 271/259 272/260 970/940
f 270/258 970/940 382/370 969/939
f 271/259 273/261 274/262 272/260
f 271/259 893/874 892/873 273/261
f 272/260 1019/1010 384/372 970/940
f 273/261 892/873 891/872 275/263
f 275/263 891/872 890/871 1004/969
f 276/264 278/266 978/948 277/265
f 276/264 277/265 280/268 279/267
f 277/265 1012/976 967/937 280/268
f 278/266 1016/979 505/492 978/948
f 279/267 280/268 386/374 385/373
f 279/267 385/373 384/372 1019/1010
f 280/268 967/937 1023/985 386/374
f 281/269 382/370 383/371 282/270
f 281/269 381/369 969/939 382/370
f 281/269 959/929 958/928 381/369
f 281/269 282/270 960/930 959/929
f 282/270 284/272 961/931 960/930
f 282/270 383/371 283/271 284/272
f 283/271 385/373 386/374 285/273
f 283/271 383/371 384/372 385/373
f 283/271 285/273 286/274 284/272
f 284/272 286/274 962/932 961/931
f 285/273 287/275 288/276 286/274
f 285/273 386/374 1023/985 287/275
f 286/274 288/276 963/933 962/932
f 287/275 289/277 290/278 288/276
f 287/275 1023/985 967/937 289/277
f 288/276 290/278 964/934 963/933
f 290/278 291/279 965/935 964/934
f 292/280 293/281 550/536 549/535
f 292/280 299/287 300/288 293/281
f 293/281 294/282 552/538 550/536
f 293/281 300/288 301/289 294/282
f 294/282 295/283 555/541 552/538
f 294/282 301/289 302/290 295/283
f 295/283 302/290 303/291 296/284
f 295/283 296/284 559/545 555/541
f 296/284 303/291 304/292 297/285
f 296/284 297/285 564/550 559/545
f 297/285 304/292 472/460 298/286
f 297/285 298/286 568/554 564/550
f 298/286 472/460 481/469 482/470
f 298/286 482/470 1017/980 568/554
f 299/287 305/293 306/294 300/288
f 299/287 332/320 334/322 305/293
f 300/288 306/294 307/295 301/289
f 301/289 307/295 308/296 302/290
f 302/290 308/296 309/297 303/291
f 303/291 309/297 310/298 304/292
f 304/292 310/298 471/459 472/460
f 305/293 334/322 337/325 311/299
f 305/293 311/299 312/300 306/294
f 306/294 312/300 313/301 307/295
f 307/295 313/301 314/302 308/296
f 308/296 314/302 315/303 309/297
f 309/297 315/303 463/451 310/298
f 310/298 463/451 470/458 471/459
f 311/299 337/325 341/329 316/304
f 311/299 316/304 317/305 312/300
f 312/300 317/305 318/306 313/301
f 313/301 318/306 319/307 314/302
f 314/302 319/307 320/308 315/303
f 315/303 320/308 462/450 463/451
f 316/304 341/329 346/334 347/335
f 316/304 347/335 321/309 317/305
f 317/305 321/309 322/310 318/306
f 318/306 322/310 323/311 319/307
f 319/307 323/311 456/444 320/308
f 320/308 456/444 461/449 462/450
f 321/309 324/312 325/313 322/310
f 321/309 347/335 354/342 324/312
f 322/310 325/313 326/314 323/311
f 323/311 326/314 455/443 456/444
f 324/312 327/315 328/316 325/313
f 324/312 354/342 362/350 327/315
f 325/313 328/316 451/439 326/314
f 326/314 451/439 454/442 455/443
f 327/315 329/317 330/318 328/316
f 327/315 362/350 371/359 329/317
f 328/316 330/318 450/438 451/439
f 329/317 371/359 380/368 331/319
f 329/317 331/319 448/436 330/318
f 330/318 448/436 449/437 450/438
f 331/319 380/368 889/870 1021/983
f 331/319 1021/983 957/927 448/436
f 333/321 336/324 337/325 334/322
f 335/323 339/327 340/328 336/324
f 336/324 340/328 341/329 337/325
f 338/326 343/331 344/332 339/327
f 339/327 344/332 345/333 340/328
f 340/328 345/333 346/334 341/329
f 342/330 349/337 350/338 343/331
f 343/331 350/338 351/339 344/332
f 344/332 351/339 352/340 345/333
f 345/333 352/340 353/341 346/334
f 346/334 353/341 354/342 347/335
f 348/336 356/344 357/345 349/337
f 349/337 357/345 358/346 350/338
f 350/338 358/346 359/347 351/339
f 351/339 359/347 360/348 352/340
f 352/340 360/348 361/349 353/341
f 353/341 361/349 362/350 354/342
f 355/343 364/352 365/353 356/344
f 356/344 365/353 366/354 357/345
f 357/345 366/354 367/355 358/346
f 358/346 367/355 368/356 359/347
f 359/347 368/356 369/357 360/348
f 360/348 369/357 370/358 361/349
f 361/349 370/358 371/359 362/350
f 363/351 372/360 373/361 364/352
f 364/352 373/361 374/362 365/353
f 365/353 374/362 375/363 366/354
f 366/354 375/363 376/364 367/355
f 367/355 376/364 377/365 368/356
f 368/356 377/365 378/366 369/357
f 369/357 378/366 379/367 370/358
f 370/358 379/367 380/368 371/359
f 372/360 992/957 882/863 373/361
f 372/360 1009/973 897/878 992/957
f 373/361 882/863 883/864 374/362
f 374/362 883/864 884/865 375/363
f 375/363 884/865 885/866 376/364
f 376/364 885/866 886/867 377/365
f 377/365 886/867 887/868 378/366
f 378/366 887/868 888/869 379/367
f 379/367 888/869 889/870 380/368
f 381/369 958/928 957/927 968/938
f 382/370 970/940 384/372 383/371
f 387/375 410/398 411/399 405/393
f 387/375 971/941 409/397 410/398
f 387/375 972/942 663/649 971/941
f 387/375 405/393 388/376 972/942
f 388/376 389/377 390/378 973/943
f 388/376 405/393 406/394 389/377
f 388/376 973/943 660/646 972/942
f 389/377 406/394 407/395 403/391
f 389/377 403/391 391/379 390/378
f 390/378 391/379 392/380 974/944
f 390/378 974/944 655/641 973/943
f 391/379 393/381 394/382 392/380
f 391/379 403/391 404/392 393/381
f 392/380 394/382 395/383 975/945
f 392/380 975/945 649/635 974/944
f 393/381 404/392 432/420 1024/986
f 393/381 1024/986 396/384 394/382
f 394/382 396/384 397/385 395/383
f 395/383 397/385 398/386 976/946
f 395/383 976/946 641/627 975/945
f 396/384 433/421 434/422 397/385
f 396/384 1024/986 432/420 433/421
f 397/385 434/422 435/423 398/386
f 398/386 435/423 436/424 977/947
f 398/386 977/947 631/617 976/946
f 399/387 418/406 416/404 415/403
f 399/387 952/922 402/390 418/406
f 399/387 400/388 953/923 952/922
f 399/387 415/403 414/402 400/388
f 400/388 1022/984 954/924 953/923
f 400/388 414/402 401/389 1022/984
f 401/389 414/402 410/398 409/397
f 402/390 675/658 726/709 1008/972
f 402/390 952/922 949/919 675/658
f 402/390 1008/972 419/407 418/406
f 403/391 407/395 408/396 404/392
f 404/392 408/396 437/425 432/420
f 405/393 411/399 412/400 406/394
f 406/394 412/400 413/401 407/395
f 407/395 413/401 999/964 408/396
f 408/396 999/964 441/429 437/425
f 409/397 971/941 664/650 1026/988
f 410/398 414/402 415/403 411/399
f 411/399 415/403 416/404 412/400
f 412/400 416/404 417/405 413/401
f 413/401 417/405 444/432 999/964
f 416/404 418/406 419/407 417/405
f 417/405 419/407 446/434 444/432
f 419/407 1008/972 723/706 446/434
f 420/408 779/760 422/410 421/409
f 420/408 1018/981 778/759 779/760
f 420/408 738/719 989/954 1018/981
f 421/409 422/410 423/411 754/735
f 422/410 784/765 424/412 423/411
f 422/410 779/760 783/764 784/765
f 423/411 758/739 755/736 754/735
f 423/411 424/412 761/742 758/739
f 424/412 791/772 425/413 761/742
f 424/412 784/765 790/771 791/772
f 425/413 800/781 426/414 765/746
f 425/413 791/772 799/780 800/781
f 425/413 765/746 762/743 761/742
f 426/414 811/792 427/415 768/749
f 426/414 800/781 810/791 811/792
f 426/414 768/749 766/747 765/746
f 427/415 811/792 819/800 820/801
f 427/415 771/752 769/750 768/749
f 427/415 820/801 428/416 771/752
f 428/416 820/801 826/807 827/808
f 428/416 773/754 772/753 771/752
f 428/416 827/808 429/417 773/754
f 429/417 827/808 830/811 831/812
f 429/417 775/756 774/755 773/754
f 429/417 831/812 430/418 775/756
f 430/418 831/812 832/813 833/814
f 430/418 776/757 490/478 775/756
f 430/418 833/814 431/419 776/757
f 431/419 833/814 619/605 620/606
f 431/419 482/470 481/469 776/757
f 431/419 620/606 1017/980 482/470
f 432/420 437/425 438/426 433/421
f 433/421 438/426 439/427 434/422
f 434/422 439/427 440/428 435/423
f 435/423 440/428 706/689 436/424
f 436/424 706/689 701/684 1017/980
f 436/424 1017/980 620/606 977/947
f 437/425 441/429 442/430 438/426
f 438/426 442/430 443/431 439/427
f 439/427 443/431 711/694 440/428
f 440/428 711/694 707/690 706/689
f 441/429 445/433 718/701 442/430
f 441/429 999/964 444/432 445/433
f 442/430 718/701 715/698 443/431
f 443/431 715/698 712/695 711/694
f 444/432 446/434 721/704 445/433
f 445/433 721/704 719/702 718/701
f 446/434 723/706 722/705 721/704
f 447/435 525/512 528/515 1025/987
f 448/436 957/927 958/928 449/437
f 449/437 452/440 453/441 450/438
f 449/437 958/928 959/929 452/440
f 450/438 453/441 454/442 451/439
f 452/440 457/445 458/446 453/441
f 452/440 959/929 960/930 457/445
f 453/441 458/446 459/447 454/442
f 454/442 459/447 460/448 455/443
f 455/443 460/448 461/449 456/444
f 457/445 464/452 465/453 458/446
f 457/445 960/930 961/931 464/452
f 458/446 465/453 466/454 459/447
f 459/447 466/454 467/455 460/448
f 460/448 467/455 468/456 461/449
f 461/449 468/456 469/457 462/450
f 462/450 469/457 470/458 463/451
f 464/452 473/461 474/462 465/453
f 464/452 961/931 962/932 473/461
f 465/453 474/462 475/463 466/454
f 466/454 475/463 476/464 467/455
f 467/455 476/464 477/465 468/456
f 468/456 477/465 478/466 469/457
f 469/457 478/466 479/467 470/458
f 470/458 479/467 480/468 471/459
f 471/459 480/468 481/469 472/460
f 473/461 483/471 484/472 474/462
f 473/461 962/932 963/933 483/471
f 474/462 484/472 485/473 475/463
f 475/463 485/473 486/474 476/464
f 476/464 486/474 487/475 477/465
f 477/465 487/475 488/476 478/466
f 478/466 488/476 489/477 479/467
f 479/467 489/477 490/478 480/468
f 480/468 490/478 776/757 481/469
f 483/471 491/479 492/480 484/472
f 483/471 963/933 964/934 491/479
f 484/472 492/480 493/481 485/473
f 485/473 493/481 494/482 486/474
f 486/474 494/482 495/483 487/475
f 487/475 495/483 496/484 488/476
f 488/476 496/484 774/755 489/477
f 489/477 774/755 775/756 490/478
f 491/479 497/485 498/486 492/480
f 491/479 964/934 965/935 497/485
f 492/480 498/486 499/487 493/481
f 493/481 499/487 500/488 494/482
f 494/482 500/488 770/751 495/483
f 495/483 770/751 772/753 496/484
f 496/484 772/753 773/754 774/755
f 497/485 501/489 502/490 498/486
f 497/485 965/935 966/936 501/489
f 498/486 502/490 764/745 499/487
f 499/487 764/745 767/748 500/488
f 500/488 767/748 769/750 770/751
f 501/489 757/738 760/741 502/490
f 501/489 966/936 1020/982 757/738
f 502/490 760/741 763/744 764/745
f 506/493 509/496 983/1040 982/1041
f 507/494 511/498 512/499 508/495
f 508/495 512/499 513/500 509/496
f 509/496 513/500 984/1039 983/1040
f 510/497 514/501 515/502 511/498
f 510/497 1015/978 801/782 514/501
f 511/498 515/502 516/503 512/499
f 512/499 516/503 517/504 513/500
f 513/500 517/504 985/1035 984/1039
f 514/501 801/782 802/783 792/773
f 514/501 792/773 518/505 515/502
f 515/502 518/505 519/506 516/503
f 516/503 519/506 520/507 517/504
f 517/504 520/507 986/951 985/1035
f 518/505 792/773 793/774 785/766
f 518/505 785/766 521/508 519/506
f 519/506 521/508 522/509 520/507
f 520/507 522/509 987/952 986/951
f 521/508 785/766 786/767 780/761
f 521/508 780/761 523/510 522/509
f 522/509 523/510 988/953 987/952
f 523/510 777/758 989/954 988/953
f 523/510 780/761 781/762 777/758
f 524/511 527/514 528/515 525/512
f 526/513 530/516 981/950 527/514
f 532/518 699/682 700/683 697/680
f 532/518 567/553 698/681 699/682
f 532/518 563/549 562/548 567/553
f 532/518 697/680 1011/975 563/549
f 533/519 569/555 701/684 702/685
f 533/519 566/552 565/551 569/555
f 533/519 698/681 567/553 566/552
f 533/519 702/685 703/686 698/681
f 534/520 728/711 670/1044 729/1042
f 534/520 733/715 727/710 728/711
f 534/520 732/714 724/707 733/715
f 534/520 729/1042 734/1038 732/714
f 535/521 669/655 905/884 1010/974
f 535/521 734/1038 729/1036 669/655
f 535/521 1005/970 731/713 734/1038
f 535/521 1010/974 580/566 1005/970
f 536/522 551/537 545/531 537/523
f 536/522 549/535 550/536 551/537
f 537/523 545/531 540/526 538/524
f 538/524 540/526 541/527 539/525
f 539/525 541/527 542/528 1013/977
f 540/526 546/532 543/529 541/527
f 540/526 545/531 554/540 546/532
f 541/527 543/529 544/530 542/528
f 543/529 546/532 558/544 547/533
f 543/529 547/533 548/534 544/530
f 545/531 551/537 553/539 554/540
f 546/532 554/540 557/543 558/544
f 547/533 558/544 562/548 563/549
f 547/533 563/549 1011/975 548/534
f 550/536 552/538 553/539 551/537
f 552/538 555/541 556/542 553/539
f 553/539 556/542 557/543 554/540
f 555/541 559/545 560/546 556/542
f 556/542 560/546 561/547 557/543
f 557/543 561/547 562/548 558/544
f 559/545 564/550 565/551 560/546
f 560/546 565/551 566/552 561/547
f 561/547 566/552 567/553 562/548
f 564/550 568/554 569/555 565/551
f 568/554 1017/980 701/684 569/555
f 571/557 573/559 574/560 572/558
f 573/559 575/561 576/562 574/560
f 575/561 578/564 685/668 576/562
f 576/562 685/668 686/669 577/563
f 578/564 580/566 1010/974 685/668
f 579/565 732/714 734/1038 731/713
f 580/566 730/712 731/713 1005/970
f 581/567 582/568 802/783 801/782
f 582/568 583/569 803/784 802/783
f 582/568 584/570 585/571 583/569
f 583/569 812/793 804/785 803/784
f 583/569 585/571 586/572 812/793
f 585/571 589/575 590/576 586/572
f 586/572 590/576 591/577 587/573
f 586/572 587/573 813/794 812/793
f 587/573 591/577 592/578 588/574
f 587/573 588/574 814/795 813/794
f 588/574 821/802 815/796 814/795
f 588/574 592/578 593/579 821/802
f 589/575 597/583 598/584 590/576
f 590/576 598/584 599/585 591/577
f 591/577 599/585 600/586 592/578
f 592/578 600/586 601/587 593/579
f 593/579 601/587 602/588 594/580
f 593/579 594/580 822/803 821/802
f 594/580 602/588 603/589 595/581
f 594/580 595/581 823/804 822/803
f 595/581 596/582 824/805 823/804
f 595/581 603/589 604/590 596/582
f 596/582 828/809 825/806 824/805
f 596/582 604/590 605/591 828/809
f 598/584 608/594 609/595 599/585
f 599/585 609/595 610/596 600/586
f 600/586 610/596 611/597 601/587
f 601/587 611/597 612/598 602/588
f 602/588 612/598 613/599 603/589
f 603/589 613/599 614/600 604/590
f 604/590 614/600 615/601 605/591
f 605/591 615/601 616/602 606/592
f 605/591 606/592 829/810 828/809
f 606/592 607/593 830/811 829/810
f 606/592 616/602 617/603 607/593
f 607/593 832/813 831/812 830/811
f 607/593 617/603 618/604 832/813
f 609/595 621/607 622/608 610/596
f 610/596 622/608 623/609 611/597
f 611/597 623/609 624/610 612/598
f 612/598 624/610 625/611 613/599
f 613/599 625/611 626/612 614/600
f 614/600 626/612 627/613 615/601
f 615/601 627/613 628/614 616/602
f 616/602 628/614 629/615 617/603
f 617/603 629/615 630/616 618/604
f 618/604 630/616 631/617 619/605
f 618/604 619/605 833/814 832/813
f 619/605 631/617 977/947 620/606
f 621/607 632/618 633/619 622/608
f 622/608 633/619 634/620 623/609
f 623/609 634/620 635/621 624/610
f 624/610 635/621 636/622 625/611
f 625/611 636/622 637/623 626/612
f 626/612 637/623 638/624 627/613
f 627/613 638/624 639/625 628/614
f 628/614 639/625 640/626 629/615
f 629/615 640/626 641/627 630/616
f 630/616 641/627 976/946 631/617
f 633/619 642/628 643/629 634/620
f 634/620 643/629 644/630 635/621
f 635/621 644/630 645/631 636/622
f 636/622 645/631 646/632 637/623
f 637/623 646/632 647/633 638/624
f 638/624 647/633 648/634 639/625
f 639/625 648/634 649/635 640/626
f 640/626 649/635 975/945 641/627
f 643/629 650/636 651/637 644/630
f 644/630 651/637 652/638 645/631
f 645/631 652/638 653/639 646/632
f 646/632 653/639 654/640 647/633
f 647/633 654/640 655/641 648/634
f 648/634 655/641 974/944 649/635
f 650/636 656/642 657/643 651/637
f 651/637 657/643 658/644 652/638
f 652/638 658/644 659/645 653/639
f 653/639 659/645 660/646 654/640
f 654/640 660/646 973/943 655/641
f 657/643 661/647 662/648 658/644
f 658/644 662/648 663/649 659/645
f 659/645 663/649 972/942 660/646
f 662/648 664/650 971/941 663/649
f 665/651 667/653 747/728 666/652
f 665/651 1003/968 995/960 667/653
f 667/653 668/654 746/727 747/728
f 667/653 995/960 996/961 668/654
f 668/654 742/723 745/726 746/727
f 668/654 996/961 997/962 742/723
f 669/655 729/1036 670/1037 671/1032
f 669/655 671/1032 906/885 905/884
f 670/1044 728/711 672/656 673/657
f 670/1044 673/657 674/1047 671/1048
f 671/1032 674/1033 908/1028 906/885
f 672/656 676/659 677/660 673/657
f 672/656 726/709 675/658 676/659
f 672/656 728/711 727/710 726/709
f 673/657 677/660 678/661 674/1047
f 674/1047 678/661 911/1051 908/1052
f 675/658 949/919 679/662 676/659
f 676/659 679/662 680/663 677/660
f 677/660 680/663 681/664 678/661
f 678/661 681/664 914/890 911/1051
f 679/662 947/917 682/665 680/663
f 679/662 949/919 950/920 947/917
f 680/663 682/665 683/666 681/664
f 681/664 683/666 918/892 914/890
f 682/665 946/916 684/667 683/666
f 682/665 947/917 948/918 946/916
f 683/666 684/667 923/894 918/892
f 684/667 1001/966 998/963 923/894
f 684/667 946/916 740/721 1001/966
f 685/668 1010/974 938/908 686/669
f 686/669 938/908 941/911 1002/967
f 687/670 747/728 746/727 751/732
f 687/670 751/732 689/672 688/671
f 689/672 692/675 693/676 690/673
f 689/672 751/732 750/731 692/675
f 690/673 693/676 694/677 691/674
f 692/675 750/731 749/730 753/734
f 692/675 753/734 695/678 693/676
f 693/676 695/678 994/959 694/677
f 695/678 753/734 752/733 696/679
f 696/679 752/733 954/924 1022/984
f 698/681 703/686 704/687 699/682
f 699/682 704/687 705/688 700/683
f 701/684 706/689 707/690 702/685
f 702/685 707/690 708/691 703/686
f 703/686 708/691 709/692 704/687
f 704/687 709/692 710/693 705/688
f 707/690 711/694 712/695 708/691
f 708/691 712/695 713/696 709/692
f 709/692 713/696 714/697 710/693
f 712/695 715/698 716/699 713/696
f 713/696 716/699 717/700 714/697
f 715/698 718/701 719/702 716/699
f 716/699 719/702 720/703 717/700
f 719/702 721/704 722/705 720/703
f 723/706 1008/972 1007/971 725/708
f 725/708 1007/971 727/710 733/715
f 726/709 727/710 1007/971 1008/972
f 735/716 986/951 987/952 736/717
f 736/717 987/952 988/953 737/718
f 737/718 988/953 989/954 738/719
f 739/720 904/1054 903/1057 1003/968
f 740/721 946/916 948/918 743/724
f 740/721 741/722 998/963 1001/966
f 740/721 743/724 744/725 741/722
f 741/722 744/725 745/726 742/723
f 741/722 742/723 997/962 998/963
f 743/724 948/918 951/921 748/729
f 743/724 748/729 749/730 744/725
f 744/725 749/730 750/731 745/726
f 745/726 750/731 751/732 746/727
f 748/729 752/733 753/734 749/730
f 748/729 951/921 954/924 752/733
f 755/736 758/739 759/740 756/737
f 755/736 756/737 990/955 1025/987
f 756/737 759/740 760/741 757/738
f 756/737 757/738 1020/982 990/955
f 758/739 761/742 762/743 759/740
f 759/740 762/743 763/744 760/741
f 762/743 765/746 766/747 763/744
f 763/744 766/747 767/748 764/745
f 766/747 768/749 769/750 767/748
f 769/750 771/752 772/753 770/751
f 777/758 781/762 782/763 778/759
f 777/758 778/759 1018/981 989/954
f 778/759 782/763 783/764 779/760
f 780/761 786/767 787/768 781/762
f 781/762 787/768 788/769 782/763
f 782/763 788/769 789/770 783/764
f 783/764 789/770 790/771 784/765
f 785/766 793/774 794/775 786/767
f 786/767 794/775 795/776 787/768
f 787/768 795/776 796/777 788/769
f 788/769 796/777 797/778 789/770
f 789/770 797/778 798/779 790/771
f 790/771 798/779 799/780 791/772
f 792/773 802/783 803/784 793/774
f 793/774 803/784 804/785 794/775
f 794/775 804/785 805/786 795/776
f 795/776 805/786 806/787 796/777
f 796/777 806/787 807/788 797/778
f 797/778 807/788 808/789 798/779
f 798/779 808/789 809/790 799/780
f 799/780 809/790 810/791 800/781
f 804/785 812/793 813/794 805/786
f 805/786 813/794 814/795 806/787
f 806/787 814/795 815/796 807/788
f 807/788 815/796 816/797 808/789
f 808/789 816/797 817/798 809/790
f 809/790 817/798 818/799 810/791
f 810/791 818/799 819/800 811/792
f 815/796 821/802 822/803 816/797
f 816/797 822/803 823/804 817/798
f 817/798 823/804 824/805 818/799
f 818/799 824/805 825/806 819/800
f 819/800 825/806 826/807 820/801
f 825/806 828/809 829/810 826/807
f 826/807 829/810 830/811 827/808
f 834/815 836/817 837/818 835/816
f 834/815 835/816 898/879 897/878
f 835/816 901/882 899/880 898/879
f 835/816 837/818 838/819 901/882
f 836/817 840/821 841/822 837/818
f 837/818 841/822 842/823 838/819
f 838/819 842/823 843/824 839/820
f 838/819 839/820 902/883 901/882
f 840/821 844/825 845/826 841/822
f 841/822 845/826 846/827 842/823
f 842/823 846/827 847/828 843/824
f 844/825 991/956 848/829 845/826
f 845/826 848/829 849/830 846/827
f 848/829 850/831 851/832 849/830
f 850/831 852/833 853/834 851/832
f 857/838 864/845 865/846 858/839
f 858/839 865/846 866/847 859/840
f 859/840 866/847 867/848 860/841
f 860/841 867/848 868/849 861/842
f 861/842 868/849 869/850 862/843
f 862/843 869/850 870/851 863/844
f 866/847 871/852 872/853 867/848
f 867/848 872/853 873/854 868/849
f 868/849 873/854 874/855 869/850
f 869/850 874/855 875/856 870/851
f 872/853 876/857 877/858 873/854
f 873/854 877/858 878/859 874/855
f 874/855 878/859 879/860 875/856
f 878/859 880/861 881/862 879/860
f 882/863 993/958 890/871 883/864
f 882/863 992/957 895/876 993/958
f 883/864 890/871 891/872 884/865
f 884/865 891/872 892/873 885/866
f 885/866 892/873 893/874 886/867
f 889/870 968/938 957/927 1021/983
f 890/871 993/958 894/875 1004/969
f 894/875 993/958 895/876 896/877
f 895/876 898/879 899/880 896/877
f 895/876 992/957 897/878 898/879
f 899/880 901/882 902/883 900/881
f 903/1057 1006/1058 927/1059 1003/968
f 903/1012 936/906 935/905 1006/1013
f 905/884 906/885 907/886 937/907
f 905/884 937/907 938/908 1010/974
f 906/885 908/1028 909/887 907/886
f 907/886 909/887 910/888 939/909
f 907/886 939/909 940/910 937/907
f 908/1028 911/1029 912/1024 909/887
f 909/887 912/1024 913/889 910/888
f 910/888 943/913 944/914 939/909
f 910/888 913/889 942/912 943/913
f 911/1051 914/890 915/1055 912/1056
f 912/1024 915/1025 916/1020 913/889
f 913/889 916/1020 917/891 942/912
f 914/890 918/892 919/893 915/1055
f 915/1055 919/893 920/1060 916/1061
f 916/1020 920/1021 921/1018 917/891
f 917/891 921/1018 922/1014 945/915
f 917/891 945/915 931/901 942/912
f 918/892 923/894 924/895 919/893
f 919/893 924/895 925/896 920/1060
f 920/1060 925/896 926/897 921/1063
f 921/1063 926/897 927/1059 922/1062
f 922/1014 935/905 933/903 945/915
f 922/1014 927/1015 1006/1013 935/905
f 923/894 998/963 997/962 924/895
f 924/895 997/962 996/961 925/896
f 925/896 996/961 995/960 926/897
f 926/897 995/960 1003/968 927/1059
f 928/898 940/910 939/909 944/914
f 929/899 944/914 943/913 930/900
f 930/900 943/913 942/912 931/901
f 931/901 945/915 933/903 932/902
f 933/903 935/905 936/906 934/904
f 937/907 940/910 941/911 938/908
f 947/917 950/920 951/921 948/918
f 949/919 952/922 953/923 950/920
f 950/920 953/923 954/924 951/921
# h3dt: 1027 1063 0 1025
